<svg width="32" height="32" viewBox="0 0 32 32" fill="none" xmlns="http://www.w3.org/2000/svg">
<path d="M11.9999 16.0001C11.9989 15.8246 12.0326 15.6506 12.0989 15.4882C12.1653 15.3257 12.263 15.178 12.3866 15.0534L17.7199 9.72006C17.971 9.46899 18.3115 9.32794 18.6666 9.32794C19.0217 9.32794 19.3622 9.46899 19.6133 9.72006C19.8644 9.97114 20.0054 10.3117 20.0054 10.6667C20.0054 11.0218 19.8644 11.3623 19.6133 11.6134L15.2133 16.0001L19.5999 20.3867C19.8184 20.6418 19.9325 20.9699 19.9196 21.3055C19.9066 21.641 19.7675 21.9594 19.53 22.1968C19.2926 22.4343 18.9743 22.5734 18.6387 22.5863C18.3031 22.5993 17.975 22.4852 17.7199 22.2667L12.3866 16.9334C12.1403 16.685 12.0014 16.3498 11.9999 16.0001Z" fill="#A098AE"/>
</svg>
