<svg width="32" height="32" viewBox="0 0 32 32" fill="none" xmlns="http://www.w3.org/2000/svg">
<path d="M16 17.5C18.4853 17.5 20.5 15.4853 20.5 13C20.5 10.5147 18.4853 8.5 16 8.5C13.5147 8.5 11.5 10.5147 11.5 13C11.5 15.4853 13.5147 17.5 16 17.5Z" fill="#2E2E2E"/>
<path d="M20.5 23.5C20.351 23.5009 20.2052 23.4573 20.081 23.375C19.9569 23.2926 19.8601 23.1752 19.803 23.0376C19.7458 22.9 19.731 22.7485 19.7603 22.6025C19.7896 22.4564 19.8617 22.3224 19.9675 22.2175L24.4675 17.7175C24.7238 17.4479 24.8955 17.1092 24.9615 16.7431C25.0276 16.3771 24.985 15.9997 24.839 15.6575C24.6931 15.3154 24.4501 15.0235 24.1402 14.8178C23.8303 14.6121 23.4669 14.5016 23.095 14.5H19.675C19.4761 14.5 19.2853 14.421 19.1446 14.2803C19.004 14.1397 18.925 13.9489 18.925 13.75C18.925 13.5511 19.004 13.3603 19.1446 13.2197C19.2853 13.079 19.4761 13 19.675 13H23.095C23.7684 13.0001 24.4266 13.1998 24.9865 13.574C25.5464 13.9481 25.9827 14.4799 26.2404 15.102C26.4981 15.7241 26.5655 16.4087 26.4342 17.0692C26.3028 17.7296 25.9786 18.3363 25.5025 18.8125L21.0025 23.3125C20.8638 23.4348 20.6849 23.5016 20.5 23.5ZM11.5 23.5C11.4013 23.5006 11.3034 23.4817 11.212 23.4443C11.1207 23.407 11.0376 23.352 10.9675 23.2825L6.46748 18.7825C5.99978 18.303 5.6839 17.6962 5.55936 17.038C5.43483 16.3799 5.50719 15.6996 5.76737 15.0824C6.02755 14.4652 6.464 13.9384 7.0221 13.568C7.5802 13.1976 8.23515 13 8.90498 13H12.325C12.5239 13 12.7147 13.079 12.8553 13.2197C12.996 13.3603 13.075 13.5511 13.075 13.75C13.075 13.9489 12.996 14.1397 12.8553 14.2803C12.7147 14.421 12.5239 14.5 12.325 14.5H8.90498C8.52952 14.5018 8.16296 14.6145 7.85135 14.8239C7.53973 15.0334 7.29696 15.3302 7.15352 15.6772C7.01008 16.0242 6.97237 16.4058 7.04513 16.7742C7.11789 17.1425 7.29788 17.4811 7.56248 17.7475L12.0625 22.2475C12.16 22.3556 12.224 22.4897 12.2466 22.6334C12.2692 22.7772 12.2495 22.9245 12.1899 23.0573C12.1303 23.1901 12.0333 23.3026 11.9108 23.3812C11.7883 23.4599 11.6455 23.5011 11.5 23.5Z" fill="#2E2E2E"/>
</svg>
