<svg width="56" height="56" viewBox="0 0 56 56" fill="none" xmlns="http://www.w3.org/2000/svg">
<g clip-path="url(#clip0_2_222)">
<path d="M34.7083 36.575C30.2167 36.575 21.2333 32.3167 14.0583 25.1417C9.50833 20.5917 7.93333 15.575 7.875 12.0167L9.39167 9.5667L11.4917 7.9917C11.55 7.9917 11.6667 7.9917 11.725 7.9917C14.4667 7.9917 19.8333 8.80837 25.1417 14.0584C29.3417 18.2584 33.0167 23.6834 35.0583 28.5834C36.9833 33.3084 36.6917 35.875 36.225 36.2834C36.1667 36.3417 35.7 36.575 34.7083 36.575Z" fill="#F8B602"/>
<path d="M19.1916 27.8834C18.7833 27.8834 18.4916 27.7084 18.375 27.65C17.2666 27.0667 16.45 25.9584 15.9833 24.5584C15.6333 23.3917 15.6333 22.225 15.6333 21.175L17.9083 21.1167C17.9083 22.05 17.9666 23.0417 18.2 23.9167C18.3166 24.2667 18.4333 24.5584 18.6083 24.85C18.6666 24.6167 18.6666 24.15 19.0166 23.7417C19.5416 23.1 20.475 22.925 21.35 23.3917C21.4666 23.45 21.5833 23.5084 21.7 23.5667C21.7583 23.625 21.8166 23.625 21.875 23.6834C21.875 23.6834 21.875 23.6834 21.875 23.625C21.9333 23.45 21.9333 23.2167 21.875 22.8667C21.875 22.75 21.8166 22.6917 21.8166 22.575C21.7583 22.225 21.6416 21.875 21.6416 21.4667C21.6416 20.5917 22.1083 19.775 22.8666 19.4834C23.45 19.25 24.0333 19.3084 24.4416 19.425L23.975 17.7334C23.8583 17.325 23.975 16.9167 24.2666 16.625C24.2666 16.625 24.2666 16.625 24.325 16.5667C23.275 16.3917 22.1083 16.5084 21 16.625L20.7666 14.35C22.05 14.2334 23.5083 14.0584 24.9083 14.35C26.6583 14.7 28.0583 15.6334 28.8166 16.9167C28.9916 17.2084 28.9916 17.6167 28.875 17.9667C28.7 18.3167 28.4083 18.55 28.0583 18.6084C27.5916 18.6667 27.125 18.725 26.6583 18.725L26.7166 18.9C27.0083 19.95 26.8333 20.7667 26.25 21.2917C25.4916 21.9334 24.6166 21.7 24.15 21.5834C24.0916 21.5834 24.0333 21.5834 24.0333 21.525C24.0333 21.6417 24.0916 21.8167 24.15 21.9917C24.15 22.1084 24.2083 22.225 24.2083 22.3417C24.3833 23.1584 24.325 23.8584 24.0916 24.4417C23.6833 25.375 22.75 25.9584 21.8166 25.8417C21.4083 25.7834 21.1166 25.6667 20.8833 25.4917L20.7666 26.25C20.5916 27.5334 19.775 27.7667 19.4833 27.7667C19.3083 27.8834 19.25 27.8834 19.1916 27.8834Z" fill="#2E2E2E"/>
<path d="M15.2252 11.2C14.2919 12.1334 12.8335 12.1334 11.9002 11.2C10.9669 10.2667 10.9669 8.80838 11.9002 7.87505C12.8335 6.94172 14.2919 6.94172 15.2252 7.87505C16.1585 8.80838 16.1585 10.2667 15.2252 11.2Z" fill="#A6C44A"/>
<path d="M13.5334 13.0083C12.6001 13.0083 11.7251 12.6583 11.0834 11.9583C9.74173 10.6166 9.74173 8.39995 11.0834 6.99995C11.7251 6.35828 12.6001 5.94995 13.5334 5.94995C14.4667 5.94995 15.3417 6.29995 15.9834 6.99995C17.3251 8.34162 17.3251 10.5583 15.9834 11.9583C15.3417 12.6583 14.4667 13.0083 13.5334 13.0083ZM13.5334 8.28328C13.1834 8.28328 12.8917 8.39995 12.6584 8.63329C12.1917 9.09995 12.1917 9.91662 12.6584 10.3833C13.1251 10.85 13.9417 10.85 14.4084 10.3833C14.8751 9.91662 14.8751 9.09995 14.4084 8.63329C14.1751 8.39995 13.8834 8.28328 13.5334 8.28328Z" fill="#2E2E2E"/>
<path d="M34.7083 42.0584C28.0583 42.0584 17.7917 36.5751 10.2083 28.9918C1.45833 20.2418 1.80833 10.6751 3.20833 6.82509L3.49999 5.95009L5.83333 6.18342L5.54166 3.73342L6.29999 3.38342C10.675 1.57509 20.7083 1.80842 28.9917 10.1501C38.675 19.8334 45.5 34.7084 40.075 40.1334C38.85 41.3584 37.0417 42.0584 34.7083 42.0584ZM5.07499 8.40009C4.02499 12.6001 4.95833 20.4751 11.7833 27.3584C18.8417 34.4168 28.7 39.7251 34.7083 39.7251C36.4 39.7251 37.6833 39.3168 38.5583 38.4418C42.525 34.4751 36.9833 21.2334 27.475 11.6668C20.3583 4.66676 12.1333 3.96676 7.99166 5.19176L8.39999 8.80842L5.07499 8.40009Z" fill="#2E2E2E"/>
<path d="M40.9498 35.1167C40.8915 36.8667 40.3665 38.325 39.3748 39.3167C38.3831 40.3084 36.9248 40.8334 35.1748 40.8917L38.6165 53.4917L53.4915 38.5L40.9498 35.1167Z" fill="#A6C44A"/>
<path d="M37.9749 55.6501L33.6582 39.7834L35.0582 39.7251C36.5749 39.6668 37.7415 39.2584 38.4999 38.4418C39.2582 37.6834 39.6665 36.5168 39.7832 35.0001L39.8415 33.6001L55.7082 37.9168L37.9749 55.6501ZM36.5749 41.8834L39.1415 51.3334L51.3332 39.0834L41.8832 36.5168C41.5915 37.9751 41.0082 39.1418 40.1332 40.0751C39.2582 41.0084 38.0332 41.5918 36.5749 41.8834Z" fill="#2E2E2E"/>
<path d="M26.4248 52.4418C25.7248 52.4418 25.0248 52.4418 24.3832 52.3834L24.5582 50.1084C25.1998 50.1668 25.8415 50.1668 26.4248 50.1668C26.5415 50.1668 26.5998 50.1668 26.7165 50.1668L26.7748 52.4418C26.6582 52.4418 26.5415 52.4418 26.4248 52.4418ZM30.2748 52.1501L29.9248 49.9334C30.6248 49.8168 31.3248 49.7001 32.0248 49.5251L32.5498 51.7418C31.8498 51.8584 31.0332 52.0334 30.2748 52.1501ZM20.8832 51.8584C20.1248 51.6834 19.3665 51.5084 18.6082 51.2751L19.3082 49.1168C20.0082 49.3501 20.7082 49.5251 21.4082 49.6418L20.8832 51.8584ZM15.2832 49.9918C14.5832 49.6418 13.8832 49.2918 13.1832 48.8834L14.3498 46.9584C14.9915 47.3084 15.6332 47.6584 16.2748 47.9501L15.2832 49.9918ZM10.2665 46.8418C9.62484 46.3751 9.0415 45.8501 8.45817 45.2668L10.0332 43.6334C10.5582 44.1001 11.0832 44.6251 11.6665 45.0334L10.2665 46.8418ZM6.0665 42.7001C5.59984 42.0584 5.07484 41.4168 4.6665 40.7751L6.53317 39.5501C6.9415 40.1334 7.34984 40.7168 7.8165 41.3001L6.0665 42.7001ZM2.9165 37.7418C2.5665 37.0418 2.27484 36.2834 1.98317 35.5834L4.08317 34.7668C4.3165 35.4668 4.60817 36.1084 4.95817 36.7501L2.9165 37.7418ZM0.93317 32.1418C0.758171 31.3834 0.641504 30.5668 0.524837 29.8084L2.7415 29.5168C2.85817 30.2168 2.97484 30.9168 3.14984 31.6168L0.93317 32.1418ZM2.5665 26.3084H0.291504C0.291504 25.5501 0.349837 24.7334 0.408171 23.9751L2.68317 24.2084C2.62484 24.8501 2.5665 25.5501 2.5665 26.3084Z" fill="#2E2E2E"/>
<path d="M52.0334 30.7417L49.8167 30.3917C49.9334 29.6917 50.0501 28.9917 50.1084 28.2334L52.3834 28.4084C52.2667 29.1667 52.2084 29.9834 52.0334 30.7417ZM50.1084 24.9667C50.0501 24.2667 49.9917 23.5084 49.8751 22.8084L52.0917 22.4584C52.2084 23.2167 52.2667 24.0334 52.3251 24.7917L50.1084 24.9667ZM49.1751 19.6584C49.0001 18.9584 48.7667 18.2584 48.4751 17.6167L50.5751 16.8001C50.8667 17.5584 51.1001 18.2584 51.3334 19.0167L49.1751 19.6584ZM47.1334 14.7001C46.7834 14.0584 46.3751 13.4751 45.9667 12.8917L47.8334 11.6084C48.3001 12.2501 48.7084 12.9501 49.0584 13.5917L47.1334 14.7001ZM43.9834 10.3251C43.5167 9.80008 42.9917 9.27508 42.4667 8.80841L43.9834 7.11675C44.5667 7.64175 45.1501 8.22508 45.6751 8.80841L43.9834 10.3251ZM39.9001 6.76675C39.3167 6.35841 38.6751 5.95008 38.0917 5.60008L39.2001 3.61675C39.9001 4.02508 40.5417 4.43341 41.1834 4.90008L39.9001 6.76675ZM35.1751 4.25841C34.4751 3.96675 33.8334 3.73341 33.1334 3.50008L33.7751 1.34175C34.5334 1.57508 35.2917 1.80841 35.9917 2.10008L35.1751 4.25841ZM22.4584 2.85841L22.1084 0.641748C22.8667 0.525081 23.6834 0.408415 24.4417 0.350081L24.6167 2.62508C23.8584 2.68341 23.1584 2.74175 22.4584 2.85841ZM29.9834 2.80008C29.2834 2.68341 28.5251 2.62508 27.8251 2.56675L27.9417 0.291748C28.7001 0.350081 29.5167 0.408415 30.2751 0.525081L29.9834 2.80008Z" fill="#2E2E2E"/>
</g>
<defs>
<clipPath id="clip0_2_222">
<rect width="56" height="56" fill="white"/>
</clipPath>
</defs>
</svg>
