<svg width="24" height="24" viewBox="0 0 24 24" fill="none" xmlns="http://www.w3.org/2000/svg">
<g clip-path="url(#clip0_2_2326)">
<path d="M0.75 12C0.75 18.225 5.775 23.25 12 23.25C18.225 23.25 23.25 18.225 23.25 12C23.25 5.775 18.225 0.75 12 0.75C5.775 0.75 0.75 5.775 0.75 12ZM12.75 7.425L12.75 14.325L14.7 12.6C15.15 12.225 15.75 12.3 16.125 12.675C16.275 12.9 16.35 13.125 16.35 13.35C16.35 13.65 16.2 13.95 15.975 14.1L12.375 17.25C12.3 17.325 12.225 17.325 12.15 17.4C12.075 17.4 12.075 17.4 12 17.475C11.925 17.475 11.925 17.475 11.85 17.475L11.775 17.475C11.7 17.475 11.7 17.475 11.625 17.475L11.55 17.475C11.475 17.475 11.475 17.475 11.4 17.4C11.4 17.4 11.325 17.4 11.325 17.325L11.25 17.25C11.25 17.25 11.25 17.25 11.175 17.175L8.025 13.95C7.65 13.575 7.65 12.9 8.025 12.525C8.4 12.15 9.075 12.15 9.45 12.525L10.875 14.025L10.875 7.35C10.875 6.825 11.325 6.3 11.925 6.3C12.3 6.45 12.75 6.9 12.75 7.425Z" fill="#EB5757"/>
</g>
<defs>
<clipPath id="clip0_2_2326">
<rect width="24" height="24" fill="white" transform="translate(0 24) rotate(-90)"/>
</clipPath>
</defs>
</svg>
