<svg width="24" height="24" viewBox="0 0 24 24" fill="none" xmlns="http://www.w3.org/2000/svg">
<path d="M12.0012 9.35986C11.6543 9.35986 11.3109 9.42818 10.9904 9.56091C10.67 9.69365 10.3788 9.88819 10.1335 10.1335C9.88829 10.3787 9.69374 10.6699 9.56101 10.9903C9.42828 11.3108 9.35996 11.6542 9.35996 12.0011C9.35996 12.3479 9.42828 12.6914 9.56101 13.0118C9.69374 13.3323 9.88829 13.6234 10.1335 13.8687C10.3788 14.1139 10.67 14.3085 10.9904 14.4412C11.3109 14.5739 11.6543 14.6423 12.0012 14.6423C12.7017 14.6421 13.3734 14.3637 13.8686 13.8682C14.3638 13.3728 14.6419 12.701 14.6418 12.0005C14.6416 11.3 14.3632 10.6282 13.8677 10.133C13.3723 9.63782 12.7004 9.3597 12 9.35986H12.0012ZM3.60116 9.35986C3.25431 9.35986 2.91086 9.42818 2.59042 9.56091C2.26997 9.69365 1.97881 9.88819 1.73355 10.1335C1.48829 10.3787 1.29374 10.6699 1.16101 10.9903C1.02828 11.3108 0.959961 11.6542 0.959961 12.0011C0.959961 12.3479 1.02828 12.6914 1.16101 13.0118C1.29374 13.3323 1.48829 13.6234 1.73355 13.8687C1.97881 14.1139 2.26997 14.3085 2.59042 14.4412C2.91086 14.5739 3.25431 14.6423 3.60116 14.6423C4.30165 14.6421 4.97339 14.3637 5.4686 13.8682C5.9638 13.3728 6.24192 12.701 6.24176 12.0005C6.2416 11.3 5.96318 10.6282 5.46775 10.133C4.97231 9.63782 4.30045 9.3597 3.59996 9.35986H3.60116ZM20.4012 9.35986C20.0543 9.35986 19.7109 9.42818 19.3904 9.56091C19.07 9.69365 18.7788 9.88819 18.5336 10.1335C18.2883 10.3787 18.0937 10.6699 17.961 10.9903C17.8283 11.3108 17.76 11.6542 17.76 12.0011C17.76 12.3479 17.8283 12.6914 17.961 13.0118C18.0937 13.3323 18.2883 13.6234 18.5336 13.8687C18.7788 14.1139 19.07 14.3085 19.3904 14.4412C19.7109 14.5739 20.0543 14.6423 20.4012 14.6423C21.1017 14.6421 21.7734 14.3637 22.2686 13.8682C22.7638 13.3728 23.0419 12.701 23.0418 12.0005C23.0416 11.3 22.7632 10.6282 22.2677 10.133C21.7723 9.63782 21.1005 9.3597 20.4 9.35986H20.4012Z" fill="#A098AE"/>
</svg>
