<svg width="40" height="40" viewBox="0 0 40 40" fill="none" xmlns="http://www.w3.org/2000/svg">
<path d="M8.3335 30.8333C8.3335 33.6967 14.8135 35 20.8335 35C26.8535 35 33.3335 33.6967 33.3335 30.8333C33.3335 28.56 29.3985 27.5333 26.5635 27.09L28.5002 25.1667C30.0153 23.6516 31.0472 21.7213 31.4653 19.6198C31.8834 17.5183 31.6689 15.3401 30.8489 13.3605C30.029 11.3809 28.6405 9.68892 26.8589 8.49849C25.0774 7.30807 22.9828 6.67268 20.8402 6.67268C18.6975 6.67268 16.6029 7.30807 14.8214 8.49849C13.0398 9.68892 11.6513 11.3809 10.8314 13.3605C10.0115 15.3401 9.79698 17.5183 10.2151 19.6198C10.6331 21.7213 11.665 23.6516 13.1802 25.1667L15.1102 27.0967C12.2685 27.5333 8.3335 28.56 8.3335 30.8333ZM22.5002 13.3333C22.5002 13.1786 22.5433 13.0269 22.6246 12.8952C22.706 12.7636 22.8224 12.6572 22.9608 12.588C23.0992 12.5188 23.2542 12.4895 23.4083 12.5034C23.5625 12.5173 23.7097 12.5738 23.8335 12.6667C24.8654 13.4409 25.7223 14.4242 26.3481 15.5523C26.9739 16.6805 27.3546 17.928 27.4652 19.2133C27.5018 19.6082 27.3954 20.0031 27.1653 20.3261C26.9353 20.6491 26.5969 20.8788 26.2118 20.9733L24.1668 21.485V23.3333C24.1668 23.5543 24.079 23.7663 23.9228 23.9226C23.7665 24.0789 23.5545 24.1667 23.3335 24.1667C23.1125 24.1667 22.9005 24.0789 22.7442 23.9226C22.588 23.7663 22.5002 23.5543 22.5002 23.3333V13.3333ZM15.0002 15V13.3333C15.0002 13.1123 15.088 12.9004 15.2442 12.7441C15.4005 12.5878 15.6125 12.5 15.8335 12.5C16.0545 12.5 16.2665 12.5878 16.4228 12.7441C16.579 12.9004 16.6668 13.1123 16.6668 13.3333V15C16.6701 15.2874 16.7489 15.5689 16.8951 15.8163C17.0413 16.0638 17.25 16.2685 17.5002 16.41V13.3333C17.5002 13.1123 17.588 12.9004 17.7442 12.7441C17.9005 12.5878 18.1125 12.5 18.3335 12.5C18.5545 12.5 18.7665 12.5878 18.9228 12.7441C19.079 12.9004 19.1668 13.1123 19.1668 13.3333V16.41C19.417 16.2685 19.6257 16.0638 19.7719 15.8163C19.9181 15.5689 19.9968 15.2874 20.0002 15V13.3333C20.0002 13.1123 20.088 12.9004 20.2442 12.7441C20.4005 12.5878 20.6125 12.5 20.8335 12.5C21.0545 12.5 21.2665 12.5878 21.4228 12.7441C21.579 12.9004 21.6668 13.1123 21.6668 13.3333V15C21.6641 15.7368 21.4172 16.452 20.9649 17.0337C20.5126 17.6154 19.8803 18.0308 19.1668 18.215V23.3333C19.1668 23.5543 19.079 23.7663 18.9228 23.9226C18.7665 24.0789 18.5545 24.1667 18.3335 24.1667C18.1125 24.1667 17.9005 24.0789 17.7442 23.9226C17.588 23.7663 17.5002 23.5543 17.5002 23.3333V18.215C16.7867 18.0308 16.1544 17.6154 15.7021 17.0337C15.2498 16.452 15.0029 15.7368 15.0002 15ZM16.5902 28.5767L19.0652 31.0533C19.2973 31.2856 19.573 31.4699 19.8764 31.5957C20.1798 31.7214 20.5051 31.7861 20.8335 31.7861C21.1619 31.7861 21.4872 31.7214 21.7906 31.5957C22.094 31.4699 22.3697 31.2856 22.6018 31.0533L25.0768 28.5767C29.6568 29.1067 31.6668 30.3133 31.6668 30.8333C31.6668 31.58 27.9818 33.3333 20.8335 33.3333C13.6852 33.3333 10.0002 31.58 10.0002 30.8333C10.0002 30.3133 12.0102 29.1067 16.5902 28.5767Z" fill="white"/>
</svg>
