<svg width="48" height="48" viewBox="0 0 48 48" fill="none" xmlns="http://www.w3.org/2000/svg">
<rect x="1" y="1" width="46" height="46" rx="15" stroke="#DBDBDB" stroke-width="2"/>
<path d="M20.2627 33.7499C19.8742 33.7499 19.4902 33.6006 19.1992 33.3096L14.6895 28.7999C14.1022 28.2134 14.1022 27.2609 14.6895 26.6744C15.2767 26.0871 16.2277 26.0871 16.815 26.6744L20.4412 30.3006L31.395 22.7819C32.079 22.3124 33.015 22.4864 33.4845 23.1704C33.9547 23.8551 33.7807 24.7904 33.096 25.2606L21.1132 33.4859C20.8545 33.6629 20.5582 33.7499 20.2627 33.7499Z" fill="#F8B602"/>
<path d="M20.2627 25.4819C19.8742 25.4819 19.4902 25.3327 19.1992 25.0417L14.6895 20.5319C14.1022 19.9447 14.1022 18.9929 14.6895 18.4064C15.2767 17.8192 16.2277 17.8192 16.815 18.4064L20.4412 22.0327L31.395 14.5139C32.079 14.0444 33.015 14.2184 33.4845 14.9024C33.9547 15.5872 33.7807 16.5224 33.096 16.9927L21.1132 25.2187C20.8545 25.3957 20.5582 25.4819 20.2627 25.4819Z" fill="#F8B602"/>
</svg>
