<svg width="40" height="40" viewBox="0 0 40 40" fill="none" xmlns="http://www.w3.org/2000/svg">
<path d="M33.7934 25.0883L32.5001 25.735L31.2067 25.0883C31.0909 25.0303 30.963 25 30.8334 25C30.7038 25 30.576 25.0303 30.4601 25.0883L29.1667 25.735L28.3334 25.3183V7.5C28.3334 7.35789 28.2971 7.21815 28.2278 7.09405C28.1586 6.96994 28.0588 6.86561 27.9379 6.79095C27.8169 6.7163 27.6789 6.67381 27.537 6.66751C27.395 6.66122 27.2538 6.69134 27.1267 6.755L25.8334 7.40167L24.5401 6.755C24.4242 6.69693 24.2964 6.66669 24.1667 6.66669C24.0371 6.66669 23.9093 6.69693 23.7934 6.755L22.5001 7.40167L21.2067 6.755C21.0909 6.69693 20.963 6.66669 20.8334 6.66669C20.7038 6.66669 20.576 6.69693 20.4601 6.755L19.1667 7.40167L17.8734 6.755C17.7575 6.69693 17.6297 6.66669 17.5001 6.66669C17.3705 6.66669 17.2426 6.69693 17.1267 6.755L15.8334 7.40167L14.5401 6.755C14.4242 6.69693 14.2964 6.66669 14.1667 6.66669C14.0371 6.66669 13.9093 6.69693 13.7934 6.755L12.5001 7.40167L11.2067 6.755C11.0909 6.69693 10.963 6.66669 10.8334 6.66669C10.7038 6.66669 10.576 6.69693 10.4601 6.755L9.16675 7.40167L7.87341 6.755C7.74637 6.69134 7.60515 6.66122 7.46318 6.66751C7.32121 6.67381 7.18321 6.7163 7.0623 6.79095C6.94138 6.86561 6.84156 6.96994 6.77233 7.09405C6.7031 7.21815 6.66675 7.35789 6.66675 7.5V30.8333C6.66675 31.9384 7.10573 32.9982 7.88714 33.7796C8.66854 34.561 9.72835 35 10.8334 35H30.8334C31.9385 35 32.9983 34.561 33.7797 33.7796C34.5611 32.9982 35.0001 31.9384 35.0001 30.8333V25.8333C35.0001 25.6912 34.9637 25.5515 34.8945 25.4274C34.8253 25.3033 34.7254 25.1989 34.6045 25.1243C34.4836 25.0496 34.3456 25.0071 34.2036 25.0008C34.0617 24.9946 33.9205 25.0247 33.7934 25.0883V25.0883ZM17.5001 16.6667C17.4973 17.4035 17.2505 18.1187 16.7982 18.7004C16.3458 19.282 15.7135 19.6975 15.0001 19.8817V27.5C15.0001 27.721 14.9123 27.933 14.756 28.0893C14.5997 28.2455 14.3878 28.3333 14.1667 28.3333C13.9457 28.3333 13.7338 28.2455 13.5775 28.0893C13.4212 27.933 13.3334 27.721 13.3334 27.5V19.8817C12.62 19.6975 11.9876 19.282 11.5353 18.7004C11.083 18.1187 10.8362 17.4035 10.8334 16.6667V14.1667C10.8334 13.9457 10.9212 13.7337 11.0775 13.5774C11.2338 13.4211 11.4457 13.3333 11.6667 13.3333C11.8878 13.3333 12.0997 13.4211 12.256 13.5774C12.4123 13.7337 12.5001 13.9457 12.5001 14.1667V16.6667C12.5034 16.9541 12.5821 17.2356 12.7284 17.483C12.8746 17.7305 13.0832 17.9352 13.3334 18.0767V14.1667C13.3334 13.9457 13.4212 13.7337 13.5775 13.5774C13.7338 13.4211 13.9457 13.3333 14.1667 13.3333C14.3878 13.3333 14.5997 13.4211 14.756 13.5774C14.9123 13.7337 15.0001 13.9457 15.0001 14.1667V18.0767C15.2503 17.9352 15.4589 17.7305 15.6051 17.483C15.7514 17.2356 15.8301 16.9541 15.8334 16.6667V14.1667C15.8334 13.9457 15.9212 13.7337 16.0775 13.5774C16.2338 13.4211 16.4457 13.3333 16.6667 13.3333C16.8878 13.3333 17.0997 13.4211 17.256 13.5774C17.4123 13.7337 17.5001 13.9457 17.5001 14.1667V16.6667ZM23.2584 23.3783L20.8334 23.985V27.5C20.8334 27.721 20.7456 27.933 20.5893 28.0893C20.4331 28.2455 20.2211 28.3333 20.0001 28.3333C19.7791 28.3333 19.5671 28.2455 19.4108 28.0893C19.2545 27.933 19.1667 27.721 19.1667 27.5V14.1667C19.1665 14.0016 19.2152 13.8402 19.3067 13.7029C19.3983 13.5656 19.5285 13.4586 19.681 13.3954C19.8334 13.3322 20.0012 13.3157 20.1631 13.3479C20.3249 13.3802 20.4735 13.4598 20.5901 13.5767C21.7277 14.7082 22.6296 16.0542 23.2435 17.5367C23.8575 19.0192 24.1713 20.6088 24.1667 22.2133C24.1673 22.4811 24.0781 22.7413 23.9134 22.9524C23.7488 23.1636 23.5182 23.3135 23.2584 23.3783V23.3783ZM33.3334 30.8333C33.3334 31.4964 33.07 32.1323 32.6012 32.6011C32.1323 33.0699 31.4965 33.3333 30.8334 33.3333C30.1704 33.3333 29.5345 33.0699 29.0656 32.6011C28.5968 32.1323 28.3334 31.4964 28.3334 30.8333V27.1817L28.7934 27.4117C28.9093 27.4697 29.0371 27.5 29.1667 27.5C29.2964 27.5 29.4242 27.4697 29.5401 27.4117L30.8334 26.765L32.1267 27.4117C32.2426 27.4697 32.3705 27.5 32.5001 27.5C32.6297 27.5 32.7575 27.4697 32.8734 27.4117L33.3334 27.1817V30.8333Z" fill="#A098AE"/>
</svg>
