<svg width="40" height="40" viewBox="0 0 40 40" fill="none" xmlns="http://www.w3.org/2000/svg">
<path d="M33.7933 25.0884L32.5 25.7351L31.2066 25.0884C31.0907 25.0303 30.9629 25.0001 30.8333 25.0001C30.7037 25.0001 30.5758 25.0303 30.46 25.0884L29.1666 25.7351L28.3333 25.3184V7.50005C28.3333 7.35795 28.2969 7.2182 28.2277 7.0941C28.1585 6.97 28.0587 6.86566 27.9377 6.79101C27.8168 6.71635 27.6788 6.67386 27.5369 6.66757C27.3949 6.66127 27.2537 6.69139 27.1266 6.75505L25.8333 7.40172L24.54 6.75505C24.4241 6.69698 24.2962 6.66675 24.1666 6.66675C24.037 6.66675 23.9092 6.69698 23.7933 6.75505L22.5 7.40172L21.2066 6.75505C21.0907 6.69698 20.9629 6.66675 20.8333 6.66675C20.7037 6.66675 20.5758 6.69698 20.46 6.75505L19.1666 7.40172L17.8733 6.75505C17.7574 6.69698 17.6296 6.66675 17.5 6.66675C17.3703 6.66675 17.2425 6.69698 17.1266 6.75505L15.8333 7.40172L14.54 6.75505C14.4241 6.69698 14.2962 6.66675 14.1666 6.66675C14.037 6.66675 13.9092 6.69698 13.7933 6.75505L12.5 7.40172L11.2066 6.75505C11.0907 6.69698 10.9629 6.66675 10.8333 6.66675C10.7037 6.66675 10.5758 6.69698 10.46 6.75505L9.16663 7.40172L7.87329 6.75505C7.74624 6.69139 7.60503 6.66127 7.46306 6.66757C7.32109 6.67386 7.18309 6.71635 7.06217 6.79101C6.94126 6.86566 6.84144 6.97 6.77221 7.0941C6.70298 7.2182 6.66663 7.35795 6.66663 7.50005V30.8334C6.66663 31.9385 7.10561 32.9983 7.88701 33.7797C8.66842 34.5611 9.72822 35.0001 10.8333 35.0001H30.8333C31.9384 35.0001 32.9982 34.5611 33.7796 33.7797C34.561 32.9983 35 31.9385 35 30.8334V25.8334C35 25.6913 34.9636 25.5515 34.8944 25.4274C34.8251 25.3033 34.7253 25.199 34.6044 25.1243C34.4835 25.0497 34.3455 25.0072 34.2035 25.0009C34.0616 24.9946 33.9203 25.0247 33.7933 25.0884V25.0884ZM17.5 16.6667C17.4972 17.4036 17.2504 18.1187 16.798 18.7004C16.3457 19.2821 15.7134 19.6975 15 19.8817V27.5001C15 27.7211 14.9122 27.933 14.7559 28.0893C14.5996 28.2456 14.3876 28.3334 14.1666 28.3334C13.9456 28.3334 13.7336 28.2456 13.5774 28.0893C13.4211 27.933 13.3333 27.7211 13.3333 27.5001V19.8817C12.6198 19.6975 11.9875 19.2821 11.5352 18.7004C11.0829 18.1187 10.8361 17.4036 10.8333 16.6667V14.1667C10.8333 13.9457 10.9211 13.7337 11.0774 13.5775C11.2337 13.4212 11.4456 13.3334 11.6666 13.3334C11.8876 13.3334 12.0996 13.4212 12.2559 13.5775C12.4122 13.7337 12.5 13.9457 12.5 14.1667V16.6667C12.5033 16.9541 12.582 17.2356 12.7282 17.4831C12.8745 17.7305 13.0831 17.9352 13.3333 18.0767V14.1667C13.3333 13.9457 13.4211 13.7337 13.5774 13.5775C13.7336 13.4212 13.9456 13.3334 14.1666 13.3334C14.3876 13.3334 14.5996 13.4212 14.7559 13.5775C14.9122 13.7337 15 13.9457 15 14.1667V18.0767C15.2501 17.9352 15.4588 17.7305 15.605 17.4831C15.7513 17.2356 15.83 16.9541 15.8333 16.6667V14.1667C15.8333 13.9457 15.9211 13.7337 16.0774 13.5775C16.2336 13.4212 16.4456 13.3334 16.6666 13.3334C16.8876 13.3334 17.0996 13.4212 17.2559 13.5775C17.4122 13.7337 17.5 13.9457 17.5 14.1667V16.6667ZM23.2583 23.3784L20.8333 23.9851V27.5001C20.8333 27.7211 20.7455 27.933 20.5892 28.0893C20.4329 28.2456 20.221 28.3334 20 28.3334C19.7789 28.3334 19.567 28.2456 19.4107 28.0893C19.2544 27.933 19.1666 27.7211 19.1666 27.5001V14.1667C19.1663 14.0017 19.215 13.8403 19.3066 13.703C19.3981 13.5656 19.5284 13.4586 19.6809 13.3954C19.8333 13.3322 20.0011 13.3157 20.1629 13.348C20.3248 13.3803 20.4734 13.4599 20.59 13.5767C21.7276 14.7083 22.6295 16.0543 23.2434 17.5368C23.8574 19.0193 24.1712 20.6088 24.1666 22.2134C24.1671 22.4811 24.078 22.7413 23.9133 22.9525C23.7487 23.1637 23.5181 23.3136 23.2583 23.3784V23.3784ZM33.3333 30.8334C33.3333 31.4964 33.0699 32.1323 32.6011 32.6012C32.1322 33.07 31.4963 33.3334 30.8333 33.3334C30.1703 33.3334 29.5344 33.07 29.0655 32.6012C28.5967 32.1323 28.3333 31.4964 28.3333 30.8334V27.1817L28.7933 27.4117C28.9092 27.4698 29.037 27.5 29.1666 27.5C29.2962 27.5 29.4241 27.4698 29.54 27.4117L30.8333 26.7651L32.1266 27.4117C32.2425 27.4698 32.3703 27.5 32.5 27.5C32.6296 27.5 32.7574 27.4698 32.8733 27.4117L33.3333 27.1817V30.8334Z" fill="#A098AE"/>
</svg>
