<svg width="24" height="24" viewBox="0 0 24 24" fill="none" xmlns="http://www.w3.org/2000/svg">
<path d="M12.0014 9.35986C11.6546 9.35986 11.3111 9.42818 10.9907 9.56091C10.6702 9.69365 10.3791 9.88819 10.1338 10.1335C9.88855 10.3787 9.694 10.6699 9.56127 10.9903C9.42854 11.3108 9.36022 11.6542 9.36022 12.0011C9.36022 12.3479 9.42854 12.6914 9.56127 13.0118C9.694 13.3323 9.88855 13.6234 10.1338 13.8687C10.3791 14.1139 10.6702 14.3085 10.9907 14.4412C11.3111 14.5739 11.6546 14.6423 12.0014 14.6423C12.7019 14.6421 13.3736 14.3637 13.8689 13.8682C14.3641 13.3728 14.6422 12.701 14.642 12.0005C14.6419 11.3 14.3634 10.6282 13.868 10.133C13.3726 9.63782 12.7007 9.3597 12.0002 9.35986H12.0014ZM3.60142 9.35986C3.25457 9.35986 2.91112 9.42818 2.59068 9.56091C2.27023 9.69365 1.97907 9.88819 1.73381 10.1335C1.48855 10.3787 1.294 10.6699 1.16127 10.9903C1.02854 11.3108 0.96022 11.6542 0.96022 12.0011C0.96022 12.3479 1.02854 12.6914 1.16127 13.0118C1.294 13.3323 1.48855 13.6234 1.73381 13.8687C1.97907 14.1139 2.27023 14.3085 2.59068 14.4412C2.91112 14.5739 3.25457 14.6423 3.60142 14.6423C4.30191 14.6421 4.97365 14.3637 5.46885 13.8682C5.96406 13.3728 6.24218 12.701 6.24202 12.0005C6.24186 11.3 5.96344 10.6282 5.46801 10.133C4.97257 9.63782 4.30071 9.3597 3.60022 9.35986H3.60142ZM20.4014 9.35986C20.0546 9.35986 19.7111 9.42818 19.3907 9.56091C19.0702 9.69365 18.7791 9.88819 18.5338 10.1335C18.2886 10.3787 18.094 10.6699 17.9613 10.9903C17.8285 11.3108 17.7602 11.6542 17.7602 12.0011C17.7602 12.3479 17.8285 12.6914 17.9613 13.0118C18.094 13.3323 18.2886 13.6234 18.5338 13.8687C18.7791 14.1139 19.0702 14.3085 19.3907 14.4412C19.7111 14.5739 20.0546 14.6423 20.4014 14.6423C21.1019 14.6421 21.7736 14.3637 22.2689 13.8682C22.7641 13.3728 23.0422 12.701 23.042 12.0005C23.0419 11.3 22.7634 10.6282 22.268 10.133C21.7726 9.63782 21.1007 9.3597 20.4002 9.35986H20.4014Z" fill="#A098AE"/>
</svg>
