<svg width="32" height="32" viewBox="0 0 32 32" fill="none" xmlns="http://www.w3.org/2000/svg">
<path d="M24.0001 9.5C24.0001 5.09 20.4101 1.5 16.0001 1.5C11.5901 1.5 8.0001 5.09 8.0001 9.5C8.0001 13.91 11.5901 17.5 16.0001 17.5C20.4101 17.5 24.0001 13.91 24.0001 9.5ZM11.0001 9.5C11.0001 6.74 13.2401 4.5 16.0001 4.5C18.7601 4.5 21.0001 6.74 21.0001 9.5C21.0001 12.26 18.7601 14.5 16.0001 14.5C13.2401 14.5 11.0001 12.26 11.0001 9.5ZM18.4001 19.5H13.6001C8.3601 19.5 4.1001 23.76 4.1001 29C4.1001 29.83 4.7701 30.5 5.6001 30.5H26.4001C27.2301 30.5 27.9001 29.83 27.9001 29C27.9001 23.76 23.6401 19.5 18.4001 19.5ZM7.2701 27.5C7.9501 24.64 10.5301 22.5 13.6001 22.5H18.4001C21.4701 22.5 24.0501 24.64 24.7301 27.5H7.2701Z" fill="#2E2E2E"/>
</svg>
