<svg width="434" height="160" viewBox="0 0 434 160" fill="none" xmlns="http://www.w3.org/2000/svg">
<rect width="39" height="160" rx="8" transform="matrix(-1 0 0 1 434 0)" fill="#F8B602"/>
<rect width="39.4545" height="84" rx="8" transform="matrix(-1 0 0 1 368.242 76)" fill="#EB5757"/>
<rect width="39.4545" height="70" rx="8" transform="matrix(-1 0 0 1 302.485 90)" fill="#F8B602"/>
<rect width="39.4545" height="91" rx="8" transform="matrix(-1 0 0 1 236.727 69)" fill="#EB5757"/>
<rect width="39.4545" height="57" rx="8" transform="matrix(-1 0 0 1 170.97 103)" fill="#F8B602"/>
<rect width="39.4545" height="126" rx="8" transform="matrix(-1 0 0 1 105.212 34)" fill="#EB5757"/>
<rect width="39.4545" height="140" rx="8" transform="matrix(-1 0 0 1 39.4545 20)" fill="#F8B602"/>
</svg>
