<svg width="40" height="40" viewBox="0 0 40 40" fill="none" xmlns="http://www.w3.org/2000/svg">
<path d="M30.8332 10H10.8332C9.7281 10 8.66829 10.439 7.88689 11.2204C7.10549 12.0018 6.6665 13.0616 6.6665 14.1667V27.5C6.6665 28.6051 7.10549 29.6649 7.88689 30.4463C8.66829 31.2277 9.7281 31.6667 10.8332 31.6667H13.3332V33.3883C13.3332 33.6146 13.3946 33.8366 13.5109 34.0306C13.6271 34.2247 13.7939 34.3836 13.9934 34.4903C14.1928 34.5971 14.4175 34.6477 14.6435 34.6368C14.8695 34.6259 15.0883 34.5538 15.2765 34.4283L19.4182 31.6667H30.8332C31.9382 31.6667 32.998 31.2277 33.7794 30.4463C34.5608 29.6649 34.9998 28.6051 34.9998 27.5V14.1667C34.9998 13.0616 34.5608 12.0018 33.7794 11.2204C32.998 10.439 31.9382 10 30.8332 10ZM21.8332 20.5467L20.3115 22.2717L20.5265 24.565C20.5466 24.7804 20.5105 24.9972 20.4219 25.1945C20.3332 25.3918 20.1949 25.5627 20.0205 25.6906C19.8461 25.8185 19.6415 25.8991 19.4267 25.9244C19.2119 25.9497 18.9942 25.9189 18.7948 25.835L16.6665 24.915L14.5532 25.8333C14.3542 25.919 14.1363 25.9515 13.921 25.9278C13.7057 25.904 13.5002 25.8247 13.3246 25.6978C13.1491 25.5708 13.0095 25.4004 12.9196 25.2033C12.8297 25.0062 12.7924 24.7891 12.8115 24.5733L13.0282 22.275L11.4998 20.5467C11.3567 20.3834 11.2584 20.1858 11.2147 19.9731C11.171 19.7604 11.1834 19.54 11.2506 19.3336C11.3179 19.1271 11.4377 18.9417 11.5983 18.7956C11.7588 18.6494 11.9547 18.5476 12.1665 18.5L14.4148 18L15.5815 16.0167C15.7017 15.8427 15.8623 15.7005 16.0495 15.6023C16.2368 15.5041 16.4451 15.4528 16.6565 15.4528C16.8679 15.4528 17.0762 15.5041 17.2635 15.6023C17.4507 15.7005 17.6113 15.8427 17.7315 16.0167L18.8982 18.0033L21.1448 18.5033C21.3576 18.5487 21.5549 18.6487 21.7172 18.7935C21.8796 18.9383 22.0015 19.1228 22.071 19.3289C22.1404 19.5351 22.155 19.7558 22.1133 19.9693C22.0716 20.1828 21.9751 20.3818 21.8332 20.5467ZM27.4998 25H24.1665C23.9455 25 23.7335 24.9122 23.5772 24.7559C23.421 24.5996 23.3332 24.3877 23.3332 24.1667C23.3332 23.9457 23.421 23.7337 23.5772 23.5774C23.7335 23.4211 23.9455 23.3333 24.1665 23.3333H27.4998C27.7208 23.3333 27.9328 23.4211 28.0891 23.5774C28.2454 23.7337 28.3332 23.9457 28.3332 24.1667C28.3332 24.3877 28.2454 24.5996 28.0891 24.7559C27.9328 24.9122 27.7208 25 27.4998 25ZM29.9998 21.6667H24.1665C23.9455 21.6667 23.7335 21.5789 23.5772 21.4226C23.421 21.2663 23.3332 21.0543 23.3332 20.8333C23.3332 20.6123 23.421 20.4004 23.5772 20.2441C23.7335 20.0878 23.9455 20 24.1665 20H29.9998C30.2208 20 30.4328 20.0878 30.5891 20.2441C30.7454 20.4004 30.8332 20.6123 30.8332 20.8333C30.8332 21.0543 30.7454 21.2663 30.5891 21.4226C30.4328 21.5789 30.2208 21.6667 29.9998 21.6667ZM29.9998 18.3333H24.1665C23.9455 18.3333 23.7335 18.2455 23.5772 18.0893C23.421 17.933 23.3332 17.721 23.3332 17.5C23.3332 17.279 23.421 17.067 23.5772 16.9107C23.7335 16.7545 23.9455 16.6667 24.1665 16.6667H29.9998C30.2208 16.6667 30.4328 16.7545 30.5891 16.9107C30.7454 17.067 30.8332 17.279 30.8332 17.5C30.8332 17.721 30.7454 17.933 30.5891 18.0893C30.4328 18.2455 30.2208 18.3333 29.9998 18.3333Z" fill="#A098AE"/>
</svg>
