<svg width="48" height="48" viewBox="0 0 48 48" fill="none" xmlns="http://www.w3.org/2000/svg">
<rect x="1" y="1" width="46" height="46" rx="15" stroke="#DBDBDB" stroke-width="2"/>
<path d="M24 33C19.05 33 15 28.95 15 24C15 19.05 19.05 15 24 15C28.95 15 33 19.05 33 24C33 28.95 28.95 33 24 33ZM24 16.875C20.1 16.875 16.875 20.1 16.875 24C16.875 27.9 20.1 31.125 24 31.125C27.9 31.125 31.125 27.9 31.125 24C31.125 20.1 27.9 16.875 24 16.875Z" fill="#F8B602"/>
<path d="M22.5749 27.5251C22.3499 27.5251 22.0499 27.4501 21.8999 27.2251L20.0249 25.3501C19.6499 24.9751 19.6499 24.3751 20.0249 24.0001C20.3999 23.6251 20.9999 23.6251 21.3749 24.0001L22.5749 25.2001L26.6249 21.1501C26.9999 20.7751 27.5999 20.7751 27.9749 21.1501C28.3499 21.5251 28.3499 22.1251 27.9749 22.5001L23.2499 27.2251C23.0249 27.4501 22.7999 27.5251 22.5749 27.5251Z" fill="#F8B602"/>
</svg>
