<svg width="40" height="40" viewBox="0 0 40 40" fill="none" xmlns="http://www.w3.org/2000/svg">
<path d="M6.66675 29.1667C6.66675 29.8298 6.93014 30.4657 7.39898 30.9345C7.86782 31.4034 8.50371 31.6667 9.16675 31.6667H10.0851C10.2763 32.6087 10.7874 33.4555 11.5315 34.0637C12.2757 34.672 13.2073 35.0043 14.1684 35.0043C15.1295 35.0043 16.0611 34.672 16.8053 34.0637C17.5495 33.4555 18.0605 32.6087 18.2517 31.6667H23.5001C24.631 31.6588 25.735 31.3211 26.6767 30.6951C26.6767 30.7417 26.6634 30.7867 26.6634 30.8334C26.6628 31.73 26.9515 32.6029 27.4865 33.3223C28.0214 34.0418 28.7742 34.5696 29.633 34.8271C30.4918 35.0847 31.4108 35.0584 32.2534 34.7521C33.0961 34.4459 33.8175 33.8759 34.3104 33.127C34.8034 32.3781 35.0416 31.4902 34.9898 30.5951C34.9379 29.7 34.5987 28.8455 34.0225 28.1586C33.4464 27.4716 32.664 26.9888 31.7916 26.7819C30.9192 26.575 30.0034 26.655 29.1801 27.0101C29.3207 26.387 29.3567 25.745 29.2867 25.1101L28.6417 19.9434C28.8142 19.9811 28.9902 20.0001 29.1667 20.0001H30.0001C30.4421 20.0001 30.866 19.8245 31.1786 19.5119C31.4912 19.1994 31.6667 18.7754 31.6667 18.3334V16.6667C31.6667 16.2247 31.4912 15.8008 31.1786 15.4882C30.866 15.1757 30.4421 15.0001 30.0001 15.0001H29.1667C28.7806 15.0019 28.4001 15.0931 28.0552 15.2666C27.7102 15.4401 27.4101 15.6912 27.1784 16.0001L26.9101 15.7317C26.4403 15.2651 25.8056 15.0022 25.1434 15.0001H24.1667C23.9457 15.0001 23.7338 15.0879 23.5775 15.2442C23.4212 15.4004 23.3334 15.6124 23.3334 15.8334C23.3334 16.0544 23.4212 16.2664 23.5775 16.4227C23.7338 16.579 23.9457 16.6667 24.1667 16.6667H25.1434C25.364 16.6668 25.5756 16.7543 25.7317 16.9101L26.7051 17.8834C26.7301 18.0384 27.3284 22.8467 27.6367 25.3167C27.71 25.9032 27.6577 26.4985 27.4833 27.0631C27.3089 27.6278 27.0164 28.1489 26.6251 28.5918C26.2339 29.0347 25.7529 29.3894 25.2141 29.6322C24.6753 29.875 24.0911 30.0004 23.5001 30.0001H23.1834L21.6667 22.4184V20.8334C21.6667 20.1704 21.4034 19.5345 20.9345 19.0656C20.4657 18.5968 19.8298 18.3334 19.1667 18.3334H15.8334V14.1667C15.8334 13.5037 15.57 12.8678 15.1012 12.399C14.6323 11.9301 13.9965 11.6667 13.3334 11.6667H9.16675C8.50371 11.6667 7.86782 11.9301 7.39898 12.399C6.93014 12.8678 6.66675 13.5037 6.66675 14.1667V20.8334C6.66675 21.4965 6.93014 22.1323 7.39898 22.6012C7.86782 23.07 8.50371 23.3334 9.16675 23.3334H9.51008C8.62741 24.0288 7.91324 24.9146 7.42089 25.9247C6.92855 26.9348 6.67075 28.0431 6.66675 29.1667ZM30.8334 28.3334C31.3279 28.3334 31.8112 28.48 32.2223 28.7547C32.6335 29.0294 32.9539 29.4199 33.1431 29.8767C33.3323 30.3335 33.3818 30.8362 33.2854 31.3211C33.1889 31.8061 32.9508 32.2516 32.6012 32.6012C32.2515 32.9508 31.8061 33.1889 31.3211 33.2854C30.8362 33.3818 30.3335 33.3323 29.8767 33.1431C29.4199 32.9539 29.0294 32.6335 28.7547 32.2223C28.48 31.8112 28.3334 31.3279 28.3334 30.8334C28.3334 30.1704 28.5968 29.5345 29.0656 29.0656C29.5345 28.5968 30.1704 28.3334 30.8334 28.3334ZM15.8334 20.0001H19.1667C19.3878 20.0001 19.5997 20.0879 19.756 20.2442C19.9123 20.4004 20.0001 20.6124 20.0001 20.8334V21.6667H15.8334V20.0001ZM16.5134 31.6667C16.3437 32.1539 16.0266 32.5761 15.6061 32.8749C15.1856 33.1737 14.6826 33.3342 14.1667 33.3342C13.6509 33.3342 13.1479 33.1737 12.7274 32.8749C12.3069 32.5761 11.9898 32.1539 11.8201 31.6667H16.5134ZM8.33341 14.1667C8.33341 13.9457 8.42121 13.7338 8.57749 13.5775C8.73377 13.4212 8.94573 13.3334 9.16675 13.3334H13.3334C13.5544 13.3334 13.7664 13.4212 13.9227 13.5775C14.079 13.7338 14.1667 13.9457 14.1667 14.1667V15.0001H8.33341V14.1667ZM8.33341 16.6667H14.1667V18.3084H8.33341V16.6667ZM9.16675 21.6667C8.94573 21.6667 8.73377 21.579 8.57749 21.4227C8.42121 21.2664 8.33341 21.0544 8.33341 20.8334V19.9751H14.1667V21.6667H9.16675Z" fill="#A098AE"/>
</svg>
