<svg width="901" height="285" viewBox="0 0 901 285" fill="none" xmlns="http://www.w3.org/2000/svg">
<path d="M3 214.645C58.4646 214.645 98.5827 123.462 165.556 123.462C225.369 123.462 268.164 252.94 329.52 252.94C399.177 252.94 430.174 93.9324 488.293 93.9324C546.412 93.9324 590.707 252.94 650.057 252.94C725.403 252.94 749.806 3.00003 813.759 3C871.647 2.99997 842.334 149.992 897.547 149.992" stroke="#F8B602" stroke-width="6" stroke-linecap="round"/>
<path d="M164.852 123.462C97.7692 123.462 57.5859 214.645 2.03125 214.645V285H898.031V149.992C842.729 149.992 872.089 2.99997 814.107 3C750.05 3.00003 725.607 252.94 650.14 252.94C590.693 252.94 546.326 93.9324 488.112 93.9324C429.899 93.9324 398.852 252.94 329.081 252.94C267.626 252.94 224.762 123.462 164.852 123.462Z" fill="#F8B602" fill-opacity="0.5"/>
<circle cx="491.45" cy="93.731" r="12" fill="white" stroke="#F8B602" stroke-width="8"/>
</svg>
