<svg width="48" height="48" viewBox="0 0 48 48" fill="none" xmlns="http://www.w3.org/2000/svg">
<rect width="48" height="48" rx="16" fill="#F8B602"/>
<path d="M36.0346 28.0706L34.9999 28.5879L33.9653 28.0706C33.8725 28.0241 33.7703 27.9999 33.6666 27.9999C33.5629 27.9999 33.4606 28.0241 33.3679 28.0706L32.3333 28.5879L31.6666 28.2546V13.9999C31.6666 13.8862 31.6375 13.7744 31.5821 13.6751C31.5267 13.5759 31.4469 13.4924 31.3501 13.4327C31.2534 13.3729 31.143 13.3389 31.0294 13.3339C30.9159 13.3289 30.8029 13.353 30.7013 13.4039L29.6666 13.9212L28.6319 13.4039C28.5392 13.3574 28.4369 13.3333 28.3333 13.3333C28.2296 13.3333 28.1273 13.3574 28.0346 13.4039L26.9999 13.9212L25.9653 13.4039C25.8725 13.3574 25.7703 13.3333 25.6666 13.3333C25.5629 13.3333 25.4606 13.3574 25.3679 13.4039L24.3333 13.9212L23.2986 13.4039C23.2059 13.3574 23.1036 13.3333 22.9999 13.3333C22.8962 13.3333 22.794 13.3574 22.7013 13.4039L21.6666 13.9212L20.6319 13.4039C20.5392 13.3574 20.4369 13.3333 20.3333 13.3333C20.2296 13.3333 20.1273 13.3574 20.0346 13.4039L18.9999 13.9212L17.9653 13.4039C17.8725 13.3574 17.7703 13.3333 17.6666 13.3333C17.5629 13.3333 17.4606 13.3574 17.3679 13.4039L16.3333 13.9212L15.2986 13.4039C15.1969 13.353 15.084 13.3289 14.9704 13.3339C14.8568 13.3389 14.7464 13.3729 14.6497 13.4327C14.553 13.4924 14.4731 13.5759 14.4177 13.6751C14.3623 13.7744 14.3333 13.8862 14.3333 13.9999V32.6666C14.3333 33.5506 14.6844 34.3985 15.3096 35.0236C15.9347 35.6487 16.7825 35.9999 17.6666 35.9999H33.6666C34.5506 35.9999 35.3985 35.6487 36.0236 35.0236C36.6487 34.3985 36.9999 33.5506 36.9999 32.6666V28.6666C36.9999 28.5529 36.9708 28.4411 36.9155 28.3418C36.8601 28.2425 36.7802 28.159 36.6835 28.0993C36.5867 28.0396 36.4763 28.0056 36.3628 28.0006C36.2492 27.9955 36.1362 28.0196 36.0346 28.0706ZM22.9999 21.3332C22.9977 21.9227 22.8002 22.4948 22.4384 22.9602C22.0765 23.4255 21.5707 23.7579 20.9999 23.9052V29.9999C20.9999 30.1767 20.9297 30.3463 20.8047 30.4713C20.6796 30.5963 20.5101 30.6666 20.3333 30.6666C20.1564 30.6666 19.9869 30.5963 19.8618 30.4713C19.7368 30.3463 19.6666 30.1767 19.6666 29.9999V23.9052C19.0958 23.7579 18.59 23.4255 18.2281 22.9602C17.8663 22.4948 17.6688 21.9227 17.6666 21.3332V19.3332C17.6666 19.1564 17.7368 18.9868 17.8618 18.8618C17.9869 18.7368 18.1564 18.6666 18.3333 18.6666C18.5101 18.6666 18.6796 18.7368 18.8047 18.8618C18.9297 18.9868 18.9999 19.1564 18.9999 19.3332V21.3332C19.0026 21.5632 19.0655 21.7884 19.1825 21.9863C19.2995 22.1843 19.4664 22.348 19.6666 22.4612V19.3332C19.6666 19.1564 19.7368 18.9868 19.8618 18.8618C19.9869 18.7368 20.1564 18.6666 20.3333 18.6666C20.5101 18.6666 20.6796 18.7368 20.8047 18.8618C20.9297 18.9868 20.9999 19.1564 20.9999 19.3332V22.4612C21.2001 22.348 21.367 22.1843 21.484 21.9863C21.601 21.7884 21.6639 21.5632 21.6666 21.3332V19.3332C21.6666 19.1564 21.7368 18.9868 21.8618 18.8618C21.9869 18.7368 22.1564 18.6666 22.3333 18.6666C22.5101 18.6666 22.6796 18.7368 22.8047 18.8618C22.9297 18.9868 22.9999 19.1564 22.9999 19.3332V21.3332ZM27.6066 26.7026L25.6666 27.1879V29.9999C25.6666 30.1767 25.5963 30.3463 25.4713 30.4713C25.3463 30.5963 25.1767 30.6666 24.9999 30.6666C24.8231 30.6666 24.6535 30.5963 24.5285 30.4713C24.4035 30.3463 24.3333 30.1767 24.3333 29.9999V19.3332C24.333 19.2012 24.372 19.0721 24.4452 18.9622C24.5185 18.8524 24.6227 18.7667 24.7446 18.7162C24.8666 18.6656 25.0008 18.6524 25.1303 18.6782C25.2598 18.7041 25.3787 18.7678 25.4719 18.8612C26.382 19.7665 27.1035 20.8433 27.5947 22.0293C28.0858 23.2153 28.3369 24.4869 28.3333 25.7706C28.3337 25.9848 28.2623 26.1929 28.1306 26.3619C27.9989 26.5308 27.8144 26.6507 27.6066 26.7026ZM35.6666 32.6666C35.6666 33.197 35.4559 33.7057 35.0808 34.0808C34.7057 34.4558 34.197 34.6666 33.6666 34.6666C33.1362 34.6666 32.6274 34.4558 32.2524 34.0808C31.8773 33.7057 31.6666 33.197 31.6666 32.6666V29.7452L32.0346 29.9292C32.1273 29.9757 32.2296 29.9999 32.3333 29.9999C32.4369 29.9999 32.5392 29.9757 32.6319 29.9292L33.6666 29.4119L34.7013 29.9292C34.794 29.9757 34.8962 29.9999 34.9999 29.9999C35.1036 29.9999 35.2059 29.9757 35.2986 29.9292L35.6666 29.7452V32.6666Z" fill="white"/>
</svg>
