<svg width="40" height="40" viewBox="0 0 40 40" fill="none" xmlns="http://www.w3.org/2000/svg">
<path d="M24.6436 26.3562L24.5686 23.7C25.1311 23.5937 25.9186 22.6437 26.2373 22.1375L25.1623 19.725C24.5686 19.6313 23.3373 19.575 22.8811 19.925L20.9561 18.0938C21.2748 17.625 21.1623 16.4 21.0248 15.8188L18.5561 14.875C18.0748 15.2187 17.1686 16.0563 17.0936 16.625L14.4373 16.6937C14.3311 16.1312 13.3748 15.3562 12.8748 15.0312L10.4623 16.1062C10.3686 16.7 10.3123 17.9313 10.6623 18.3875L8.83731 20.3125C8.36231 19.9937 7.1373 20.1125 6.55605 20.2437L5.6123 22.7063C5.95605 23.2 6.79356 24.0938 7.35606 24.175L7.43106 26.8312C6.87481 26.9438 6.09355 27.8875 5.76855 28.3937L6.8498 30.8062C7.4373 30.9 8.66856 30.95 9.12481 30.6125L11.0498 32.4312C10.7311 32.9 10.8498 34.1313 10.9811 34.7125L13.4436 35.6562C13.9311 35.3062 14.8373 34.4688 14.9123 33.9062L17.5686 33.8312C17.6811 34.4 18.6248 35.175 19.1373 35.4937L21.5436 34.425C21.6436 33.825 21.6873 32.6 21.3498 32.1437L23.1686 30.2125C23.6436 30.5375 24.8686 30.4187 25.4561 30.2875L26.3936 27.8187C26.0436 27.3375 25.2123 26.4375 24.6436 26.3562ZM18.8186 26.3375C18.6059 26.895 18.2328 27.3769 17.7463 27.7224C17.2598 28.0678 16.6817 28.2612 16.0853 28.2781C15.4889 28.295 14.9008 28.1347 14.3955 27.8174C13.8902 27.5001 13.4903 27.0401 13.2464 26.4955C13.0026 25.951 12.9257 25.3463 13.0254 24.7581C13.1252 24.1698 13.3972 23.6243 13.807 23.1906C14.2167 22.7569 14.7459 22.4545 15.3276 22.3215C15.9093 22.1886 16.5173 22.2311 17.0748 22.4437C17.4453 22.5844 17.7844 22.7969 18.0727 23.0689C18.361 23.3408 18.5927 23.667 18.7547 24.0288C18.9167 24.3905 19.0057 24.7806 19.0167 25.1768C19.0276 25.5729 18.9603 25.9674 18.8186 26.3375ZM34.3748 9.1625C34.0811 8.91875 33.3873 8.4875 33.0436 8.6L31.9873 6.8C32.2498 6.55625 32.2123 5.7375 32.1436 5.36875L30.3373 4.34375C29.9811 4.475 29.2623 4.8625 29.1873 5.2125L27.0998 5.23125C27.0186 4.88125 26.2936 4.50625 25.9373 4.375L24.1498 5.43125C24.0873 5.8 24.0623 6.61875 24.3248 6.8625L23.2998 8.675C22.9498 8.56875 22.2623 9.0125 21.9748 9.25625L21.9936 11.3312C22.2873 11.575 22.9811 12 23.3248 11.8938L24.3811 13.6938C24.1186 13.9375 24.1561 14.7563 24.2248 15.125L26.0311 16.15C26.3811 16.0187 27.0998 15.6313 27.1811 15.2812L29.2623 15.2625C29.3498 15.6125 30.0748 15.9875 30.4311 16.1187L32.2186 15.0625C32.2811 14.6875 32.3061 13.875 32.0373 13.6312L33.0686 11.8187C33.4123 11.9187 34.0998 11.4812 34.3873 11.2375L34.3748 9.1625ZM28.1811 11.8813C27.8581 11.8806 27.5425 11.7843 27.2742 11.6045C27.0059 11.4247 26.7969 11.1694 26.6736 10.8709C26.5503 10.5724 26.5182 10.244 26.5814 9.92726C26.6445 9.61051 26.8001 9.31958 27.0285 9.0912C27.2569 8.86282 27.5478 8.70722 27.8646 8.64406C28.1813 8.5809 28.5097 8.613 28.8082 8.73631C29.1067 8.85963 29.362 9.06863 29.5418 9.33692C29.7216 9.60521 29.8179 9.92077 29.8186 10.2437C29.819 10.4589 29.777 10.6721 29.6949 10.871C29.6128 11.0699 29.4922 11.2506 29.34 11.4027C29.1879 11.5549 29.0072 11.6755 28.8083 11.7576C28.6094 11.8397 28.3962 11.8817 28.1811 11.8813Z" fill="#A098AE"/>
</svg>
