<svg width="56" height="56" viewBox="0 0 56 56" fill="none" xmlns="http://www.w3.org/2000/svg">
<rect width="56" height="56" rx="16" fill="white"/>
<path d="M16 31V37C16 38.3261 16.5268 39.5979 17.4645 40.5355C18.4021 41.4732 19.6739 42 21 42H35C36.3261 42 37.5979 41.4732 38.5355 40.5355C39.4732 39.5979 40 38.3261 40 37V31C40 29.6739 39.4732 28.4021 38.5355 27.4645C37.5979 26.5268 36.3261 26 35 26H21C19.6739 26 18.4021 26.5268 17.4645 27.4645C16.5268 28.4021 16 29.6739 16 31V31ZM38 31V37C38 37.7956 37.6839 38.5587 37.1213 39.1213C36.5587 39.6839 35.7956 40 35 40H21C20.2044 40 19.4413 39.6839 18.8787 39.1213C18.3161 38.5587 18 37.7956 18 37V31C18 30.2044 18.3161 29.4413 18.8787 28.8787C19.4413 28.3161 20.2044 28 21 28H35C35.7956 28 36.5587 28.3161 37.1213 28.8787C37.6839 29.4413 38 30.2044 38 31Z" fill="#2E2E2E"/>
<path d="M28.0001 37.9999C28.7912 37.9999 29.5646 37.7653 30.2224 37.3258C30.8802 36.8863 31.3929 36.2616 31.6956 35.5307C31.9984 34.7998 32.0776 33.9955 31.9232 33.2196C31.7689 32.4437 31.3879 31.7309 30.8285 31.1715C30.2691 30.6121 29.5564 30.2311 28.7804 30.0768C28.0045 29.9225 27.2003 30.0017 26.4694 30.3044C25.7384 30.6072 25.1137 31.1199 24.6742 31.7777C24.2347 32.4355 24.0001 33.2088 24.0001 33.9999C24.0001 35.0608 24.4215 36.0782 25.1717 36.8284C25.9218 37.5785 26.9392 37.9999 28.0001 37.9999ZM28.0001 31.9999C28.3956 31.9999 28.7823 32.1172 29.1112 32.337C29.4401 32.5568 29.6965 32.8691 29.8478 33.2346C29.9992 33.6 30.0388 34.0022 29.9617 34.3901C29.8845 34.7781 29.694 35.1344 29.4143 35.4142C29.1346 35.6939 28.7782 35.8843 28.3903 35.9615C28.0023 36.0387 27.6002 35.9991 27.2347 35.8477C26.8693 35.6963 26.5569 35.44 26.3371 35.1111C26.1174 34.7822 26.0001 34.3955 26.0001 33.9999C26.0001 33.4695 26.2108 32.9608 26.5859 32.5857C26.9609 32.2107 27.4697 31.9999 28.0001 31.9999ZM28.7101 14.2899C28.6171 14.1962 28.5065 14.1218 28.3847 14.071C28.2628 14.0203 28.1321 13.9941 28.0001 13.9941C27.8681 13.9941 27.7374 14.0203 27.6155 14.071C27.4937 14.1218 27.383 14.1962 27.2901 14.2899L23.0501 18.5399C22.8565 18.7269 22.7451 18.9831 22.7404 19.2523C22.7357 19.5214 22.8381 19.7813 23.0251 19.9749C23.2121 20.1685 23.4683 20.2799 23.7374 20.2846C24.0065 20.2893 24.2665 20.1869 24.4601 19.9999L27.0001 17.4099V22.9999C27.0001 23.2652 27.1054 23.5195 27.293 23.707C27.4805 23.8946 27.7349 23.9999 28.0001 23.9999C28.2653 23.9999 28.5197 23.8946 28.7072 23.707C28.8947 23.5195 29.0001 23.2652 29.0001 22.9999V17.4099L31.5401 19.9999C31.7263 20.1847 31.9777 20.2888 32.2401 20.2899C32.38 20.2976 32.52 20.2757 32.6509 20.2257C32.7818 20.1757 32.9008 20.0988 33.0001 19.9999C33.1863 19.8126 33.2909 19.5591 33.2909 19.2949C33.2909 19.0308 33.1863 18.7773 33.0001 18.5899L28.7101 14.2899Z" fill="#2E2E2E"/>
</svg>
