<svg width="32" height="32" viewBox="0 0 32 32" fill="none" xmlns="http://www.w3.org/2000/svg">
<path d="M28.748 8.22941C28.5675 8.10735 28.3599 8.03137 28.1433 8.00813C27.9266 7.98489 27.7076 8.01508 27.5053 8.09608L22.6053 10.0561C22.4599 9.11469 21.9833 8.2561 21.2613 7.63477C20.5393 7.01345 19.6192 6.67019 18.6667 6.66675H6.66667C5.60581 6.66675 4.58839 7.08818 3.83824 7.83832C3.0881 8.58847 2.66667 9.60588 2.66667 10.6667V21.3334C2.66667 22.3943 3.0881 23.4117 3.83824 24.1618C4.58839 24.912 5.60581 25.3334 6.66667 25.3334H18.6667C19.619 25.33 20.5389 24.987 21.2609 24.3659C21.9829 23.7448 22.4596 22.8866 22.6053 21.9454L27.5053 23.9054C27.7077 23.9863 27.9267 24.0163 28.1434 23.9928C28.36 23.9694 28.5676 23.8933 28.7479 23.771C28.9283 23.6488 29.076 23.4842 29.178 23.2917C29.2801 23.0992 29.3334 22.8846 29.3333 22.6667V9.33341C29.3334 9.11558 29.28 8.90106 29.178 8.7086C29.076 8.51614 28.9283 8.35162 28.748 8.22941ZM18.6667 22.6667H6.66667C6.31305 22.6667 5.97391 22.5263 5.72386 22.2762C5.47381 22.0262 5.33334 21.687 5.33334 21.3334V10.6667C5.33334 10.3131 5.47381 9.97399 5.72386 9.72394C5.97391 9.47389 6.31305 9.33341 6.66667 9.33341H18.6667C19.0203 9.33341 19.3594 9.47389 19.6095 9.72394C19.8595 9.97399 20 10.3131 20 10.6667V21.3334C20 21.687 19.8595 22.0262 19.6095 22.2762C19.3594 22.5263 19.0203 22.6667 18.6667 22.6667ZM26.6667 20.6974L22.6667 19.0974V12.9027L26.6667 11.3027V20.6974Z" fill="#2E2E2E"/>
</svg>
