<svg width="24" height="24" viewBox="0 0 24 24" fill="none" xmlns="http://www.w3.org/2000/svg">
<path d="M12.0016 9.35995C11.6548 9.35995 11.3113 9.42827 10.9909 9.561C10.6705 9.69374 10.3793 9.88829 10.134 10.1335C9.88878 10.3788 9.69423 10.67 9.5615 10.9904C9.42877 11.3109 9.36045 11.6543 9.36045 12.0012C9.36045 12.348 9.42877 12.6915 9.5615 13.0119C9.69423 13.3323 9.88878 13.6235 10.134 13.8688C10.3793 14.114 10.6705 14.3086 10.9909 14.4413C11.3113 14.574 11.6548 14.6424 12.0016 14.6424C12.7021 14.6422 13.3739 14.3638 13.8691 13.8683C14.3643 13.3729 14.6424 12.701 14.6422 12.0006C14.6421 11.3001 14.3637 10.6283 13.8682 10.1331C13.3728 9.63791 12.7009 9.3598 12.0004 9.35995H12.0016ZM3.60165 9.35995C3.2548 9.35995 2.91135 9.42827 2.59091 9.561C2.27046 9.69374 1.9793 9.88829 1.73404 10.1335C1.48878 10.3788 1.29423 10.67 1.1615 10.9904C1.02877 11.3109 0.960449 11.6543 0.960449 12.0012C0.960449 12.348 1.02877 12.6915 1.1615 13.0119C1.29423 13.3323 1.48878 13.6235 1.73404 13.8688C1.9793 14.114 2.27046 14.3086 2.59091 14.4413C2.91135 14.574 3.2548 14.6424 3.60165 14.6424C4.30214 14.6422 4.97388 14.3638 5.46908 13.8683C5.96429 13.3729 6.24241 12.701 6.24225 12.0006C6.24209 11.3001 5.96367 10.6283 5.46824 10.1331C4.9728 9.63791 4.30094 9.3598 3.60045 9.35995H3.60165ZM20.4016 9.35995C20.0548 9.35995 19.7114 9.42827 19.3909 9.561C19.0705 9.69374 18.7793 9.88829 18.534 10.1335C18.2888 10.3788 18.0942 10.67 17.9615 10.9904C17.8288 11.3109 17.7604 11.6543 17.7604 12.0012C17.7604 12.348 17.8288 12.6915 17.9615 13.0119C18.0942 13.3323 18.2888 13.6235 18.534 13.8688C18.7793 14.114 19.0705 14.3086 19.3909 14.4413C19.7114 14.574 20.0548 14.6424 20.4016 14.6424C21.1021 14.6422 21.7739 14.3638 22.2691 13.8683C22.7643 13.3729 23.0424 12.701 23.0422 12.0006C23.0421 11.3001 22.7637 10.6283 22.2682 10.1331C21.7728 9.63791 21.1009 9.3598 20.4004 9.35995H20.4016Z" fill="#A098AE"/>
</svg>
