<svg width="32" height="32" viewBox="0 0 32 32" fill="none" xmlns="http://www.w3.org/2000/svg">
<path d="M20.0001 15.9999C20.0011 16.1754 19.9674 16.3494 19.9011 16.5118C19.8347 16.6743 19.737 16.822 19.6134 16.9466L14.2801 22.2799C14.029 22.531 13.6885 22.6721 13.3334 22.6721C12.9783 22.6721 12.6378 22.531 12.3867 22.2799C12.1357 22.0289 11.9946 21.6883 11.9946 21.3333C11.9946 20.9782 12.1357 20.6377 12.3867 20.3866L16.7867 15.9999L12.4001 11.6133C12.1816 11.3582 12.0675 11.0301 12.0805 10.6945C12.0934 10.359 12.2325 10.0406 12.47 9.80319C12.7074 9.56573 13.0258 9.42662 13.3613 9.41366C13.6969 9.40069 14.025 9.51483 14.2801 9.73327L19.6134 15.0666C19.8597 15.315 19.9986 15.6501 20.0001 15.9999Z" fill="#A098AE"/>
</svg>
