<svg width="48" height="48" viewBox="0 0 48 48" fill="none" xmlns="http://www.w3.org/2000/svg">
<rect width="48" height="48" rx="16" fill="#F5F5F5"/>
<path d="M24.0002 28.0001C23.8248 28.0011 23.6508 27.9675 23.4884 27.9011C23.3259 27.8348 23.1782 27.737 23.0536 27.6134L17.7202 22.2801C17.4692 22.029 17.3281 21.6885 17.3281 21.3334C17.3281 20.9783 17.4692 20.6378 17.7202 20.3868C17.9713 20.1357 18.3118 19.9946 18.6669 19.9946C19.022 19.9946 19.3625 20.1357 19.6136 20.3868L24.0002 24.7868L28.3869 20.4001C28.642 20.1816 28.9701 20.0675 29.3057 20.0805C29.6412 20.0934 29.9595 20.2325 30.197 20.47C30.4345 20.7075 30.5736 21.0258 30.5865 21.3613C30.5995 21.6969 30.4853 22.025 30.2669 22.2801L24.9336 27.6134C24.6852 27.8597 24.35 27.9986 24.0002 28.0001Z" fill="#A098AE"/>
</svg>
