<svg width="32" height="32" viewBox="0 0 32 32" fill="none" xmlns="http://www.w3.org/2000/svg">
<circle cx="16" cy="16" r="16" fill="#F8B602"/>
<path d="M24.46 13.63C24.3196 12.1689 23.8032 10.7691 22.9612 9.56682C22.1191 8.36456 20.9801 7.40083 19.655 6.7695C18.3299 6.13816 16.8639 5.86072 15.3997 5.96421C13.9356 6.06769 12.5231 6.54856 11.3 7.36C10.2492 8.06265 9.36706 8.9893 8.71695 10.0734C8.06684 11.1575 7.6649 12.3721 7.54 13.63C7.41749 14.8797 7.57468 16.1409 8.00017 17.3223C8.42567 18.5036 9.1088 19.5755 10 20.46L15.3 25.77C15.393 25.8637 15.5036 25.9381 15.6254 25.9889C15.7473 26.0397 15.878 26.0658 16.01 26.0658C16.142 26.0658 16.2727 26.0397 16.3946 25.9889C16.5164 25.9381 16.627 25.8637 16.72 25.77L22 20.46C22.8912 19.5755 23.5743 18.5036 23.9998 17.3223C24.4253 16.1409 24.5825 14.8797 24.46 13.63V13.63ZM20.6 19.05L16 23.65L11.4 19.05C10.7221 18.3721 10.2028 17.5523 9.87947 16.6498C9.55614 15.7472 9.43679 14.7842 9.53 13.83C9.62382 12.8611 9.93177 11.9252 10.4316 11.0898C10.9314 10.2545 11.6106 9.54071 12.42 9C13.4809 8.29524 14.7263 7.9193 16 7.9193C17.2737 7.9193 18.5191 8.29524 19.58 9C20.387 9.53862 21.0647 10.2493 21.5644 11.0809C22.064 11.9126 22.3733 12.8446 22.47 13.81C22.5663 14.7674 22.4484 15.7343 22.125 16.6406C21.8016 17.5468 21.2807 18.3698 20.6 19.05V19.05ZM16 10C15.11 10 14.24 10.2639 13.4999 10.7584C12.7599 11.2529 12.1831 11.9557 11.8425 12.7779C11.502 13.6002 11.4128 14.505 11.5865 15.3779C11.7601 16.2508 12.1887 17.0526 12.818 17.682C13.4474 18.3113 14.2492 18.7399 15.1221 18.9135C15.995 19.0872 16.8998 18.9981 17.7221 18.6575C18.5443 18.3169 19.2471 17.7401 19.7416 17.0001C20.2361 16.26 20.5 15.39 20.5 14.5C20.4974 13.3073 20.0224 12.1643 19.1791 11.3209C18.3357 10.4776 17.1927 10.0026 16 10V10ZM16 17C15.5055 17 15.0222 16.8534 14.6111 16.5787C14.2 16.304 13.8795 15.9135 13.6903 15.4567C13.5011 14.9999 13.4516 14.4972 13.548 14.0123C13.6445 13.5273 13.8826 13.0819 14.2322 12.7322C14.5819 12.3826 15.0273 12.1445 15.5123 12.048C15.9972 11.9516 16.4999 12.0011 16.9567 12.1903C17.4135 12.3795 17.804 12.7 18.0787 13.1111C18.3534 13.5222 18.5 14.0056 18.5 14.5C18.5 15.163 18.2366 15.7989 17.7678 16.2678C17.2989 16.7366 16.663 17 16 17V17Z" fill="white"/>
</svg>
