<svg width="40" height="40" viewBox="0 0 40 40" fill="none" xmlns="http://www.w3.org/2000/svg">
<path d="M33.7932 25.0884L32.4998 25.7351L31.2065 25.0884C31.0906 25.0303 30.9628 25.0001 30.8332 25.0001C30.7036 25.0001 30.5757 25.0303 30.4598 25.0884L29.1665 25.7351L28.3332 25.3184V7.50005C28.3332 7.35795 28.2968 7.2182 28.2276 7.0941C28.1584 6.97 28.0585 6.86566 27.9376 6.79101C27.8167 6.71635 27.6787 6.67386 27.5367 6.66757C27.3948 6.66127 27.2535 6.69139 27.1265 6.75505L25.8332 7.40172L24.5398 6.75505C24.424 6.69698 24.2961 6.66675 24.1665 6.66675C24.0369 6.66675 23.9091 6.69698 23.7932 6.75505L22.4998 7.40172L21.2065 6.75505C21.0906 6.69698 20.9628 6.66675 20.8332 6.66675C20.7036 6.66675 20.5757 6.69698 20.4598 6.75505L19.1665 7.40172L17.8732 6.75505C17.7573 6.69698 17.6295 6.66675 17.4998 6.66675C17.3702 6.66675 17.2424 6.69698 17.1265 6.75505L15.8332 7.40172L14.5398 6.75505C14.424 6.69698 14.2961 6.66675 14.1665 6.66675C14.0369 6.66675 13.9091 6.69698 13.7932 6.75505L12.4998 7.40172L11.2065 6.75505C11.0906 6.69698 10.9628 6.66675 10.8332 6.66675C10.7036 6.66675 10.5757 6.69698 10.4598 6.75505L9.1665 7.40172L7.87317 6.75505C7.74612 6.69139 7.6049 6.66127 7.46294 6.66757C7.32097 6.67386 7.18297 6.71635 7.06205 6.79101C6.94113 6.86566 6.84132 6.97 6.77209 7.0941C6.70285 7.2182 6.66651 7.35795 6.6665 7.50005V30.8334C6.6665 31.9385 7.10549 32.9983 7.88689 33.7797C8.66829 34.5611 9.7281 35.0001 10.8332 35.0001H30.8332C31.9382 35.0001 32.998 34.5611 33.7794 33.7797C34.5609 32.9983 34.9998 31.9385 34.9998 30.8334V25.8334C34.9998 25.6913 34.9635 25.5515 34.8943 25.4274C34.825 25.3033 34.7252 25.199 34.6043 25.1243C34.4834 25.0497 34.3454 25.0072 34.2034 25.0009C34.0614 24.9946 33.9202 25.0247 33.7932 25.0884ZM17.4998 16.6667C17.4971 17.4036 17.2502 18.1187 16.7979 18.7004C16.3456 19.2821 15.7133 19.6975 14.9998 19.8817V27.5001C14.9998 27.7211 14.912 27.933 14.7558 28.0893C14.5995 28.2456 14.3875 28.3334 14.1665 28.3334C13.9455 28.3334 13.7335 28.2456 13.5772 28.0893C13.421 27.933 13.3332 27.7211 13.3332 27.5001V19.8817C12.6197 19.6975 11.9874 19.2821 11.5351 18.7004C11.0828 18.1187 10.8359 17.4036 10.8332 16.6667V14.1667C10.8332 13.9457 10.921 13.7337 11.0772 13.5775C11.2335 13.4212 11.4455 13.3334 11.6665 13.3334C11.8875 13.3334 12.0995 13.4212 12.2558 13.5775C12.412 13.7337 12.4998 13.9457 12.4998 14.1667V16.6667C12.5032 16.9541 12.5819 17.2356 12.7281 17.4831C12.8743 17.7305 13.083 17.9352 13.3332 18.0767V14.1667C13.3332 13.9457 13.421 13.7337 13.5772 13.5775C13.7335 13.4212 13.9455 13.3334 14.1665 13.3334C14.3875 13.3334 14.5995 13.4212 14.7558 13.5775C14.912 13.7337 14.9998 13.9457 14.9998 14.1667V18.0767C15.25 17.9352 15.4587 17.7305 15.6049 17.4831C15.7511 17.2356 15.8299 16.9541 15.8332 16.6667V14.1667C15.8332 13.9457 15.921 13.7337 16.0772 13.5775C16.2335 13.4212 16.4455 13.3334 16.6665 13.3334C16.8875 13.3334 17.0995 13.4212 17.2558 13.5775C17.412 13.7337 17.4998 13.9457 17.4998 14.1667V16.6667ZM23.2582 23.3784L20.8332 23.9851V27.5001C20.8332 27.7211 20.7454 27.933 20.5891 28.0893C20.4328 28.2456 20.2209 28.3334 19.9998 28.3334C19.7788 28.3334 19.5669 28.2456 19.4106 28.0893C19.2543 27.933 19.1665 27.7211 19.1665 27.5001V14.1667C19.1662 14.0017 19.2149 13.8403 19.3065 13.703C19.398 13.5656 19.5283 13.4586 19.6807 13.3954C19.8332 13.3322 20.001 13.3157 20.1628 13.348C20.3247 13.3803 20.4733 13.4599 20.5898 13.5767C21.7275 14.7083 22.6294 16.0543 23.2433 17.5368C23.8572 19.0193 24.171 20.6088 24.1665 22.2134C24.167 22.4811 24.0778 22.7413 23.9132 22.9525C23.7486 23.1637 23.518 23.3136 23.2582 23.3784ZM33.3332 30.8334C33.3332 31.4964 33.0698 32.1323 32.6009 32.6012C32.1321 33.07 31.4962 33.3334 30.8332 33.3334C30.1701 33.3334 29.5342 33.07 29.0654 32.6012C28.5966 32.1323 28.3332 31.4964 28.3332 30.8334V27.1817L28.7932 27.4117C28.9091 27.4698 29.0369 27.5 29.1665 27.5C29.2961 27.5 29.424 27.4698 29.5398 27.4117L30.8332 26.7651L32.1265 27.4117C32.2424 27.4698 32.3702 27.5 32.4998 27.5C32.6295 27.5 32.7573 27.4698 32.8732 27.4117L33.3332 27.1817V30.8334Z" fill="#A098AE"/>
</svg>
