<svg width="32" height="32" viewBox="0 0 32 32" fill="none" xmlns="http://www.w3.org/2000/svg">
<path d="M8.125 10.75C9.57475 10.75 10.75 9.57475 10.75 8.125C10.75 6.67525 9.57475 5.5 8.125 5.5C6.67525 5.5 5.5 6.67525 5.5 8.125C5.5 9.57475 6.67525 10.75 8.125 10.75Z" fill="#2E2E2E"/>
<path d="M16 19C17.6569 19 19 17.6569 19 16C19 14.3431 17.6569 13 16 13C14.3431 13 13 14.3431 13 16C13 17.6569 14.3431 19 16 19Z" fill="#2E2E2E"/>
<path d="M24.25 8.5C23.6533 8.5 23.081 8.73705 22.659 9.15901C22.2371 9.58097 22 10.1533 22 10.75C22.0003 11.1778 22.1226 11.5967 22.3525 11.9575C22.5623 12.2873 22.8544 12.5569 23.2 12.7394C23.5457 12.922 23.9329 13.0114 24.3236 12.9988C24.7144 12.9862 25.095 12.872 25.4282 12.6675C25.7613 12.463 26.0354 12.1752 26.2235 11.8325C26.4116 11.4898 26.5071 11.104 26.5007 10.7132C26.4943 10.3223 26.3862 9.93986 26.187 9.60351C25.9878 9.26715 25.7044 8.98849 25.3648 8.79499C25.0251 8.60149 24.6409 8.49982 24.25 8.5Z" fill="#2E2E2E"/>
<path d="M11.5 26.5C12.7426 26.5 13.75 25.4926 13.75 24.25C13.75 23.0074 12.7426 22 11.5 22C10.2574 22 9.25 23.0074 9.25 24.25C9.25 25.4926 10.2574 26.5 11.5 26.5Z" fill="#2E2E2E"/>
<path d="M14.41 15.16C14.3113 15.1605 14.2134 15.1416 14.122 15.1043C14.0307 15.067 13.9475 15.012 13.8775 14.9425L8.91996 9.99996C8.77675 9.85675 8.69629 9.6625 8.69629 9.45996C8.69629 9.25743 8.77675 9.06318 8.91996 8.91996C9.06318 8.77675 9.25743 8.69629 9.45996 8.69629C9.6625 8.69629 9.85675 8.77675 9.99996 8.91996L14.9575 13.8775C15.0632 13.9824 15.1354 14.1164 15.1647 14.2625C15.194 14.4085 15.1791 14.56 15.122 14.6976C15.0649 14.8352 14.9681 14.9526 14.8439 15.035C14.7198 15.1173 14.5739 15.1608 14.425 15.16H14.41ZM17.8975 15.5425C17.7364 15.5405 17.5802 15.4866 17.4521 15.3889C17.324 15.2913 17.2307 15.1549 17.1861 15.0001C17.1415 14.8453 17.148 14.6802 17.2045 14.5294C17.261 14.3785 17.3646 14.2499 17.5 14.1625L22.585 10.9225C22.753 10.8151 22.9569 10.7788 23.1517 10.8217C23.3465 10.8646 23.5163 10.9831 23.6237 11.1512C23.7311 11.3193 23.7674 11.5232 23.7245 11.718C23.6816 11.9128 23.563 12.0826 23.395 12.19L18.31 15.43C18.1863 15.5067 18.043 15.5458 17.8975 15.5425ZM12.25 23.68C12.1196 23.6803 11.9914 23.6467 11.878 23.5824C11.7646 23.5181 11.6699 23.4253 11.6033 23.3133C11.5366 23.2012 11.5004 23.0737 11.498 22.9434C11.4957 22.813 11.5274 22.6843 11.59 22.57L14.29 17.62C14.3894 17.4449 14.5543 17.3166 14.7484 17.2631C14.9425 17.2097 15.1499 17.2355 15.325 17.335C15.5 17.4344 15.6284 17.5993 15.6818 17.7934C15.7353 17.9875 15.7094 18.1949 15.61 18.37L12.91 23.32C12.8414 23.4327 12.7442 23.5254 12.6283 23.5886C12.5124 23.6518 12.3819 23.6833 12.25 23.68Z" fill="#2E2E2E"/>
</svg>
