<svg width="40" height="40" viewBox="0 0 40 40" fill="none" xmlns="http://www.w3.org/2000/svg">
<path d="M6.6665 29.1667C6.6665 29.8297 6.9299 30.4656 7.39874 30.9344C7.86758 31.4033 8.50346 31.6667 9.1665 31.6667H10.0848C10.2761 32.6086 10.7871 33.4554 11.5313 34.0636C12.2755 34.6719 13.207 35.0042 14.1682 35.0042C15.1293 35.0042 16.0609 34.6719 16.8051 34.0636C17.5492 33.4554 18.0602 32.6086 18.2515 31.6667H23.4998C24.6307 31.6588 25.7347 31.3211 26.6765 30.695C26.6765 30.7417 26.6632 30.7867 26.6632 30.8333C26.6626 31.7299 26.9512 32.6028 27.4862 33.3223C28.0212 34.0417 28.774 34.5695 29.6328 34.8271C30.4916 35.0846 31.4105 35.0583 32.2532 34.7521C33.0959 34.4458 33.8172 33.8759 34.3102 33.1269C34.8031 32.378 35.0414 31.4901 34.9895 30.595C34.9377 29.6999 34.5985 28.8454 34.0223 28.1585C33.4461 27.4715 32.6638 26.9887 31.7914 26.7818C30.919 26.5749 30.0031 26.655 29.1798 27.01C29.3204 26.387 29.3565 25.7449 29.2865 25.11L28.6415 19.9433C28.814 19.9811 28.99 20.0001 29.1665 20H29.9998C30.4419 20 30.8658 19.8244 31.1783 19.5118C31.4909 19.1993 31.6665 18.7754 31.6665 18.3333V16.6667C31.6665 16.2246 31.4909 15.8007 31.1783 15.4882C30.8658 15.1756 30.4419 15 29.9998 15H29.1665C28.7804 15.0018 28.3999 15.093 28.0549 15.2665C27.7099 15.44 27.4099 15.6911 27.1782 16L26.9098 15.7317C26.44 15.265 25.8054 15.0021 25.1432 15H24.1665C23.9455 15 23.7335 15.0878 23.5772 15.2441C23.421 15.4004 23.3332 15.6123 23.3332 15.8333C23.3332 16.0543 23.421 16.2663 23.5772 16.4226C23.7335 16.5789 23.9455 16.6667 24.1665 16.6667H25.1432C25.3638 16.6667 25.5753 16.7542 25.7315 16.91L26.7048 17.8833C26.7298 18.0383 27.3282 22.8467 27.6365 25.3167C27.7098 25.9031 27.6575 26.4984 27.4831 27.063C27.3087 27.6277 27.0161 28.1488 26.6249 28.5917C26.2337 29.0346 25.7527 29.3893 25.2139 29.6321C24.6751 29.8749 24.0908 30.0003 23.4998 30H23.1832L21.6665 22.4183V20.8333C21.6665 20.1703 21.4031 19.5344 20.9343 19.0656C20.4654 18.5967 19.8295 18.3333 19.1665 18.3333H15.8332V14.1667C15.8332 13.5036 15.5698 12.8677 15.1009 12.3989C14.6321 11.9301 13.9962 11.6667 13.3332 11.6667H9.1665C8.50346 11.6667 7.86758 11.9301 7.39874 12.3989C6.9299 12.8677 6.6665 13.5036 6.6665 14.1667V20.8333C6.6665 21.4964 6.9299 22.1323 7.39874 22.6011C7.86758 23.0699 8.50346 23.3333 9.1665 23.3333H9.50984C8.62717 24.0287 7.913 24.9145 7.42065 25.9246C6.9283 26.9347 6.67051 28.043 6.6665 29.1667V29.1667ZM30.8332 28.3333C31.3276 28.3333 31.811 28.48 32.2221 28.7547C32.6332 29.0294 32.9536 29.4198 33.1429 29.8766C33.3321 30.3334 33.3816 30.8361 33.2851 31.3211C33.1887 31.806 32.9506 32.2515 32.6009 32.6011C32.2513 32.9507 31.8058 33.1888 31.3209 33.2853C30.8359 33.3818 30.3333 33.3323 29.8765 33.143C29.4196 32.9538 29.0292 32.6334 28.7545 32.2223C28.4798 31.8111 28.3332 31.3278 28.3332 30.8333C28.3332 30.1703 28.5966 29.5344 29.0654 29.0656C29.5342 28.5967 30.1701 28.3333 30.8332 28.3333ZM15.8332 20H19.1665C19.3875 20 19.5995 20.0878 19.7558 20.2441C19.912 20.4004 19.9998 20.6123 19.9998 20.8333V21.6667H15.8332V20ZM16.5132 31.6667C16.3435 32.1538 16.0264 32.576 15.6059 32.8748C15.1854 33.1736 14.6823 33.3341 14.1665 33.3341C13.6507 33.3341 13.1476 33.1736 12.7271 32.8748C12.3066 32.576 11.9895 32.1538 11.8198 31.6667H16.5132ZM8.33317 14.1667C8.33317 13.9457 8.42097 13.7337 8.57725 13.5774C8.73353 13.4211 8.94549 13.3333 9.1665 13.3333H13.3332C13.5542 13.3333 13.7661 13.4211 13.9224 13.5774C14.0787 13.7337 14.1665 13.9457 14.1665 14.1667V15H8.33317V14.1667ZM8.33317 16.6667H14.1665V18.3083H8.33317V16.6667ZM9.1665 21.6667C8.94549 21.6667 8.73353 21.5789 8.57725 21.4226C8.42097 21.2663 8.33317 21.0543 8.33317 20.8333V19.975H14.1665V21.6667H9.1665Z" fill="#A098AE"/>
</svg>
