<svg width="32" height="32" viewBox="0 0 32 32" fill="none" xmlns="http://www.w3.org/2000/svg">
<path fill-rule="evenodd" clip-rule="evenodd" d="M5.33317 8.61633V11.8519C5.33317 12.5882 4.73584 13.1855 3.99984 13.1855C3.26384 13.1855 2.6665 12.5882 2.6665 11.8519V6.6667C2.6665 6.227 2.88384 5.81426 3.2465 5.5664C3.6105 5.31751 4.07317 5.26463 4.4825 5.42433L28.4825 14.7577C28.9958 14.9568 29.3332 15.4504 29.3332 16C29.3332 16.5497 28.9958 17.0433 28.4825 17.2424L4.4825 26.5757C4.07317 26.7354 3.6105 26.6826 3.2465 26.4337C2.88384 26.1858 2.6665 25.7731 2.6665 25.3334C2.6665 25.3334 2.6665 21.4248 2.6665 18.6663C2.6665 16.4574 4.45717 14.6664 6.6665 14.6664H13.3332C14.0692 14.6664 14.6665 15.2637 14.6665 16C14.6665 16.7363 14.0692 17.3337 13.3332 17.3337C13.3332 17.3337 9.42517 17.3337 6.6665 17.3337C5.9305 17.3337 5.33317 17.93 5.33317 18.6663V23.3837L24.3212 16L5.33317 8.61633Z" fill="white"/>
</svg>
