<svg width="64" height="64" viewBox="0 0 64 64" fill="none" xmlns="http://www.w3.org/2000/svg">
<g filter="url(#filter0_d_2_3662)">
<rect x="16" y="8" width="32" height="32" rx="8" fill="white"/>
</g>
<path d="M40.945 25C40.484 29.1715 37.1715 32.484 33 32.945V34C33 34.2652 32.8946 34.5196 32.7071 34.7071C32.5196 34.8946 32.2652 35 32 35C31.7348 35 31.4804 34.8946 31.2929 34.7071C31.1054 34.5196 31 34.2652 31 34V32.945C26.8285 32.484 23.516 29.1715 23.055 25H22C21.7348 25 21.4804 24.8946 21.2929 24.7071C21.1054 24.5196 21 24.2652 21 24C21 23.7348 21.1054 23.4804 21.2929 23.2929C21.4804 23.1054 21.7348 23 22 23H23.055C23.516 18.8285 26.8285 15.516 31 15.055V14C31 13.7348 31.1054 13.4804 31.2929 13.2929C31.4804 13.1054 31.7348 13 32 13C32.2652 13 32.5196 13.1054 32.7071 13.2929C32.8946 13.4804 33 13.7348 33 14V15.055C37.1715 15.516 40.484 18.8285 40.945 23H42C42.2652 23 42.5196 23.1054 42.7071 23.2929C42.8946 23.4804 43 23.7348 43 24C43 24.2652 42.8946 24.5196 42.7071 24.7071C42.5196 24.8946 42.2652 25 42 25H40.945ZM32 31C35.866 31 39 27.866 39 24C39 20.134 35.866 17 32 17C28.134 17 25 20.134 25 24C25 27.866 28.134 31 32 31ZM32 28C30.9391 28 29.9217 27.5786 29.1716 26.8284C28.4214 26.0783 28 25.0609 28 24C28 22.9391 28.4214 21.9217 29.1716 21.1716C29.9217 20.4214 30.9391 20 32 20C33.0609 20 34.0783 20.4214 34.8284 21.1716C35.5786 21.9217 36 22.9391 36 24C36 25.0609 35.5786 26.0783 34.8284 26.8284C34.0783 27.5786 33.0609 28 32 28ZM32 26C32.5304 26 33.0391 25.7893 33.4142 25.4142C33.7893 25.0391 34 24.5304 34 24C34 23.4696 33.7893 22.9609 33.4142 22.5858C33.0391 22.2107 32.5304 22 32 22C31.4696 22 30.9609 22.2107 30.5858 22.5858C30.2107 22.9609 30 23.4696 30 24C30 24.5304 30.2107 25.0391 30.5858 25.4142C30.9609 25.7893 31.4696 26 32 26Z" fill="#F8B602"/>
<defs>
<filter id="filter0_d_2_3662" x="0" y="0" width="64" height="64" filterUnits="userSpaceOnUse" color-interpolation-filters="sRGB">
<feFlood flood-opacity="0" result="BackgroundImageFix"/>
<feColorMatrix in="SourceAlpha" type="matrix" values="0 0 0 0 0 0 0 0 0 0 0 0 0 0 0 0 0 0 127 0" result="hardAlpha"/>
<feOffset dy="8"/>
<feGaussianBlur stdDeviation="8"/>
<feComposite in2="hardAlpha" operator="out"/>
<feColorMatrix type="matrix" values="0 0 0 0 0 0 0 0 0 0 0 0 0 0 0 0 0 0 0.15 0"/>
<feBlend mode="normal" in2="BackgroundImageFix" result="effect1_dropShadow_2_3662"/>
<feBlend mode="normal" in="SourceGraphic" in2="effect1_dropShadow_2_3662" result="shape"/>
</filter>
</defs>
</svg>
