<svg width="24" height="24" viewBox="0 0 24 24" fill="none" xmlns="http://www.w3.org/2000/svg">
<path d="M23.4566 7.6688C23.1566 6.26255 22.6691 5.10005 21.8066 4.1813C20.5879 2.8313 18.9941 2.17505 17.1004 2.17505H16.8566C14.8504 2.2313 13.2004 3.03755 12.0379 4.50005C11.6066 4.01255 11.0629 3.52505 10.4441 3.15005C9.22539 2.4188 7.81914 2.1188 6.22539 2.2313C4.46289 2.4188 3.05664 3.2063 2.00664 4.50005C0.900394 5.96255 0.356644 7.61255 0.412894 9.3188C0.469144 10.9125 0.956645 12.375 1.87539 13.7813C2.90664 15.375 4.20039 16.5938 5.36289 17.5688C7.01289 19.0313 8.90664 20.325 11.2879 21.6563C11.5316 21.7875 11.7191 21.8438 11.9629 21.8438C12.2066 21.8438 12.3941 21.7875 12.6379 21.6563C14.7191 20.4938 16.5379 19.275 18.1879 17.8688C19.8941 16.4625 21.1129 15.1125 22.0879 13.65C23.4004 11.7563 23.8129 9.8063 23.4566 7.6688Z" fill="#EB5757"/>
</svg>
