<svg width="40" height="40" viewBox="0 0 40 40" fill="none" xmlns="http://www.w3.org/2000/svg">
<path d="M30.8334 10H10.8334C9.72835 10 8.66854 10.439 7.88714 11.2204C7.10573 12.0018 6.66675 13.0616 6.66675 14.1667V27.5C6.66675 28.6051 7.10573 29.6649 7.88714 30.4463C8.66854 31.2277 9.72835 31.6667 10.8334 31.6667H13.3334V33.3883C13.3334 33.6146 13.3948 33.8366 13.5111 34.0306C13.6274 34.2247 13.7941 34.3836 13.9936 34.4903C14.1931 34.5971 14.4178 34.6477 14.6438 34.6368C14.8697 34.6259 15.0885 34.5538 15.2767 34.4283L19.4184 31.6667H30.8334C31.9385 31.6667 32.9983 31.2277 33.7797 30.4463C34.5611 29.6649 35.0001 28.6051 35.0001 27.5V14.1667C35.0001 13.0616 34.5611 12.0018 33.7797 11.2204C32.9983 10.439 31.9385 10 30.8334 10ZM21.8334 20.5467L20.3117 22.2717L20.5267 24.565C20.5468 24.7804 20.5108 24.9972 20.4221 25.1945C20.3334 25.3918 20.1951 25.5627 20.0207 25.6906C19.8463 25.8185 19.6417 25.8991 19.4269 25.9244C19.2121 25.9497 18.9944 25.9189 18.7951 25.835L16.6667 24.915L14.5534 25.8333C14.3544 25.919 14.1366 25.9515 13.9213 25.9278C13.7059 25.904 13.5004 25.8247 13.3249 25.6978C13.1494 25.5708 13.0098 25.4004 12.9198 25.2033C12.8299 25.0062 12.7927 24.7891 12.8117 24.5733L13.0284 22.275L11.5001 20.5467C11.3569 20.3834 11.2586 20.1858 11.2149 19.9731C11.1713 19.7604 11.1836 19.54 11.2509 19.3336C11.3181 19.1271 11.4379 18.9417 11.5985 18.7956C11.7591 18.6494 11.9549 18.5476 12.1667 18.5L14.4151 18L15.5817 16.0167C15.7019 15.8427 15.8626 15.7005 16.0498 15.6023C16.237 15.5041 16.4453 15.4528 16.6567 15.4528C16.8682 15.4528 17.0765 15.5041 17.2637 15.6023C17.4509 15.7005 17.6116 15.8427 17.7317 16.0167L18.8984 18.0033L21.1451 18.5033C21.3578 18.5487 21.5551 18.6487 21.7175 18.7935C21.8799 18.9383 22.0018 19.1228 22.0712 19.3289C22.1407 19.5351 22.1553 19.7558 22.1136 19.9693C22.0719 20.1828 21.9753 20.3818 21.8334 20.5467ZM27.5001 25H24.1667C23.9457 25 23.7338 24.9122 23.5775 24.7559C23.4212 24.5996 23.3334 24.3877 23.3334 24.1667C23.3334 23.9457 23.4212 23.7337 23.5775 23.5774C23.7338 23.4211 23.9457 23.3333 24.1667 23.3333H27.5001C27.7211 23.3333 27.9331 23.4211 28.0893 23.5774C28.2456 23.7337 28.3334 23.9457 28.3334 24.1667C28.3334 24.3877 28.2456 24.5996 28.0893 24.7559C27.9331 24.9122 27.7211 25 27.5001 25ZM30.0001 21.6667H24.1667C23.9457 21.6667 23.7338 21.5789 23.5775 21.4226C23.4212 21.2663 23.3334 21.0543 23.3334 20.8333C23.3334 20.6123 23.4212 20.4004 23.5775 20.2441C23.7338 20.0878 23.9457 20 24.1667 20H30.0001C30.2211 20 30.4331 20.0878 30.5893 20.2441C30.7456 20.4004 30.8334 20.6123 30.8334 20.8333C30.8334 21.0543 30.7456 21.2663 30.5893 21.4226C30.4331 21.5789 30.2211 21.6667 30.0001 21.6667ZM30.0001 18.3333H24.1667C23.9457 18.3333 23.7338 18.2455 23.5775 18.0893C23.4212 17.933 23.3334 17.721 23.3334 17.5C23.3334 17.279 23.4212 17.067 23.5775 16.9107C23.7338 16.7545 23.9457 16.6667 24.1667 16.6667H30.0001C30.2211 16.6667 30.4331 16.7545 30.5893 16.9107C30.7456 17.067 30.8334 17.279 30.8334 17.5C30.8334 17.721 30.7456 17.933 30.5893 18.0893C30.4331 18.2455 30.2211 18.3333 30.0001 18.3333Z" fill="#A098AE"/>
</svg>
