<svg width="24" height="24" viewBox="0 0 24 24" fill="none" xmlns="http://www.w3.org/2000/svg">
<path fill-rule="evenodd" clip-rule="evenodd" d="M3.99992 6.46216V8.88883C3.99992 9.44105 3.55192 9.88905 2.99992 9.88905C2.44792 9.88905 1.99992 9.44105 1.99992 8.88883V4.99994C1.99992 4.67016 2.16292 4.3606 2.43492 4.17471C2.70792 3.98805 3.05492 3.94838 3.36192 4.06816L21.3619 11.0682C21.7469 11.2175 21.9999 11.5877 21.9999 11.9999C21.9999 12.4122 21.7469 12.7824 21.3619 12.9317L3.36192 19.9317C3.05492 20.0515 2.70792 20.0118 2.43492 19.8252C2.16292 19.6393 1.99992 19.3297 1.99992 18.9999C1.99992 18.9999 1.99992 16.0685 1.99992 13.9996C1.99992 12.3429 3.34292 10.9997 4.99992 10.9997H9.99992C10.5519 10.9997 10.9999 11.4477 10.9999 11.9999C10.9999 12.5522 10.5519 13.0002 9.99992 13.0002C9.99992 13.0002 7.06892 13.0002 4.99992 13.0002C4.44792 13.0002 3.99992 13.4474 3.99992 13.9996V17.5377L18.2409 11.9999L3.99992 6.46216Z" fill="white"/>
</svg>
