<svg width="40" height="40" viewBox="0 0 40 40" fill="none" xmlns="http://www.w3.org/2000/svg">
<path d="M30.8333 10H10.8333C9.72822 10 8.66842 10.439 7.88701 11.2204C7.10561 12.0018 6.66663 13.0616 6.66663 14.1667V27.5C6.66663 28.6051 7.10561 29.6649 7.88701 30.4463C8.66842 31.2277 9.72822 31.6667 10.8333 31.6667H13.3333V33.3883C13.3333 33.6146 13.3947 33.8366 13.511 34.0306C13.6273 34.2247 13.794 34.3836 13.9935 34.4903C14.193 34.5971 14.4177 34.6477 14.6436 34.6368C14.8696 34.6259 15.0884 34.5538 15.2766 34.4283L19.4183 31.6667H30.8333C31.9384 31.6667 32.9982 31.2277 33.7796 30.4463C34.561 29.6649 35 28.6051 35 27.5V14.1667C35 13.0616 34.561 12.0018 33.7796 11.2204C32.9982 10.439 31.9384 10 30.8333 10ZM21.8333 20.5467L20.3116 22.2717L20.5266 24.565C20.5467 24.7804 20.5107 24.9972 20.422 25.1945C20.3333 25.3918 20.195 25.5627 20.0206 25.6906C19.8462 25.8185 19.6416 25.8991 19.4268 25.9244C19.212 25.9497 18.9943 25.9189 18.795 25.835L16.6666 24.915L14.5533 25.8333C14.3543 25.919 14.1365 25.9515 13.9211 25.9278C13.7058 25.904 13.5003 25.8247 13.3248 25.6978C13.1492 25.5708 13.0097 25.4004 12.9197 25.2033C12.8298 25.0062 12.7925 24.7891 12.8116 24.5733L13.0283 22.275L11.5 20.5467C11.3568 20.3834 11.2585 20.1858 11.2148 19.9731C11.1711 19.7604 11.1835 19.54 11.2508 19.3336C11.318 19.1271 11.4378 18.9417 11.5984 18.7956C11.759 18.6494 11.9548 18.5476 12.1666 18.5L14.415 18L15.5816 16.0167C15.7018 15.8427 15.8624 15.7005 16.0497 15.6023C16.2369 15.5041 16.4452 15.4528 16.6566 15.4528C16.8681 15.4528 17.0763 15.5041 17.2636 15.6023C17.4508 15.7005 17.6114 15.8427 17.7316 16.0167L18.8983 18.0033L21.145 18.5033C21.3577 18.5487 21.555 18.6487 21.7174 18.7935C21.8798 18.9383 22.0017 19.1228 22.0711 19.3289C22.1406 19.5351 22.1552 19.7558 22.1135 19.9693C22.0718 20.1828 21.9752 20.3818 21.8333 20.5467ZM27.5 25H24.1666C23.9456 25 23.7336 24.9122 23.5774 24.7559C23.4211 24.5996 23.3333 24.3877 23.3333 24.1667C23.3333 23.9457 23.4211 23.7337 23.5774 23.5774C23.7336 23.4211 23.9456 23.3333 24.1666 23.3333H27.5C27.721 23.3333 27.9329 23.4211 28.0892 23.5774C28.2455 23.7337 28.3333 23.9457 28.3333 24.1667C28.3333 24.3877 28.2455 24.5996 28.0892 24.7559C27.9329 24.9122 27.721 25 27.5 25ZM30 21.6667H24.1666C23.9456 21.6667 23.7336 21.5789 23.5774 21.4226C23.4211 21.2663 23.3333 21.0543 23.3333 20.8333C23.3333 20.6123 23.4211 20.4004 23.5774 20.2441C23.7336 20.0878 23.9456 20 24.1666 20H30C30.221 20 30.4329 20.0878 30.5892 20.2441C30.7455 20.4004 30.8333 20.6123 30.8333 20.8333C30.8333 21.0543 30.7455 21.2663 30.5892 21.4226C30.4329 21.5789 30.221 21.6667 30 21.6667ZM30 18.3333H24.1666C23.9456 18.3333 23.7336 18.2455 23.5774 18.0893C23.4211 17.933 23.3333 17.721 23.3333 17.5C23.3333 17.279 23.4211 17.067 23.5774 16.9107C23.7336 16.7545 23.9456 16.6667 24.1666 16.6667H30C30.221 16.6667 30.4329 16.7545 30.5892 16.9107C30.7455 17.067 30.8333 17.279 30.8333 17.5C30.8333 17.721 30.7455 17.933 30.5892 18.0893C30.4329 18.2455 30.221 18.3333 30 18.3333Z" fill="#A098AE"/>
</svg>
