<svg width="48" height="48" viewBox="0 0 48 48" fill="none" xmlns="http://www.w3.org/2000/svg">
<rect width="48" height="48" rx="16" fill="#A6C44A"/>
<path d="M34.9333 18.6267C34.5489 18.5483 34.1961 18.3586 33.9187 18.0812C33.6413 17.8038 33.4516 17.451 33.3733 17.0667C33.3118 16.7655 33.1481 16.4948 32.91 16.3005C32.6719 16.1061 32.374 15.9999 32.0666 16H19.9999V17.3333C19.9999 17.5101 19.9297 17.6797 19.8047 17.8047C19.6796 17.9298 19.5101 18 19.3333 18C19.1564 18 18.9869 17.9298 18.8618 17.8047C18.7368 17.6797 18.6666 17.5101 18.6666 17.3333V16H17.2666C16.9592 15.9999 16.6613 16.1061 16.4231 16.3005C16.185 16.4948 16.0214 16.7655 15.9599 17.0667C15.8815 17.451 15.6918 17.8038 15.4145 18.0812C15.1371 18.3586 14.7843 18.5483 14.3999 18.6267C14.0988 18.6881 13.8281 18.8518 13.6337 19.0899C13.4393 19.328 13.3332 19.626 13.3333 19.9333V29.4C13.3332 29.7074 13.4393 30.0053 13.6337 30.2434C13.8281 30.4816 14.0988 30.6452 14.3999 30.7067C14.7843 30.7851 15.1371 30.9747 15.4145 31.2521C15.6918 31.5295 15.8815 31.8823 15.9599 32.2667C16.0214 32.5678 16.185 32.8385 16.4231 33.0329C16.6613 33.2273 16.9592 33.3334 17.2666 33.3333H18.6666V32C18.6666 31.8232 18.7368 31.6536 18.8618 31.5286C18.9869 31.4036 19.1564 31.3333 19.3333 31.3333C19.5101 31.3333 19.6796 31.4036 19.8047 31.5286C19.9297 31.6536 19.9999 31.8232 19.9999 32V33.3333H32.0666C32.374 33.3334 32.6719 33.2273 32.91 33.0329C33.1481 32.8385 33.3118 32.5678 33.3733 32.2667C33.4516 31.8823 33.6413 31.5295 33.9187 31.2521C34.1961 30.9747 34.5489 30.7851 34.9333 30.7067C35.2344 30.6452 35.5051 30.4816 35.6995 30.2434C35.8938 30.0053 36 29.7074 35.9999 29.4V19.9333C36 19.626 35.8938 19.328 35.6995 19.0899C35.5051 18.8518 35.2344 18.6881 34.9333 18.6267ZM19.9999 29.4333C19.9999 29.6101 19.9297 29.7797 19.8047 29.9047C19.6796 30.0298 19.5101 30.1 19.3333 30.1C19.1564 30.1 18.9869 30.0298 18.8618 29.9047C18.7368 29.7797 18.6666 29.6101 18.6666 29.4333V27.9667C18.6666 27.7899 18.7368 27.6203 18.8618 27.4953C18.9869 27.3702 19.1564 27.3 19.3333 27.3C19.5101 27.3 19.6796 27.3702 19.8047 27.4953C19.9297 27.6203 19.9999 27.7899 19.9999 27.9667V29.4333ZM19.9999 25.4C19.9999 25.5768 19.9297 25.7464 19.8047 25.8714C19.6796 25.9964 19.5101 26.0667 19.3333 26.0667C19.1564 26.0667 18.9869 25.9964 18.8618 25.8714C18.7368 25.7464 18.6666 25.5768 18.6666 25.4V23.9333C18.6666 23.7565 18.7368 23.587 18.8618 23.4619C18.9869 23.3369 19.1564 23.2667 19.3333 23.2667C19.5101 23.2667 19.6796 23.3369 19.8047 23.4619C19.9297 23.587 19.9999 23.7565 19.9999 23.9333V25.4ZM19.9999 21.3653C19.9999 21.5421 19.9297 21.7117 19.8047 21.8367C19.6796 21.9618 19.5101 22.032 19.3333 22.032C19.1564 22.032 18.9869 21.9618 18.8618 21.8367C18.7368 21.7117 18.6666 21.5421 18.6666 21.3653V19.8987C18.6666 19.7219 18.7368 19.5523 18.8618 19.4273C18.9869 19.3022 19.1564 19.232 19.3333 19.232C19.5101 19.232 19.6796 19.3022 19.8047 19.4273C19.9297 19.5523 19.9999 19.7219 19.9999 19.8987V21.3653ZM27.3333 22C27.331 22.5895 27.1336 23.1616 26.7717 23.627C26.4099 24.0923 25.904 24.4246 25.3333 24.572V29.3333C25.3333 29.5101 25.263 29.6797 25.138 29.8047C25.013 29.9298 24.8434 30 24.6666 30C24.4898 30 24.3202 29.9298 24.1952 29.8047C24.0702 29.6797 23.9999 29.5101 23.9999 29.3333V24.572C23.4292 24.4246 22.9233 24.0923 22.5615 23.627C22.1996 23.1616 22.0021 22.5895 21.9999 22V20C21.9999 19.8232 22.0702 19.6536 22.1952 19.5286C22.3202 19.4036 22.4898 19.3333 22.6666 19.3333C22.8434 19.3333 23.013 19.4036 23.138 19.5286C23.263 19.6536 23.3333 19.8232 23.3333 20V22C23.3359 22.2299 23.3989 22.4551 23.5159 22.6531C23.6329 22.851 23.7998 23.0148 23.9999 23.128V20C23.9999 19.8232 24.0702 19.6536 24.1952 19.5286C24.3202 19.4036 24.4898 19.3333 24.6666 19.3333C24.8434 19.3333 25.013 19.4036 25.138 19.5286C25.263 19.6536 25.3333 19.8232 25.3333 20V23.128C25.5334 23.0148 25.7003 22.851 25.8173 22.6531C25.9343 22.4551 25.9973 22.2299 25.9999 22V20C25.9999 19.8232 26.0702 19.6536 26.1952 19.5286C26.3202 19.4036 26.4898 19.3333 26.6666 19.3333C26.8434 19.3333 27.013 19.4036 27.138 19.5286C27.263 19.6536 27.3333 19.8232 27.3333 20V22ZM31.9159 26.7867L29.9999 27.7453V29.3333C29.9999 29.5101 29.9297 29.6797 29.8047 29.8047C29.6796 29.9298 29.5101 30 29.3333 30C29.1564 30 28.9869 29.9298 28.8618 29.8047C28.7368 29.6797 28.6666 29.5101 28.6666 29.3333V20C28.6663 19.868 28.7053 19.7388 28.7786 19.629C28.8518 19.5191 28.956 19.4335 29.078 19.383C29.1999 19.3324 29.3342 19.3192 29.4636 19.345C29.5931 19.3708 29.712 19.4345 29.8053 19.528C31.4808 21.0914 32.4989 23.2336 32.6533 25.52C32.6675 25.7801 32.6053 26.0386 32.4742 26.2637C32.3432 26.4888 32.1491 26.6706 31.9159 26.7867Z" fill="white"/>
</svg>
