<svg width="40" height="40" viewBox="0 0 40 40" fill="none" xmlns="http://www.w3.org/2000/svg">
<path d="M6.66667 29.1667C6.66667 29.8298 6.93006 30.4657 7.3989 30.9345C7.86775 31.4034 8.50363 31.6667 9.16667 31.6667H10.085C10.2763 32.6087 10.7873 33.4555 11.5315 34.0637C12.2756 34.672 13.2072 35.0043 14.1683 35.0043C15.1295 35.0043 16.061 34.672 16.8052 34.0637C17.5494 33.4555 18.0604 32.6087 18.2517 31.6667H23.5C24.6309 31.6588 25.7349 31.3211 26.6767 30.6951C26.6767 30.7417 26.6633 30.7867 26.6633 30.8334C26.6628 31.73 26.9514 32.6029 27.4864 33.3223C28.0214 34.0418 28.7742 34.5696 29.633 34.8271C30.4917 35.0847 31.4107 35.0584 32.2534 34.7521C33.096 34.4459 33.8174 33.8759 34.3104 33.127C34.8033 32.3781 35.0416 31.4902 34.9897 30.5951C34.9378 29.7 34.5986 28.8455 34.0225 28.1586C33.4463 27.4716 32.6639 26.9888 31.7915 26.7819C30.9192 26.575 30.0033 26.655 29.18 27.0101C29.3206 26.387 29.3566 25.745 29.2867 25.1101L28.6417 19.9434C28.8141 19.9811 28.9901 20.0001 29.1667 20.0001H30C30.442 20.0001 30.866 19.8245 31.1785 19.5119C31.4911 19.1994 31.6667 18.7754 31.6667 18.3334V16.6667C31.6667 16.2247 31.4911 15.8008 31.1785 15.4882C30.866 15.1757 30.442 15.0001 30 15.0001H29.1667C28.7805 15.0019 28.4001 15.0931 28.0551 15.2666C27.7101 15.4401 27.41 15.6912 27.1783 16.0001L26.91 15.7317C26.4402 15.2651 25.8055 15.0022 25.1433 15.0001H24.1667C23.9457 15.0001 23.7337 15.0879 23.5774 15.2442C23.4211 15.4004 23.3333 15.6124 23.3333 15.8334C23.3333 16.0544 23.4211 16.2664 23.5774 16.4227C23.7337 16.579 23.9457 16.6667 24.1667 16.6667H25.1433C25.3639 16.6668 25.5755 16.7543 25.7317 16.9101L26.705 17.8834C26.73 18.0384 27.3283 22.8467 27.6367 25.3167C27.71 25.9032 27.6576 26.4985 27.4832 27.0631C27.3088 27.6278 27.0163 28.1489 26.6251 28.5918C26.2338 29.0347 25.7528 29.3894 25.2141 29.6322C24.6753 29.875 24.091 30.0004 23.5 30.0001H23.1833L21.6667 22.4184V20.8334C21.6667 20.1704 21.4033 19.5345 20.9344 19.0656C20.4656 18.5968 19.8297 18.3334 19.1667 18.3334H15.8333V14.1667C15.8333 13.5037 15.5699 12.8678 15.1011 12.399C14.6323 11.9301 13.9964 11.6667 13.3333 11.6667H9.16667C8.50363 11.6667 7.86775 11.9301 7.3989 12.399C6.93006 12.8678 6.66667 13.5037 6.66667 14.1667V20.8334C6.66667 21.4965 6.93006 22.1323 7.3989 22.6012C7.86775 23.07 8.50363 23.3334 9.16667 23.3334H9.51C8.62733 24.0288 7.91316 24.9146 7.42082 25.9247C6.92847 26.9348 6.67067 28.0431 6.66667 29.1667V29.1667ZM30.8333 28.3334C31.3278 28.3334 31.8111 28.48 32.2223 28.7547C32.6334 29.0294 32.9538 29.4199 33.143 29.8767C33.3323 30.3335 33.3818 30.8362 33.2853 31.3211C33.1888 31.8061 32.9507 32.2516 32.6011 32.6012C32.2515 32.9508 31.806 33.1889 31.3211 33.2854C30.8361 33.3818 30.3334 33.3323 29.8766 33.1431C29.4198 32.9539 29.0294 32.6335 28.7547 32.2223C28.48 31.8112 28.3333 31.3279 28.3333 30.8334C28.3333 30.1704 28.5967 29.5345 29.0656 29.0656C29.5344 28.5968 30.1703 28.3334 30.8333 28.3334ZM15.8333 20.0001H19.1667C19.3877 20.0001 19.5996 20.0879 19.7559 20.2442C19.9122 20.4004 20 20.6124 20 20.8334V21.6667H15.8333V20.0001ZM16.5133 31.6667C16.3436 32.1539 16.0265 32.5761 15.6061 32.8749C15.1856 33.1737 14.6825 33.3342 14.1667 33.3342C13.6508 33.3342 13.1478 33.1737 12.7273 32.8749C12.3068 32.5761 11.9897 32.1539 11.82 31.6667H16.5133ZM8.33334 14.1667C8.33334 13.9457 8.42114 13.7338 8.57742 13.5775C8.7337 13.4212 8.94566 13.3334 9.16667 13.3334H13.3333C13.5544 13.3334 13.7663 13.4212 13.9226 13.5775C14.0789 13.7338 14.1667 13.9457 14.1667 14.1667V15.0001H8.33334V14.1667ZM8.33334 16.6667H14.1667V18.3084H8.33334V16.6667ZM9.16667 21.6667C8.94566 21.6667 8.7337 21.579 8.57742 21.4227C8.42114 21.2664 8.33334 21.0544 8.33334 20.8334V19.9751H14.1667V21.6667H9.16667Z" fill="#A098AE"/>
</svg>
