<svg width="24" height="24" viewBox="0 0 24 24" fill="none" xmlns="http://www.w3.org/2000/svg">
<rect width="24" height="24" rx="4" fill="#F8B602"/>
<path d="M8.99988 16.282C10.1852 15.33 11.1139 14.5507 11.7859 13.944C12.4579 13.328 13.0225 12.6887 13.4799 12.026C13.9465 11.354 14.1799 10.696 14.1799 10.052C14.1799 9.44533 14.0305 8.96933 13.7319 8.624C13.4425 8.26933 12.9712 8.092 12.3179 8.092C11.6832 8.092 11.1885 8.29267 10.8339 8.694C10.4885 9.086 10.3019 9.61333 10.2739 10.276H9.04188C9.07921 9.23067 9.39654 8.42333 9.99388 7.854C10.5912 7.28467 11.3612 7 12.3039 7C13.2652 7 14.0259 7.266 14.5859 7.798C15.1552 8.33 15.4399 9.06267 15.4399 9.996C15.4399 10.7707 15.2065 11.5267 14.7399 12.264C14.2825 12.992 13.7599 13.636 13.1719 14.196C12.5839 14.7467 11.8325 15.3907 10.9179 16.128H15.7339V17.192H8.99988V16.282Z" fill="white"/>
</svg>
