<svg width="24" height="24" viewBox="0 0 24 24" fill="none" xmlns="http://www.w3.org/2000/svg">
<path d="M23.4564 7.6688C23.1564 6.26255 22.6689 5.10005 21.8064 4.1813C20.5877 2.8313 18.9939 2.17505 17.1001 2.17505H16.8564C14.8502 2.2313 13.2001 3.03755 12.0376 4.50005C11.6064 4.01255 11.0627 3.52505 10.4439 3.15005C9.22515 2.4188 7.8189 2.1188 6.22515 2.2313C4.46265 2.4188 3.0564 3.2063 2.0064 4.50005C0.90015 5.96255 0.3564 7.61255 0.41265 9.3188C0.4689 10.9125 0.9564 12.375 1.87515 13.7813C2.9064 15.375 4.20015 16.5938 5.36265 17.5688C7.01265 19.0313 8.9064 20.325 11.2877 21.6563C11.5314 21.7875 11.7189 21.8438 11.9627 21.8438C12.2064 21.8438 12.3939 21.7875 12.6377 21.6563C14.7189 20.4938 16.5377 19.275 18.1877 17.8688C19.8939 16.4625 21.1126 15.1125 22.0877 13.65C23.4002 11.7563 23.8127 9.8063 23.4564 7.6688Z" fill="#DBDBDB"/>
</svg>
