<svg width="240" height="240" viewBox="0 0 240 240" fill="none" xmlns="http://www.w3.org/2000/svg">
<path d="M94.2474 237.204C119.98 242.858 146.859 239.886 170.735 228.747C194.611 217.608 214.158 198.921 226.358 175.569L183.815 153.341C176.495 167.352 164.767 178.565 150.441 185.248C136.115 191.932 119.988 193.715 104.548 190.322L94.2474 237.204Z" fill="#A6C44A"/>
<path d="M120 240C101.597 240 83.4409 235.767 66.9353 227.63C50.4296 219.492 36.0167 207.667 24.8111 193.069C13.6055 178.471 5.90747 161.492 2.31227 143.443C-1.28294 125.395 -0.678992 106.762 4.07741 88.9846C8.83382 71.2071 17.6152 54.7618 29.7426 40.9203C41.87 27.0787 57.0184 16.2119 74.0164 9.16002C91.0144 2.10815 109.407 -0.939773 127.771 0.251932C146.135 1.44364 163.979 6.84304 179.923 16.0326L155.954 57.6196C146.387 52.1058 135.681 48.8662 124.662 48.1511C113.644 47.4361 102.609 49.2649 92.4098 53.496C82.211 57.7271 73.122 64.2472 65.8455 72.5522C58.5691 80.8571 53.3003 90.7243 50.4464 101.391C47.5926 112.057 47.2302 123.237 49.3873 134.066C51.5444 144.895 56.1633 155.083 62.8866 163.841C69.61 172.6 78.2577 179.695 88.1611 184.578C98.0645 189.46 108.958 192 120 192L120 240Z" fill="#EB5757"/>
<path d="M73.9679 9.18016C98.0791 -0.83508 124.799 -2.71353 150.074 3.82974C175.349 10.373 197.801 24.981 214.024 45.4378C230.246 65.8947 239.354 91.0842 239.967 117.186C240.579 143.287 232.662 168.876 217.417 190.071L178.45 162.043C187.597 149.325 192.347 133.972 191.98 118.311C191.613 102.651 186.148 87.5368 176.414 75.2627C166.681 62.9886 153.21 54.2238 138.044 50.2978C122.879 46.3719 106.847 47.4989 92.3807 53.5081L73.9679 9.18016Z" fill="#F8B602"/>
</svg>
