<svg width="48" height="48" viewBox="0 0 48 48" fill="none" xmlns="http://www.w3.org/2000/svg">
<rect x="1" y="1" width="46" height="46" rx="15" stroke="#DBDBDB" stroke-width="2"/>
<path d="M31.1156 24.3117C31.1156 24.6545 31.0927 24.9973 31.047 25.3383C31.0576 25.2609 31.0681 25.1818 31.0787 25.1045C30.9873 25.7795 30.808 26.4404 30.5425 27.068C30.5724 26.9977 30.6023 26.9274 30.6304 26.8588C30.3738 27.4652 30.0398 28.0348 29.639 28.5568C29.6847 28.4971 29.7304 28.4391 29.7761 28.3793C29.3718 28.9031 28.9007 29.3725 28.3787 29.7768C28.4384 29.7311 28.4964 29.6854 28.5562 29.6397C28.0341 30.0404 27.4646 30.3744 26.8582 30.6311C26.9285 30.6012 26.9988 30.5713 27.0673 30.5432C26.4398 30.8068 25.7789 30.9879 25.1039 31.0793C25.1812 31.0688 25.2603 31.0582 25.3377 31.0477C24.6574 31.1373 23.9666 31.1373 23.2845 31.0477C23.3619 31.0582 23.441 31.0688 23.5183 31.0793C22.8433 30.9879 22.1824 30.8086 21.5548 30.5432C21.6252 30.5731 21.6955 30.6029 21.764 30.6311C21.1576 30.3744 20.588 30.0404 20.066 29.6397C20.1257 29.6854 20.1837 29.7311 20.2435 29.7768C19.7197 29.3725 19.2504 28.9014 18.8461 28.3793C18.8918 28.4391 18.9375 28.4971 18.9832 28.5568C18.5824 28.0348 18.2484 27.4652 17.9918 26.8588C18.0216 26.9291 18.0515 26.9994 18.0796 27.068C17.816 26.4404 17.6349 25.7795 17.5435 25.1045C17.5541 25.1818 17.5646 25.2609 17.5752 25.3383C17.4855 24.658 17.4855 23.9672 17.5752 23.2852C17.5646 23.3625 17.5541 23.4416 17.5435 23.519C17.6349 22.844 17.8142 22.183 18.0796 21.5555C18.0498 21.6258 18.0199 21.6961 17.9918 21.7647C18.2484 21.1582 18.5824 20.5887 18.9832 20.0666C18.9375 20.1264 18.8918 20.1844 18.8461 20.2441C19.2504 19.7203 19.7214 19.251 20.2435 18.8467C20.1837 18.8924 20.1257 18.9381 20.066 18.9838C20.588 18.583 21.1576 18.249 21.764 17.9924C21.6937 18.0223 21.6234 18.0522 21.5548 18.0803C22.1824 17.8166 22.8433 17.6356 23.5183 17.5441C23.441 17.5547 23.3619 17.5652 23.2845 17.5758C23.9648 17.4861 24.6556 17.4861 25.3377 17.5758C25.2603 17.5652 25.1812 17.5547 25.1039 17.5441C25.7789 17.6356 26.4398 17.8148 27.0673 18.0803C26.997 18.0504 26.9267 18.0205 26.8582 17.9924C27.4646 18.249 28.0341 18.583 28.5562 18.9838C28.4964 18.9381 28.4384 18.8924 28.3787 18.8467C28.9025 19.251 29.3718 19.7221 29.7761 20.2441C29.7304 20.1844 29.6847 20.1264 29.639 20.0666C30.0398 20.5887 30.3738 21.1582 30.6304 21.7647C30.6005 21.6943 30.5707 21.624 30.5425 21.5555C30.8062 22.183 30.9873 22.844 31.0787 23.519C31.0681 23.4416 31.0576 23.3625 31.047 23.2852C31.0927 23.6262 31.1156 23.969 31.1156 24.3117C31.1156 24.5367 31.214 24.774 31.3722 24.934C31.5252 25.0869 31.7748 25.2012 31.9945 25.1906C32.2212 25.1801 32.4568 25.1063 32.6168 24.934C32.775 24.7617 32.8752 24.5508 32.8734 24.3117C32.8716 23.4328 32.7398 22.5398 32.4673 21.7031C32.2037 20.891 31.8257 20.107 31.3283 19.4109C31.0646 19.04 30.7781 18.6832 30.4617 18.3563C30.1435 18.0275 29.7972 17.7375 29.4334 17.4598C28.7548 16.9395 27.9972 16.5475 27.1974 16.2522C26.3748 15.9498 25.4941 15.7916 24.6205 15.7565C23.7345 15.7213 22.8275 15.8303 21.975 16.0729C21.1576 16.3049 20.3595 16.6635 19.6494 17.1311C18.9462 17.5934 18.2976 18.1541 17.7615 18.8027C17.4697 19.1578 17.1937 19.5287 16.9582 19.9225C16.7209 20.318 16.5293 20.7346 16.3535 21.1617C16.0212 21.9721 15.8402 22.8352 15.7734 23.707C15.7048 24.5912 15.7892 25.4982 15.9966 26.3596C16.1988 27.191 16.5363 28.0049 16.981 28.7361C17.417 29.4533 17.9636 30.1213 18.5912 30.6785C19.224 31.2393 19.9324 31.7227 20.7041 32.0707C21.1259 32.2623 21.5601 32.4311 22.0066 32.5559C22.4636 32.6842 22.9312 32.7615 23.4023 32.816C24.2935 32.9215 25.2005 32.8617 26.0777 32.6842C26.9162 32.5137 27.7371 32.199 28.4841 31.7824C29.2171 31.3729 29.9009 30.8455 30.481 30.2373C31.0664 29.6256 31.5726 28.9225 31.9488 28.1649C32.3337 27.3914 32.6168 26.5652 32.7468 25.7109C32.8171 25.2451 32.8664 24.7793 32.8664 24.3082C32.8664 24.0832 32.7679 23.8459 32.6097 23.6859C32.4568 23.533 32.2072 23.4188 31.9875 23.4293C31.7607 23.4398 31.5252 23.5137 31.3652 23.6859C31.2158 23.8617 31.1156 24.0727 31.1156 24.3117Z" fill="#F8B602"/>
<path d="M24.3125 29.7328C24.5375 29.7328 24.7748 29.6344 24.9348 29.4762C25.0877 29.3233 25.202 29.0737 25.1914 28.8539C25.1809 28.6272 25.107 28.3916 24.9348 28.2317C24.7625 28.0735 24.5516 27.975 24.3125 27.975C24.0875 27.975 23.8502 28.0735 23.6902 28.2317C23.5373 28.3846 23.4231 28.6342 23.4336 28.8539C23.4442 29.0807 23.518 29.3162 23.6902 29.4762C23.8625 29.6344 24.0752 29.7328 24.3125 29.7328ZM22.6074 22.3518C22.6074 22.2375 22.6145 22.125 22.6303 22.0108C22.6197 22.0881 22.6092 22.1672 22.5986 22.2446C22.6303 22.0178 22.6901 21.7963 22.7779 21.5854C22.7481 21.6557 22.7182 21.726 22.6901 21.7946C22.7779 21.5889 22.8904 21.3955 23.0258 21.218C22.9801 21.2778 22.9344 21.3358 22.8887 21.3955C23.0258 21.2198 23.1822 21.0633 23.358 20.9262C23.2983 20.9719 23.2402 21.0176 23.1805 21.0633C23.358 20.928 23.5514 20.8155 23.757 20.7276C23.6867 20.7574 23.6164 20.7873 23.5479 20.8155C23.7588 20.7276 23.9803 20.6678 24.207 20.6362C24.1297 20.6467 24.0506 20.6573 23.9733 20.6678C24.2 20.6397 24.4285 20.6397 24.6553 20.6678C24.5779 20.6573 24.4988 20.6467 24.4215 20.6362C24.6483 20.6678 24.8697 20.7258 25.0824 20.8137C25.0121 20.7838 24.9418 20.7539 24.8733 20.7258C25.0789 20.8137 25.2723 20.9262 25.4498 21.0616C25.39 21.0158 25.332 20.9701 25.2723 20.9244C25.4481 21.0616 25.6045 21.218 25.7416 21.3938C25.6959 21.334 25.6502 21.276 25.6045 21.2162C25.7399 21.3938 25.8523 21.5871 25.9402 21.7928C25.9104 21.7225 25.8805 21.6522 25.8523 21.5836C25.9402 21.7963 26 22.016 26.0299 22.2446C26.0193 22.1672 26.0088 22.0881 25.9982 22.0108C26.0264 22.2375 26.0264 22.466 25.9982 22.691C26.0088 22.6137 26.0193 22.5346 26.0299 22.4573C25.9982 22.684 25.9385 22.9055 25.8506 23.1182C25.8805 23.0479 25.9104 22.9776 25.9385 22.909C25.8506 23.1147 25.7381 23.308 25.601 23.4873C25.6467 23.4276 25.6924 23.3696 25.7381 23.3098C25.601 23.4856 25.4445 23.642 25.2688 23.7791C25.3285 23.7334 25.3865 23.6877 25.4463 23.642C25.2705 23.7756 25.0807 23.8846 24.8803 23.9742C24.6236 24.0885 24.3828 24.2678 24.1842 24.4647C23.7236 24.9235 23.467 25.5405 23.4371 26.1873C23.4319 26.3157 23.4354 26.444 23.4354 26.5723C23.4354 26.7973 23.5338 27.0346 23.692 27.1946C23.8449 27.3475 24.0945 27.4617 24.3143 27.4512C24.541 27.4407 24.7766 27.3668 24.9365 27.1946C25.0947 27.0223 25.1932 26.8114 25.1932 26.5723C25.1932 26.393 25.1861 26.2137 25.209 26.0362C25.1984 26.1135 25.1879 26.1926 25.1774 26.27C25.1984 26.1293 25.2354 25.994 25.2899 25.8621C25.26 25.9325 25.2301 26.0028 25.202 26.0713C25.26 25.9342 25.3356 25.8076 25.427 25.6881C25.3813 25.7479 25.3356 25.8059 25.2899 25.8657C25.3777 25.7549 25.4779 25.6565 25.5887 25.5686C25.5289 25.6143 25.4709 25.66 25.4111 25.7057C25.5816 25.5756 25.7732 25.5 25.9613 25.4016C26.1951 25.2785 26.4096 25.1168 26.61 24.9463C26.9633 24.6457 27.2621 24.2467 27.4484 23.8213C27.5574 23.5717 27.6559 23.3239 27.7051 23.0549C27.7543 22.7842 27.7895 22.5065 27.7754 22.2305C27.7508 21.6961 27.6154 21.1934 27.3693 20.7205C26.9316 19.8803 26.1055 19.2369 25.1914 19.0014C24.6623 18.866 24.1297 18.8643 23.5953 18.9662C23.3404 19.0137 23.1067 19.1086 22.8676 19.2106C22.6901 19.2862 22.5213 19.3793 22.3649 19.4918C21.9184 19.8117 21.5299 20.209 21.2697 20.6994C20.999 21.2092 20.8514 21.7735 20.8496 22.3535C20.8479 22.5785 20.9481 22.8158 21.1063 22.9758C21.2592 23.1287 21.5088 23.243 21.7285 23.2325C22.2067 23.2096 22.6057 22.8457 22.6074 22.3518Z" fill="#F8B602"/>
</svg>
