<svg width="32" height="32" viewBox="0 0 32 32" fill="none" xmlns="http://www.w3.org/2000/svg">
<path d="M8.5 14.5C10.1569 14.5 11.5 13.1569 11.5 11.5C11.5 9.84315 10.1569 8.5 8.5 8.5C6.84315 8.5 5.5 9.84315 5.5 11.5C5.5 13.1569 6.84315 14.5 8.5 14.5Z" fill="#2E2E2E"/>
<path d="M23.5 14.5C25.1569 14.5 26.5 13.1569 26.5 11.5C26.5 9.84315 25.1569 8.5 23.5 8.5C21.8431 8.5 20.5 9.84315 20.5 11.5C20.5 13.1569 21.8431 14.5 23.5 14.5Z" fill="#2E2E2E"/>
<path d="M16 14.5C17.6569 14.5 19 13.1569 19 11.5C19 9.84315 17.6569 8.5 16 8.5C14.3431 8.5 13 9.84315 13 11.5C13 13.1569 14.3431 14.5 16 14.5Z" fill="#2E2E2E"/>
<path d="M8.5 23.5C10.1569 23.5 11.5 22.1569 11.5 20.5C11.5 18.8431 10.1569 17.5 8.5 17.5C6.84315 17.5 5.5 18.8431 5.5 20.5C5.5 22.1569 6.84315 23.5 8.5 23.5Z" fill="#2E2E2E"/>
<path d="M23.5 23.5C25.1569 23.5 26.5 22.1569 26.5 20.5C26.5 18.8431 25.1569 17.5 23.5 17.5C21.8431 17.5 20.5 18.8431 20.5 20.5C20.5 22.1569 21.8431 23.5 23.5 23.5Z" fill="#2E2E2E"/>
<path d="M16 23.5C17.6569 23.5 19 22.1569 19 20.5C19 18.8431 17.6569 17.5 16 17.5C14.3431 17.5 13 18.8431 13 20.5C13 22.1569 14.3431 23.5 16 23.5Z" fill="#2E2E2E"/>
</svg>
