<svg width="84" height="34" viewBox="0 0 84 34" fill="none" xmlns="http://www.w3.org/2000/svg">
<path d="M42.0003 27.2966C41.8937 27.2961 41.7883 27.273 41.6913 27.2288C37.5308 25.3822 34.7571 21.7794 33.4004 16.5109L32.202 11.6495C32.1637 11.4977 32.1737 11.3378 32.2304 11.1919C32.2871 11.0461 32.3878 10.9215 32.5186 10.8355L33.0763 10.4661C35.7646 8.67545 38.6795 7.25095 41.7441 6.23027C41.8982 6.17911 42.0648 6.17911 42.2189 6.23027C45.2839 7.25331 48.1988 8.68035 50.8866 10.4737L51.4444 10.843C51.5805 10.9233 51.688 11.0444 51.7516 11.1891C51.8151 11.3338 51.8316 11.4949 51.7986 11.6495L50.5851 16.5109C49.2661 21.787 46.4849 25.3822 42.2943 27.2288C42.2019 27.271 42.1019 27.294 42.0003 27.2966ZM33.815 11.8002L34.9003 16.1416C36.0686 20.8071 38.4579 24.0255 42.0003 25.7138C45.5428 24.0255 47.9321 20.8071 49.1003 16.1492L50.1857 11.8078L50.0726 11.7324C47.5655 10.06 44.8521 8.71976 42.0003 7.74524C39.1514 8.71784 36.4406 10.0555 33.9356 11.7249L33.815 11.8002Z" fill="#2E2E2E"/>
<path d="M42.4378 6.33582C42.3412 6.26578 42.2293 6.21969 42.1114 6.20135C41.9934 6.183 41.8728 6.19292 41.7595 6.2303C38.6972 7.25396 35.7848 8.68098 33.0993 10.4737L32.5416 10.843C32.4081 10.9255 32.3038 11.0475 32.243 11.192C32.1822 11.3366 32.168 11.4965 32.2024 11.6495L33.4159 16.511C34.7349 21.787 37.5161 25.3822 41.7067 27.2288C41.8207 27.2771 41.9448 27.2966 42.0681 27.2855C42.1914 27.2744 42.31 27.2332 42.4136 27.1654C42.5171 27.0976 42.6024 27.0053 42.6618 26.8968C42.7213 26.7882 42.7531 26.6667 42.7544 26.5429V6.94633C42.7538 6.82675 42.7248 6.70902 42.6698 6.60287C42.6148 6.49671 42.5352 6.40517 42.4378 6.33582V6.33582Z" fill="#2E2E2E"/>
</svg>
