<svg width="32" height="32" viewBox="0 0 32 32" fill="none" xmlns="http://www.w3.org/2000/svg">
<path d="M16 26.5C15.8938 26.4995 15.789 26.4765 15.6925 26.4325C11.5525 24.595 8.79245 21.01 7.44245 15.7675L6.24995 10.93C6.21186 10.779 6.22172 10.6199 6.27817 10.4747C6.33462 10.3296 6.43485 10.2056 6.56495 10.12L7.11995 9.7525C9.79496 7.97062 12.6955 6.55315 15.745 5.5375C15.8983 5.48659 16.0641 5.48659 16.2175 5.5375C19.2673 6.5555 22.1678 7.97551 24.8425 9.76L25.3975 10.1275C25.5329 10.2074 25.6399 10.3279 25.7031 10.4719C25.7664 10.6159 25.7828 10.7762 25.75 10.93L24.5425 15.7675C23.23 21.0175 20.4625 24.595 16.2925 26.4325C16.2005 26.4745 16.101 26.4974 16 26.5ZM7.85495 11.08L8.93495 15.4C10.0975 20.0425 12.475 23.245 16 24.925C19.525 23.245 21.9025 20.0425 23.065 15.4075L24.145 11.0875L24.0325 11.0125C21.5377 9.34834 18.8377 8.01472 16 7.045C13.1651 8.0128 10.4677 9.34389 7.97495 11.005L7.85495 11.08Z" fill="#2E2E2E"/>
<path d="M16.435 5.6425C16.3388 5.5728 16.2275 5.52694 16.1102 5.50869C15.9928 5.49043 15.8728 5.50031 15.76 5.5375C12.7128 6.55611 9.81477 7.9761 7.14251 9.76L6.58751 10.1275C6.45476 10.2095 6.3509 10.3309 6.2904 10.4748C6.22991 10.6186 6.21579 10.7777 6.25001 10.93L7.45751 15.7675C8.77001 21.0175 11.5375 24.595 15.7075 26.4325C15.8209 26.4805 15.9444 26.4999 16.0671 26.4889C16.1897 26.4779 16.3078 26.4369 16.4109 26.3694C16.5139 26.3019 16.5987 26.2101 16.6579 26.1021C16.717 25.9941 16.7487 25.8732 16.75 25.75V6.25C16.7495 6.13101 16.7206 6.01386 16.6658 5.90823C16.6111 5.8026 16.5319 5.71151 16.435 5.6425V5.6425Z" fill="#2E2E2E"/>
</svg>
