<svg width="48" height="48" viewBox="0 0 48 48" fill="none" xmlns="http://www.w3.org/2000/svg">
<rect width="48" height="48" rx="16" fill="#2D9CDB"/>
<path d="M32.4399 26.37C32.2995 26.2831 32.1848 26.1605 32.1074 26.0146C32.0301 25.8687 31.993 25.7049 31.9999 25.54V22.29C32.0061 20.6592 31.5364 19.062 30.6482 17.6943C29.7601 16.3266 28.4922 15.2477 26.9999 14.59C26.8908 13.8818 26.5319 13.2362 25.988 12.7697C25.4442 12.3033 24.7514 12.0469 24.0349 12.0469C23.3185 12.0469 22.6257 12.3033 22.0818 12.7697C21.538 13.2362 21.1791 13.8818 21.0699 14.59C20.0978 14.9772 19.211 15.5513 18.4599 16.28C17.6847 17.0177 17.0671 17.905 16.6442 18.8881C16.2214 19.8712 16.0023 20.9298 15.9999 22V25.54C16.0069 25.7049 15.9698 25.8687 15.8924 26.0146C15.8151 26.1605 15.7003 26.2831 15.5599 26.37C15.0053 26.6631 14.5565 27.1227 14.2767 27.6841C13.9968 28.2456 13.9001 28.8806 13.9999 29.5C14.1392 30.217 14.528 30.8616 15.0973 31.3193C15.6666 31.7769 16.3797 32.0181 17.1099 32H19.9999C19.9999 33.0608 20.4214 34.0782 21.1715 34.8284C21.9217 35.5785 22.9391 36 23.9999 36C25.0608 36 26.0782 35.5785 26.8284 34.8284C27.5785 34.0782 27.9999 33.0608 27.9999 32H30.8899C31.6202 32.0181 32.3332 31.7769 32.9026 31.3193C33.4719 30.8616 33.8607 30.217 33.9999 29.5C34.0998 28.8806 34.003 28.2456 33.7232 27.6841C33.4434 27.1227 32.9946 26.6631 32.4399 26.37V26.37ZM23.9999 34C23.4695 34 22.9608 33.7892 22.5857 33.4142C22.2107 33.0391 21.9999 32.5304 21.9999 32H25.9999C25.9999 32.5304 25.7892 33.0391 25.4142 33.4142C25.0391 33.7892 24.5304 34 23.9999 34V34ZM30.8899 30H17.1099C16.8587 30.0123 16.6109 29.9374 16.4086 29.788C16.2063 29.6385 16.0619 29.4237 15.9999 29.18C15.962 28.9721 15.991 28.7575 16.0826 28.567C16.1742 28.3766 16.3238 28.2201 16.5099 28.12C16.9663 27.8624 17.3453 27.4873 17.6073 27.0335C17.8694 26.5797 18.005 26.0639 17.9999 25.54V22C17.9992 21.1963 18.1599 20.4006 18.4725 19.6603C18.7852 18.9199 19.2434 18.2499 19.8199 17.69C20.2935 17.2266 20.8453 16.8508 21.4499 16.58C22.2453 16.1967 23.1171 15.9984 23.9999 16H24.1899C25.0073 16.0284 25.8089 16.2331 26.5399 16.6C27.5855 17.1369 28.462 17.9526 29.0727 18.9568C29.6834 19.961 30.0043 21.1146 29.9999 22.29V25.54C29.9939 26.063 30.128 26.578 30.3882 27.0317C30.6485 27.4854 31.0254 27.8612 31.4799 28.12C31.666 28.218 31.8165 28.3723 31.9098 28.5608C32.0032 28.7493 32.0347 28.9625 31.9999 29.17C31.9399 29.4156 31.7963 29.6327 31.5938 29.7841C31.3914 29.9355 31.1425 30.0118 30.8899 30V30Z" fill="white"/>
</svg>
