<svg width="84" height="34" viewBox="0 0 84 34" fill="none" xmlns="http://www.w3.org/2000/svg">
<path d="M34.4628 15.2372C36.1279 15.2372 37.4777 13.8874 37.4777 12.2224C37.4777 10.5573 36.1279 9.2075 34.4628 9.2075C32.7978 9.2075 31.448 10.5573 31.448 12.2224C31.448 13.8874 32.7978 15.2372 34.4628 15.2372Z" fill="#2E2E2E"/>
<path d="M49.5372 15.2372C51.2022 15.2372 52.552 13.8874 52.552 12.2224C52.552 10.5573 51.2022 9.2075 49.5372 9.2075C47.8721 9.2075 46.5223 10.5573 46.5223 12.2224C46.5223 13.8874 47.8721 15.2372 49.5372 15.2372Z" fill="#2E2E2E"/>
<path d="M42 15.2372C43.6651 15.2372 45.0149 13.8874 45.0149 12.2224C45.0149 10.5573 43.6651 9.2075 42 9.2075C40.3349 9.2075 38.9851 10.5573 38.9851 12.2224C38.9851 13.8874 40.3349 15.2372 42 15.2372Z" fill="#2E2E2E"/>
<path d="M34.4628 24.2818C36.1279 24.2818 37.4777 22.932 37.4777 21.2669C37.4777 19.6019 36.1279 18.2521 34.4628 18.2521C32.7978 18.2521 31.448 19.6019 31.448 21.2669C31.448 22.932 32.7978 24.2818 34.4628 24.2818Z" fill="#2E2E2E"/>
<path d="M49.5372 24.2818C51.2022 24.2818 52.552 22.932 52.552 21.2669C52.552 19.6019 51.2022 18.2521 49.5372 18.2521C47.8721 18.2521 46.5223 19.6019 46.5223 21.2669C46.5223 22.932 47.8721 24.2818 49.5372 24.2818Z" fill="#2E2E2E"/>
<path d="M42 24.2818C43.6651 24.2818 45.0149 22.932 45.0149 21.2669C45.0149 19.6019 43.6651 18.2521 42 18.2521C40.3349 18.2521 38.9851 19.6019 38.9851 21.2669C38.9851 22.932 40.3349 24.2818 42 24.2818Z" fill="#2E2E2E"/>
</svg>
