<svg width="24" height="24" viewBox="0 0 24 24" fill="none" xmlns="http://www.w3.org/2000/svg">
<path d="M12.0014 9.35986C11.6546 9.35986 11.3111 9.42818 10.9907 9.56091C10.6702 9.69365 10.3791 9.88819 10.1338 10.1335C9.88854 10.3787 9.69399 10.6699 9.56125 10.9903C9.42852 11.3108 9.3602 11.6542 9.3602 12.0011C9.3602 12.3479 9.42852 12.6914 9.56125 13.0118C9.69399 13.3323 9.88854 13.6234 10.1338 13.8687C10.3791 14.1139 10.6702 14.3085 10.9907 14.4412C11.3111 14.5739 11.6546 14.6423 12.0014 14.6423C12.7019 14.6421 13.3736 14.3637 13.8688 13.8682C14.364 13.3728 14.6422 12.701 14.642 12.0005C14.6418 11.3 14.3634 10.6282 13.868 10.133C13.3726 9.63782 12.7007 9.3597 12.0002 9.35986H12.0014ZM3.6014 9.35986C3.25456 9.35986 2.91111 9.42818 2.59066 9.56091C2.27022 9.69365 1.97905 9.88819 1.73379 10.1335C1.48854 10.3787 1.29399 10.6699 1.16125 10.9903C1.02852 11.3108 0.960205 11.6542 0.960205 12.0011C0.960205 12.3479 1.02852 12.6914 1.16125 13.0118C1.29399 13.3323 1.48854 13.6234 1.73379 13.8687C1.97905 14.1139 2.27022 14.3085 2.59066 14.4412C2.91111 14.5739 3.25456 14.6423 3.6014 14.6423C4.30189 14.6421 4.97363 14.3637 5.46884 13.8682C5.96405 13.3728 6.24216 12.701 6.242 12.0005C6.24185 11.3 5.96342 10.6282 5.46799 10.133C4.97256 9.63782 4.30069 9.3597 3.6002 9.35986H3.6014ZM20.4014 9.35986C20.0546 9.35986 19.7111 9.42818 19.3907 9.56091C19.0702 9.69365 18.7791 9.88819 18.5338 10.1335C18.2885 10.3787 18.094 10.6699 17.9613 10.9903C17.8285 11.3108 17.7602 11.6542 17.7602 12.0011C17.7602 12.3479 17.8285 12.6914 17.9613 13.0118C18.094 13.3323 18.2885 13.6234 18.5338 13.8687C18.7791 14.1139 19.0702 14.3085 19.3907 14.4412C19.7111 14.5739 20.0546 14.6423 20.4014 14.6423C21.1019 14.6421 21.7736 14.3637 22.2688 13.8682C22.764 13.3728 23.0422 12.701 23.042 12.0005C23.0418 11.3 22.7634 10.6282 22.268 10.133C21.7726 9.63782 21.1007 9.3597 20.4002 9.35986H20.4014Z" fill="#A098AE"/>
</svg>
