<svg width="60" height="60" viewBox="0 0 60 60" fill="none" xmlns="http://www.w3.org/2000/svg">
<rect width="60" height="60" rx="16" fill="#F8B602"/>
<g clip-path="url(#clip0_2_1177)">
<path d="M36.6344 28.6468H31.5375V23.3656C31.5375 22.6093 30.925 21.9968 30.1687 21.9968C29.4125 21.9968 28.8 22.6093 28.8 23.3656V28.6468H23.3625C22.6125 28.6468 22 29.2593 22 30.0156C22 30.7718 22.6125 31.3843 23.3687 31.3843H28.8063V36.6343C28.8063 37.3906 29.4188 38.0031 30.175 38.0031C30.9313 38.0031 31.5437 37.3906 31.5437 36.6343V31.3843H36.6406C37.3969 31.3843 38.0094 30.7718 38.0094 30.0156C38 29.2593 37.3906 28.6468 36.6344 28.6468Z" fill="white"/>
</g>
<defs>
<clipPath id="clip0_2_1177">
<rect width="16" height="16" fill="white" transform="translate(22 22)"/>
</clipPath>
</defs>
</svg>
