<svg width="40" height="40" viewBox="0 0 40 40" fill="none" xmlns="http://www.w3.org/2000/svg">
<path d="M8.33325 30.8333C8.33325 33.6966 14.8133 34.9999 20.8333 34.9999C26.8533 34.9999 33.3333 33.6966 33.3333 30.8333C33.3333 28.5599 29.3983 27.5333 26.5633 27.0899L28.4999 25.1666C30.0151 23.6516 31.0469 21.7212 31.465 19.6198C31.8831 17.5183 31.6686 15.34 30.8487 13.3604C30.0288 11.3808 28.6402 9.68884 26.8587 8.49842C25.0771 7.30799 22.9826 6.67261 20.8399 6.67261C18.6972 6.67261 16.6027 7.30799 14.8211 8.49842C13.0396 9.68884 11.6511 11.3808 10.8311 13.3604C10.0112 15.34 9.79673 17.5183 10.2148 19.6198C10.6329 21.7212 11.6648 23.6516 13.1799 25.1666L15.1099 27.0966C12.2683 27.5333 8.33325 28.5599 8.33325 30.8333ZM22.4999 13.3333C22.4999 13.1785 22.543 13.0268 22.6244 12.8951C22.7057 12.7635 22.8222 12.6571 22.9606 12.5879C23.099 12.5187 23.254 12.4894 23.4081 12.5033C23.5622 12.5172 23.7094 12.5737 23.8333 12.6666C24.8652 13.4408 25.7221 14.4241 26.3479 15.5523C26.9737 16.6804 27.3543 17.9279 27.4649 19.2133C27.5015 19.6081 27.3951 20.003 27.1651 20.326C26.9351 20.649 26.5967 20.8787 26.2116 20.9733L24.1666 21.4849V23.3333C24.1666 23.5543 24.0788 23.7662 23.9225 23.9225C23.7662 24.0788 23.5543 24.1666 23.3333 24.1666C23.1122 24.1666 22.9003 24.0788 22.744 23.9225C22.5877 23.7662 22.4999 23.5543 22.4999 23.3333V13.3333ZM14.9999 14.9999V13.3333C14.9999 13.1122 15.0877 12.9003 15.244 12.744C15.4003 12.5877 15.6122 12.4999 15.8333 12.4999C16.0543 12.4999 16.2662 12.5877 16.4225 12.744C16.5788 12.9003 16.6666 13.1122 16.6666 13.3333V14.9999C16.6699 15.2873 16.7486 15.5688 16.8949 15.8163C17.0411 16.0637 17.2497 16.2684 17.4999 16.4099V13.3333C17.4999 13.1122 17.5877 12.9003 17.744 12.744C17.9003 12.5877 18.1122 12.4999 18.3333 12.4999C18.5543 12.4999 18.7662 12.5877 18.9225 12.744C19.0788 12.9003 19.1666 13.1122 19.1666 13.3333V16.4099C19.4168 16.2684 19.6254 16.0637 19.7716 15.8163C19.9179 15.5688 19.9966 15.2873 19.9999 14.9999V13.3333C19.9999 13.1122 20.0877 12.9003 20.244 12.744C20.4003 12.5877 20.6122 12.4999 20.8333 12.4999C21.0543 12.4999 21.2662 12.5877 21.4225 12.744C21.5788 12.9003 21.6666 13.1122 21.6666 13.3333V14.9999C21.6638 15.7368 21.417 16.4519 20.9647 17.0336C20.5124 17.6153 19.88 18.0307 19.1666 18.2149V23.3333C19.1666 23.5543 19.0788 23.7662 18.9225 23.9225C18.7662 24.0788 18.5543 24.1666 18.3333 24.1666C18.1122 24.1666 17.9003 24.0788 17.744 23.9225C17.5877 23.7662 17.4999 23.5543 17.4999 23.3333V18.2149C16.7865 18.0307 16.1542 17.6153 15.7018 17.0336C15.2495 16.4519 15.0027 15.7368 14.9999 14.9999ZM16.5899 28.5766L19.0649 31.0533C19.2971 31.2856 19.5728 31.4699 19.8762 31.5956C20.1796 31.7213 20.5048 31.7861 20.8333 31.7861C21.1617 31.7861 21.4869 31.7213 21.7903 31.5956C22.0937 31.4699 22.3694 31.2856 22.6016 31.0533L25.0766 28.5766C29.6566 29.1066 31.6666 30.3133 31.6666 30.8333C31.6666 31.5799 27.9816 33.3333 20.8333 33.3333C13.6849 33.3333 9.99992 31.5799 9.99992 30.8333C9.99992 30.3133 12.0099 29.1066 16.5899 28.5766Z" fill="#A098AE"/>
</svg>
