<svg width="84" height="34" viewBox="0 0 84 34" fill="none" xmlns="http://www.w3.org/2000/svg">
<path d="M42 18.2521C44.4976 18.2521 46.5223 16.2274 46.5223 13.7298C46.5223 11.2322 44.4976 9.2075 42 9.2075C39.5024 9.2075 37.4777 11.2322 37.4777 13.7298C37.4777 16.2274 39.5024 18.2521 42 18.2521Z" fill="#2E2E2E"/>
<path d="M46.5223 24.2818C46.3726 24.2827 46.226 24.2389 46.1012 24.1562C45.9765 24.0734 45.8792 23.9554 45.8218 23.8171C45.7644 23.6789 45.7494 23.5266 45.7789 23.3798C45.8083 23.2331 45.8808 23.0984 45.9871 22.9929L50.5094 18.4707C50.767 18.1997 50.9396 17.8593 51.0059 17.4914C51.0723 17.1236 51.0295 16.7443 50.8828 16.4005C50.7361 16.0566 50.492 15.7633 50.1806 15.5566C49.8691 15.3498 49.5039 15.2388 49.1301 15.2372H45.6932C45.4933 15.2372 45.3016 15.1578 45.1602 15.0165C45.0189 14.8751 44.9395 14.6834 44.9395 14.4835C44.9395 14.2836 45.0189 14.0919 45.1602 13.9505C45.3016 13.8092 45.4933 13.7298 45.6932 13.7298H49.1301C49.8068 13.7299 50.4684 13.9306 51.031 14.3066C51.5937 14.6826 52.0322 15.217 52.2911 15.8422C52.5501 16.4674 52.6179 17.1554 52.4859 17.8191C52.3539 18.4828 52.028 19.0925 51.5496 19.5711L47.0273 24.0934C46.8879 24.2163 46.7081 24.2834 46.5223 24.2818ZM37.4777 24.2818C37.3785 24.2824 37.2802 24.2634 37.1883 24.2259C37.0965 24.1883 37.013 24.1331 36.9425 24.0632L32.4203 19.5409C31.9502 19.059 31.6328 18.4492 31.5076 17.7878C31.3825 17.1264 31.4552 16.4428 31.7167 15.8225C31.9782 15.2022 32.4168 14.6728 32.9776 14.3006C33.5385 13.9283 34.1967 13.7298 34.8698 13.7298H38.3068C38.5067 13.7298 38.6984 13.8092 38.8397 13.9505C38.9811 14.0919 39.0605 14.2836 39.0605 14.4835C39.0605 14.6834 38.9811 14.8751 38.8397 15.0165C38.6984 15.1578 38.5067 15.2372 38.3068 15.2372H34.8698C34.4925 15.239 34.1241 15.3523 33.811 15.5627C33.4978 15.7732 33.2538 16.0715 33.1097 16.4202C32.9655 16.7689 32.9277 17.1525 33.0008 17.5226C33.0739 17.8928 33.2548 18.2331 33.5207 18.5008L38.043 23.0231C38.141 23.1317 38.2053 23.2664 38.228 23.411C38.2508 23.5555 38.231 23.7035 38.171 23.8369C38.1111 23.9703 38.0136 24.0835 37.8905 24.1625C37.7674 24.2415 37.624 24.2829 37.4777 24.2818Z" fill="#2E2E2E"/>
</svg>
