<svg width="32" height="32" viewBox="0 0 32 32" fill="none" xmlns="http://www.w3.org/2000/svg">
<circle cx="16" cy="16" r="16" fill="#F8B602"/>
<path d="M24.4599 13.6301C24.3195 12.169 23.8031 10.7691 22.9611 9.56688C22.119 8.36462 20.98 7.4009 19.6549 6.76956C18.3298 6.13822 16.8638 5.86079 15.3996 5.96427C13.9354 6.06775 12.523 6.54863 11.2999 7.36006C10.2491 8.06271 9.36693 8.98936 8.71682 10.0735C8.06672 11.1575 7.66478 12.3722 7.53988 13.6301C7.41736 14.8797 7.57455 16.141 8.00005 17.3223C8.42555 18.5037 9.10868 19.5755 9.99988 20.4601L15.2999 25.7701C15.3928 25.8638 15.5034 25.9382 15.6253 25.989C15.7472 26.0397 15.8779 26.0659 16.0099 26.0659C16.1419 26.0659 16.2726 26.0397 16.3945 25.989C16.5163 25.9382 16.6269 25.8638 16.7199 25.7701L21.9999 20.4601C22.8911 19.5755 23.5742 18.5037 23.9997 17.3223C24.4252 16.141 24.5824 14.8797 24.4599 13.6301V13.6301ZM20.5999 19.0501L15.9999 23.6501L11.3999 19.0501C10.722 18.3721 10.2027 17.5524 9.87935 16.6498C9.55601 15.7473 9.43667 14.7843 9.52988 13.8301C9.6237 12.8612 9.93164 11.9252 10.4315 11.0899C10.9313 10.2546 11.6104 9.54077 12.4199 9.00006C13.4808 8.2953 14.7262 7.91936 15.9999 7.91936C17.2736 7.91936 18.5189 8.2953 19.5799 9.00006C20.3869 9.53868 21.0646 10.2493 21.5642 11.081C22.0639 11.9127 22.3732 12.8447 22.4699 13.8101C22.5661 14.7675 22.4483 15.7343 22.1249 16.6406C21.8014 17.5469 21.2805 18.3699 20.5999 19.0501V19.0501ZM15.9999 10.0001C15.1099 10.0001 14.2398 10.264 13.4998 10.7585C12.7598 11.2529 12.183 11.9557 11.8424 12.778C11.5018 13.6003 11.4127 14.5051 11.5863 15.378C11.76 16.2509 12.1886 17.0527 12.8179 17.682C13.4472 18.3114 14.2491 18.74 15.122 18.9136C15.9949 19.0872 16.8997 18.9981 17.722 18.6575C18.5442 18.3169 19.247 17.7402 19.7415 17.0001C20.236 16.2601 20.4999 15.3901 20.4999 14.5001C20.4972 13.3074 20.0223 12.1643 19.1789 11.321C18.3356 10.4777 17.1925 10.0027 15.9999 10.0001V10.0001ZM15.9999 17.0001C15.5054 17.0001 15.0221 16.8534 14.611 16.5787C14.1998 16.304 13.8794 15.9136 13.6902 15.4568C13.501 15 13.4515 14.4973 13.5479 14.0123C13.6444 13.5274 13.8825 13.0819 14.2321 12.7323C14.5817 12.3827 15.0272 12.1446 15.5122 12.0481C15.9971 11.9516 16.4998 12.0011 16.9566 12.1904C17.4134 12.3796 17.8039 12.7 18.0786 13.1111C18.3533 13.5223 18.4999 14.0056 18.4999 14.5001C18.4999 15.1631 18.2365 15.799 17.7676 16.2678C17.2988 16.7367 16.6629 17.0001 15.9999 17.0001V17.0001Z" fill="white"/>
</svg>
