<svg width="48" height="48" viewBox="0 0 48 48" fill="none" xmlns="http://www.w3.org/2000/svg">
<rect width="48" height="48" rx="16" fill="#F8B602"/>
<path d="M35.0346 28.0706L33.9999 28.5879L32.9653 28.0706C32.8725 28.0241 32.7703 27.9999 32.6666 27.9999C32.5629 27.9999 32.4606 28.0241 32.3679 28.0706L31.3333 28.5879L30.6666 28.2546V13.9999C30.6666 13.8862 30.6375 13.7744 30.5821 13.6751C30.5267 13.5759 30.4469 13.4924 30.3501 13.4327C30.2534 13.3729 30.143 13.3389 30.0294 13.3339C29.9159 13.3289 29.8029 13.353 29.7012 13.4039L28.6666 13.9212L27.6319 13.4039C27.5392 13.3574 27.4369 13.3333 27.3333 13.3333C27.2296 13.3333 27.1273 13.3574 27.0346 13.4039L25.9999 13.9212L24.9653 13.4039C24.8725 13.3574 24.7703 13.3333 24.6666 13.3333C24.5629 13.3333 24.4606 13.3574 24.3679 13.4039L23.3333 13.9212L22.2986 13.4039C22.2059 13.3574 22.1036 13.3333 21.9999 13.3333C21.8962 13.3333 21.794 13.3574 21.7013 13.4039L20.6666 13.9212L19.6319 13.4039C19.5392 13.3574 19.4369 13.3333 19.3333 13.3333C19.2296 13.3333 19.1273 13.3574 19.0346 13.4039L17.9999 13.9212L16.9653 13.4039C16.8725 13.3574 16.7703 13.3333 16.6666 13.3333C16.5629 13.3333 16.4606 13.3574 16.3679 13.4039L15.3333 13.9212L14.2986 13.4039C14.1969 13.353 14.084 13.3289 13.9704 13.3339C13.8568 13.3389 13.7464 13.3729 13.6497 13.4327C13.553 13.4924 13.4731 13.5759 13.4177 13.6751C13.3623 13.7744 13.3333 13.8862 13.3333 13.9999V32.6666C13.3333 33.5506 13.6844 34.3985 14.3096 35.0236C14.9347 35.6487 15.7825 35.9999 16.6666 35.9999H32.6666C33.5506 35.9999 34.3985 35.6487 35.0236 35.0236C35.6487 34.3985 35.9999 33.5506 35.9999 32.6666V28.6666C35.9999 28.5529 35.9708 28.4411 35.9155 28.3418C35.8601 28.2425 35.7802 28.159 35.6835 28.0993C35.5867 28.0396 35.4763 28.0056 35.3628 28.0006C35.2492 27.9955 35.1362 28.0196 35.0346 28.0706V28.0706ZM21.9999 21.3332C21.9977 21.9227 21.8002 22.4948 21.4384 22.9602C21.0765 23.4255 20.5707 23.7579 19.9999 23.9052V29.9999C19.9999 30.1767 19.9297 30.3463 19.8047 30.4713C19.6796 30.5963 19.5101 30.6666 19.3333 30.6666C19.1564 30.6666 18.9869 30.5963 18.8618 30.4713C18.7368 30.3463 18.6666 30.1767 18.6666 29.9999V23.9052C18.0958 23.7579 17.59 23.4255 17.2281 22.9602C16.8663 22.4948 16.6688 21.9227 16.6666 21.3332V19.3332C16.6666 19.1564 16.7368 18.9868 16.8618 18.8618C16.9869 18.7368 17.1564 18.6666 17.3333 18.6666C17.5101 18.6666 17.6796 18.7368 17.8047 18.8618C17.9297 18.9868 17.9999 19.1564 17.9999 19.3332V21.3332C18.0026 21.5632 18.0655 21.7884 18.1825 21.9863C18.2995 22.1843 18.4664 22.348 18.6666 22.4612V19.3332C18.6666 19.1564 18.7368 18.9868 18.8618 18.8618C18.9869 18.7368 19.1564 18.6666 19.3333 18.6666C19.5101 18.6666 19.6796 18.7368 19.8047 18.8618C19.9297 18.9868 19.9999 19.1564 19.9999 19.3332V22.4612C20.2001 22.348 20.367 22.1843 20.484 21.9863C20.601 21.7884 20.6639 21.5632 20.6666 21.3332V19.3332C20.6666 19.1564 20.7368 18.9868 20.8618 18.8618C20.9869 18.7368 21.1564 18.6666 21.3333 18.6666C21.5101 18.6666 21.6796 18.7368 21.8047 18.8618C21.9297 18.9868 21.9999 19.1564 21.9999 19.3332V21.3332ZM26.6066 26.7026L24.6666 27.1879V29.9999C24.6666 30.1767 24.5963 30.3463 24.4713 30.4713C24.3463 30.5963 24.1767 30.6666 23.9999 30.6666C23.8231 30.6666 23.6535 30.5963 23.5285 30.4713C23.4035 30.3463 23.3333 30.1767 23.3333 29.9999V19.3332C23.333 19.2012 23.372 19.0721 23.4452 18.9622C23.5185 18.8524 23.6227 18.7667 23.7446 18.7162C23.8666 18.6656 24.0008 18.6524 24.1303 18.6782C24.2598 18.7041 24.3787 18.7678 24.4719 18.8612C25.382 19.7665 26.1035 20.8433 26.5947 22.0293C27.0858 23.2153 27.3369 24.4869 27.3333 25.7706C27.3337 25.9848 27.2623 26.1929 27.1306 26.3619C26.9989 26.5308 26.8144 26.6507 26.6066 26.7026V26.7026ZM34.6666 32.6666C34.6666 33.197 34.4559 33.7057 34.0808 34.0808C33.7057 34.4558 33.197 34.6666 32.6666 34.6666C32.1362 34.6666 31.6274 34.4558 31.2524 34.0808C30.8773 33.7057 30.6666 33.197 30.6666 32.6666V29.7452L31.0346 29.9292C31.1273 29.9757 31.2296 29.9999 31.3333 29.9999C31.4369 29.9999 31.5392 29.9757 31.6319 29.9292L32.6666 29.4119L33.7012 29.9292C33.794 29.9757 33.8962 29.9999 33.9999 29.9999C34.1036 29.9999 34.2059 29.9757 34.2986 29.9292L34.6666 29.7452V32.6666Z" fill="white"/>
</svg>
