<svg width="40" height="40" viewBox="0 0 40 40" fill="none" xmlns="http://www.w3.org/2000/svg">
<path d="M6.66675 29.1667C6.66675 29.8297 6.93014 30.4656 7.39898 30.9344C7.86782 31.4033 8.50371 31.6667 9.16675 31.6667H10.0851C10.2763 32.6086 10.7874 33.4554 11.5315 34.0636C12.2757 34.6719 13.2073 35.0042 14.1684 35.0042C15.1295 35.0042 16.0611 34.6719 16.8053 34.0636C17.5495 33.4554 18.0605 32.6086 18.2517 31.6667H23.5001C24.631 31.6588 25.735 31.3211 26.6767 30.695C26.6767 30.7417 26.6634 30.7867 26.6634 30.8333C26.6628 31.7299 26.9515 32.6028 27.4865 33.3223C28.0214 34.0417 28.7742 34.5695 29.633 34.8271C30.4918 35.0846 31.4108 35.0583 32.2534 34.7521C33.0961 34.4458 33.8175 33.8759 34.3104 33.1269C34.8034 32.378 35.0416 31.4901 34.9898 30.595C34.9379 29.6999 34.5987 28.8454 34.0225 28.1585C33.4464 27.4715 32.664 26.9887 31.7916 26.7818C30.9192 26.5749 30.0034 26.655 29.1801 27.01C29.3207 26.387 29.3567 25.7449 29.2867 25.11L28.6417 19.9433C28.8142 19.9811 28.9902 20.0001 29.1667 20H30.0001C30.4421 20 30.866 19.8244 31.1786 19.5118C31.4912 19.1993 31.6667 18.7754 31.6667 18.3333V16.6667C31.6667 16.2246 31.4912 15.8007 31.1786 15.4882C30.866 15.1756 30.4421 15 30.0001 15H29.1667C28.7806 15.0018 28.4001 15.093 28.0552 15.2665C27.7102 15.44 27.4101 15.6911 27.1784 16L26.9101 15.7317C26.4403 15.265 25.8056 15.0021 25.1434 15H24.1667C23.9457 15 23.7338 15.0878 23.5775 15.2441C23.4212 15.4004 23.3334 15.6123 23.3334 15.8333C23.3334 16.0543 23.4212 16.2663 23.5775 16.4226C23.7338 16.5789 23.9457 16.6667 24.1667 16.6667H25.1434C25.364 16.6667 25.5756 16.7542 25.7317 16.91L26.7051 17.8833C26.7301 18.0383 27.3284 22.8467 27.6367 25.3167C27.71 25.9031 27.6577 26.4984 27.4833 27.063C27.3089 27.6277 27.0164 28.1488 26.6251 28.5917C26.2339 29.0346 25.7529 29.3893 25.2141 29.6321C24.6753 29.8749 24.0911 30.0003 23.5001 30H23.1834L21.6667 22.4183V20.8333C21.6667 20.1703 21.4034 19.5344 20.9345 19.0656C20.4657 18.5967 19.8298 18.3333 19.1667 18.3333H15.8334V14.1667C15.8334 13.5036 15.57 12.8677 15.1012 12.3989C14.6323 11.9301 13.9965 11.6667 13.3334 11.6667H9.16675C8.50371 11.6667 7.86782 11.9301 7.39898 12.3989C6.93014 12.8677 6.66675 13.5036 6.66675 14.1667V20.8333C6.66675 21.4964 6.93014 22.1323 7.39898 22.6011C7.86782 23.0699 8.50371 23.3333 9.16675 23.3333H9.51008C8.62741 24.0287 7.91324 24.9145 7.42089 25.9246C6.92855 26.9347 6.67075 28.043 6.66675 29.1667V29.1667ZM30.8334 28.3333C31.3279 28.3333 31.8112 28.48 32.2223 28.7547C32.6335 29.0294 32.9539 29.4198 33.1431 29.8766C33.3323 30.3334 33.3818 30.8361 33.2854 31.3211C33.1889 31.806 32.9508 32.2515 32.6012 32.6011C32.2515 32.9507 31.8061 33.1888 31.3211 33.2853C30.8362 33.3818 30.3335 33.3323 29.8767 33.143C29.4199 32.9538 29.0294 32.6334 28.7547 32.2223C28.48 31.8111 28.3334 31.3278 28.3334 30.8333C28.3334 30.1703 28.5968 29.5344 29.0656 29.0656C29.5345 28.5967 30.1704 28.3333 30.8334 28.3333ZM15.8334 20H19.1667C19.3878 20 19.5997 20.0878 19.756 20.2441C19.9123 20.4004 20.0001 20.6123 20.0001 20.8333V21.6667H15.8334V20ZM16.5134 31.6667C16.3437 32.1538 16.0266 32.576 15.6061 32.8748C15.1856 33.1736 14.6826 33.3341 14.1667 33.3341C13.6509 33.3341 13.1479 33.1736 12.7274 32.8748C12.3069 32.576 11.9898 32.1538 11.8201 31.6667H16.5134ZM8.33341 14.1667C8.33341 13.9457 8.42121 13.7337 8.57749 13.5774C8.73377 13.4211 8.94573 13.3333 9.16675 13.3333H13.3334C13.5544 13.3333 13.7664 13.4211 13.9227 13.5774C14.079 13.7337 14.1667 13.9457 14.1667 14.1667V15H8.33341V14.1667ZM8.33341 16.6667H14.1667V18.3083H8.33341V16.6667ZM9.16675 21.6667C8.94573 21.6667 8.73377 21.5789 8.57749 21.4226C8.42121 21.2663 8.33341 21.0543 8.33341 20.8333V19.975H14.1667V21.6667H9.16675Z" fill="#A098AE"/>
</svg>
