<svg width="48" height="48" viewBox="0 0 48 48" fill="none" xmlns="http://www.w3.org/2000/svg">
<rect width="48" height="48" rx="16" fill="#F8B602"/>
<g clip-path="url(#clip0_2_1084)">
<path d="M30.6344 22.6468H25.5375V17.3656C25.5375 16.6093 24.925 15.9968 24.1687 15.9968C23.4125 15.9968 22.8 16.6093 22.8 17.3656V22.6468H17.3625C16.6125 22.6468 16 23.2593 16 24.0156C16 24.7718 16.6125 25.3843 17.3687 25.3843H22.8063V30.6343C22.8063 31.3906 23.4188 32.0031 24.175 32.0031C24.9313 32.0031 25.5437 31.3906 25.5437 30.6343V25.3843H30.6406C31.3969 25.3843 32.0094 24.7718 32.0094 24.0156C32 23.2593 31.3906 22.6468 30.6344 22.6468Z" fill="white"/>
</g>
<defs>
<clipPath id="clip0_2_1084">
<rect width="16" height="16" fill="white" transform="translate(16 16)"/>
</clipPath>
</defs>
</svg>
