<svg width="32" height="32" viewBox="0 0 32 32" fill="none" xmlns="http://www.w3.org/2000/svg">
<path d="M20.0001 16C20.0011 16.1755 19.9675 16.3494 19.9011 16.5119C19.8348 16.6743 19.737 16.8221 19.6134 16.9467L14.2801 22.28C14.029 22.5311 13.6885 22.6721 13.3334 22.6721C12.9783 22.6721 12.6378 22.5311 12.3868 22.28C12.1357 22.0289 11.9946 21.6884 11.9946 21.3333C11.9946 20.9783 12.1357 20.6377 12.3868 20.3867L16.7868 16L12.4001 11.6133C12.1816 11.3583 12.0675 11.0302 12.0805 10.6946C12.0934 10.359 12.2325 10.0407 12.47 9.80325C12.7075 9.56579 13.0258 9.42668 13.3613 9.41372C13.6969 9.40076 14.025 9.5149 14.2801 9.73333L19.6134 15.0667C19.8597 15.315 19.9986 15.6502 20.0001 16Z" fill="#2E2E2E"/>
</svg>
