<svg width="48" height="48" viewBox="0 0 48 48" fill="none" xmlns="http://www.w3.org/2000/svg">
<rect x="1" y="1" width="46" height="46" rx="15" stroke="#DBDBDB" stroke-width="2"/>
<path d="M24 15C22.22 15 20.4799 15.5278 18.9999 16.5168C17.5198 17.5057 16.3663 18.9113 15.6851 20.5559C15.0039 22.2004 14.8257 24.01 15.1729 25.7558C15.5202 27.5017 16.3774 29.1053 17.636 30.364C18.8947 31.6227 20.4984 32.4798 22.2442 32.8271C23.99 33.1744 25.7996 32.9961 27.4442 32.3149C29.0887 31.6338 30.4943 30.4802 31.4833 29.0002C32.4722 27.5201 33 25.7801 33 24C33 22.8181 32.7672 21.6478 32.3149 20.5559C31.8627 19.4639 31.1997 18.4718 30.364 17.636C29.5283 16.8003 28.5361 16.1374 27.4442 15.6851C26.3522 15.2328 25.1819 15 24 15V15ZM24 31.2C22.576 31.2 21.1839 30.7778 19.9999 29.9866C18.8159 29.1955 17.893 28.071 17.3481 26.7553C16.8031 25.4397 16.6605 23.992 16.9384 22.5954C17.2162 21.1987 17.9019 19.9158 18.9088 18.9088C19.9158 17.9019 21.1987 17.2162 22.5954 16.9383C23.992 16.6605 25.4397 16.8031 26.7553 17.3481C28.071 17.893 29.1955 18.8159 29.9866 19.9999C30.7778 21.1839 31.2 22.576 31.2 24C31.2 25.9096 30.4415 27.7409 29.0912 29.0912C27.7409 30.4415 25.9096 31.2 24 31.2V31.2Z" fill="#F8B602"/>
<path d="M24.0001 19.5001C23.7614 19.5001 23.5325 19.5949 23.3637 19.7637C23.195 19.9324 23.1001 20.1614 23.1001 20.4001V24.9001C23.1001 25.1388 23.195 25.3677 23.3637 25.5365C23.5325 25.7052 23.7614 25.8001 24.0001 25.8001C24.2388 25.8001 24.4678 25.7052 24.6365 25.5365C24.8053 25.3677 24.9001 25.1388 24.9001 24.9001V20.4001C24.9001 20.1614 24.8053 19.9324 24.6365 19.7637C24.4678 19.5949 24.2388 19.5001 24.0001 19.5001ZM24.6391 26.9791L24.5041 26.8621L24.3421 26.7811L24.1711 26.7001C24.0258 26.6722 23.8759 26.6807 23.7346 26.7246C23.5933 26.7686 23.465 26.8467 23.3611 26.9521C23.2802 27.035 23.216 27.1328 23.1721 27.2401C23.1203 27.3528 23.0956 27.4761 23.1001 27.6001C23.1011 27.8362 23.1949 28.0624 23.3611 28.2301C23.4484 28.3122 23.5488 28.3791 23.6581 28.4281C23.7659 28.4757 23.8824 28.5003 24.0001 28.5003C24.1179 28.5003 24.2344 28.4757 24.3421 28.4281C24.4515 28.3791 24.5519 28.3122 24.6391 28.2301C24.8054 28.0624 24.8991 27.8362 24.9001 27.6001C24.8999 27.4794 24.8754 27.3601 24.8281 27.2491C24.7823 27.1482 24.7182 27.0567 24.6391 26.9791V26.9791Z" fill="#F8B602"/>
</svg>
