<svg width="902" height="141" viewBox="0 0 902 141" fill="none" xmlns="http://www.w3.org/2000/svg">
<path d="M3.00323 128.852C58.4817 128.852 102.99 3.00323 164.941 3.00323C226.893 3.00323 261.266 137.648 330.758 137.648C400.251 137.648 430.543 55.3821 488.818 55.3821C547.093 55.3821 587.43 91.7393 649.302 91.7393C711.173 91.7393 755.121 17.1763 814.149 17.1763C873.177 17.1763 840.331 43.3761 898.997 43.3761" stroke="#EB5757" stroke-width="6" stroke-linecap="round"/>
<path opacity="0.5" d="M2.03343 131.192C57.572 131.192 102.128 3.00323 164.147 3.00323C226.166 3.00323 260.575 140.151 330.143 140.151C399.711 140.151 430.035 56.3557 488.374 56.3557C546.712 56.3557 587.093 93.3886 649.031 93.3886C710.97 93.3886 754.965 17.4398 814.057 17.4398C873.149 17.4398 840.267 44.1265 898.997 44.1265V140.151H330.143H2.03343V131.192Z" fill="#EB5757"/>
</svg>
