<svg width="40" height="40" viewBox="0 0 40 40" fill="none" xmlns="http://www.w3.org/2000/svg">
<path d="M8.33333 30.8333C8.33333 33.6966 14.8133 34.9999 20.8333 34.9999C26.8533 34.9999 33.3333 33.6966 33.3333 30.8333C33.3333 28.5599 29.3983 27.5333 26.5633 27.0899L28.5 25.1666C30.0152 23.6516 31.047 21.7212 31.4651 19.6198C31.8832 17.5183 31.6687 15.34 30.8488 13.3604C30.0289 11.3808 28.6403 9.68884 26.8588 8.49842C25.0772 7.30799 22.9827 6.67261 20.84 6.67261C18.6973 6.67261 16.6028 7.30799 14.8212 8.49842C13.0397 9.68884 11.6511 11.3808 10.8312 13.3604C10.0113 15.34 9.79681 17.5183 10.2149 19.6198C10.633 21.7212 11.6648 23.6516 13.18 25.1666L15.11 27.0966C12.2683 27.5333 8.33333 28.5599 8.33333 30.8333ZM22.5 13.3333C22.5 13.1785 22.5431 13.0268 22.6245 12.8951C22.7058 12.7635 22.8222 12.6571 22.9606 12.5879C23.0991 12.5187 23.254 12.4894 23.4082 12.5033C23.5623 12.5172 23.7095 12.5737 23.8333 12.6666C24.8653 13.4408 25.7221 14.4241 26.348 15.5523C26.9738 16.6804 27.3544 17.9279 27.465 19.2133C27.5016 19.6081 27.3952 20.003 27.1652 20.326C26.9351 20.649 26.5968 20.8787 26.2117 20.9733L24.1667 21.4849V23.3333C24.1667 23.5543 24.0789 23.7662 23.9226 23.9225C23.7663 24.0788 23.5543 24.1666 23.3333 24.1666C23.1123 24.1666 22.9004 24.0788 22.7441 23.9225C22.5878 23.7662 22.5 23.5543 22.5 23.3333V13.3333ZM15 14.9999V13.3333C15 13.1122 15.0878 12.9003 15.2441 12.744C15.4004 12.5877 15.6123 12.4999 15.8333 12.4999C16.0543 12.4999 16.2663 12.5877 16.4226 12.744C16.5789 12.9003 16.6667 13.1122 16.6667 13.3333V14.9999C16.67 15.2873 16.7487 15.5688 16.8949 15.8163C17.0412 16.0637 17.2498 16.2684 17.5 16.4099V13.3333C17.5 13.1122 17.5878 12.9003 17.7441 12.744C17.9004 12.5877 18.1123 12.4999 18.3333 12.4999C18.5543 12.4999 18.7663 12.5877 18.9226 12.744C19.0789 12.9003 19.1667 13.1122 19.1667 13.3333V16.4099C19.4168 16.2684 19.6255 16.0637 19.7717 15.8163C19.918 15.5688 19.9967 15.2873 20 14.9999V13.3333C20 13.1122 20.0878 12.9003 20.2441 12.744C20.4004 12.5877 20.6123 12.4999 20.8333 12.4999C21.0543 12.4999 21.2663 12.5877 21.4226 12.744C21.5789 12.9003 21.6667 13.1122 21.6667 13.3333V14.9999C21.6639 15.7368 21.4171 16.4519 20.9647 17.0336C20.5124 17.6153 19.8801 18.0307 19.1667 18.2149V23.3333C19.1667 23.5543 19.0789 23.7662 18.9226 23.9225C18.7663 24.0788 18.5543 24.1666 18.3333 24.1666C18.1123 24.1666 17.9004 24.0788 17.7441 23.9225C17.5878 23.7662 17.5 23.5543 17.5 23.3333V18.2149C16.7865 18.0307 16.1542 17.6153 15.7019 17.0336C15.2496 16.4519 15.0028 15.7368 15 14.9999ZM16.59 28.5766L19.065 31.0533C19.2972 31.2856 19.5728 31.4699 19.8762 31.5956C20.1797 31.7213 20.5049 31.7861 20.8333 31.7861C21.1618 31.7861 21.487 31.7213 21.7904 31.5956C22.0938 31.4699 22.3695 31.2856 22.6017 31.0533L25.0767 28.5766C29.6567 29.1066 31.6667 30.3133 31.6667 30.8333C31.6667 31.5799 27.9817 33.3333 20.8333 33.3333C13.685 33.3333 9.99999 31.5799 9.99999 30.8333C9.99999 30.3133 12.01 29.1066 16.59 28.5766Z" fill="#A098AE"/>
</svg>
