<svg width="84" height="34" viewBox="0 0 84 34" fill="none" xmlns="http://www.w3.org/2000/svg">
<path d="M42 10.7149C43.2488 10.7149 44.2611 9.70258 44.2611 8.45378C44.2611 7.20498 43.2488 6.19263 42 6.19263C40.7512 6.19263 39.7389 7.20498 39.7389 8.45378C39.7389 9.70258 40.7512 10.7149 42 10.7149Z" fill="#2E2E2E"/>
<path d="M43.5074 11.4686H40.4926C39.4931 11.4686 38.5345 11.8657 37.8278 12.5724C37.121 13.2792 36.724 14.2377 36.724 15.2372V19.0058C36.724 19.2057 36.8034 19.3974 36.9448 19.5388C37.0861 19.6801 37.2778 19.7595 37.4777 19.7595C37.6776 19.7595 37.8693 19.6801 38.0107 19.5388C38.152 19.3974 38.2314 19.2057 38.2314 19.0058V15.2372C38.2327 14.7707 38.3783 14.316 38.6482 13.9355C38.9181 13.555 39.299 13.2672 39.7389 13.1117V26.5429C39.7389 26.7428 39.8183 26.9346 39.9596 27.0759C40.101 27.2173 40.2927 27.2967 40.4926 27.2967C40.6925 27.2967 40.8842 27.2173 41.0255 27.0759C41.1669 26.9346 41.2463 26.7428 41.2463 26.5429V20.3776C41.7318 20.5624 42.2682 20.5624 42.7537 20.3776V26.5429C42.7537 26.7428 42.8331 26.9346 42.9745 27.0759C43.1158 27.2173 43.3075 27.2967 43.5074 27.2967C43.7073 27.2967 43.899 27.2173 44.0404 27.0759C44.1817 26.9346 44.2611 26.7428 44.2611 26.5429V13.1117C44.701 13.2672 45.0819 13.555 45.3518 13.9355C45.6217 14.316 45.7673 14.7707 45.7686 15.2372V19.0058C45.7686 19.2057 45.848 19.3974 45.9893 19.5388C46.1307 19.6801 46.3224 19.7595 46.5223 19.7595C46.7222 19.7595 46.9139 19.6801 47.0552 19.5388C47.1966 19.3974 47.276 19.2057 47.276 19.0058V15.2372C47.276 14.7423 47.1785 14.2523 46.9891 13.795C46.7998 13.3378 46.5222 12.9224 46.1722 12.5724C45.8223 12.2225 45.4068 11.9449 44.9496 11.7555C44.4924 11.5661 44.0023 11.4686 43.5074 11.4686V11.4686Z" fill="#2E2E2E"/>
</svg>
