<svg width="24" height="24" viewBox="0 0 24 24" fill="none" xmlns="http://www.w3.org/2000/svg">
<g clip-path="url(#clip0_2_2319)">
<path d="M23.25 12C23.25 5.775 18.225 0.75 12 0.75C5.775 0.749999 0.75 5.775 0.75 12C0.749999 18.225 5.775 23.25 12 23.25C18.225 23.25 23.25 18.225 23.25 12ZM11.25 16.575L11.25 9.675L9.3 11.4C8.85 11.775 8.25 11.7 7.875 11.325C7.725 11.1 7.65 10.875 7.65 10.65C7.65 10.35 7.8 10.05 8.025 9.9L11.625 6.75C11.7 6.675 11.775 6.675 11.85 6.6C11.925 6.6 11.925 6.6 12 6.525C12.075 6.525 12.075 6.525 12.15 6.525L12.225 6.525C12.3 6.525 12.3 6.525 12.375 6.525L12.45 6.525C12.525 6.525 12.525 6.525 12.6 6.6C12.6 6.6 12.675 6.6 12.675 6.675L12.75 6.75C12.75 6.75 12.75 6.75 12.825 6.825L15.975 10.05C16.35 10.425 16.35 11.1 15.975 11.475C15.6 11.85 14.925 11.85 14.55 11.475L13.125 9.975L13.125 16.65C13.125 17.175 12.675 17.7 12.075 17.7C11.7 17.55 11.25 17.1 11.25 16.575Z" fill="#A6C44A"/>
</g>
<defs>
<clipPath id="clip0_2_2319">
<rect width="24" height="24" fill="white" transform="translate(24) rotate(90)"/>
</clipPath>
</defs>
</svg>
