<svg width="84" height="34" viewBox="0 0 84 34" fill="none" xmlns="http://www.w3.org/2000/svg">
<path d="M34.086 11.4686C35.5429 11.4686 36.724 10.2876 36.724 8.83064C36.724 7.37371 35.5429 6.19263 34.086 6.19263C32.6291 6.19263 31.448 7.37371 31.448 8.83064C31.448 10.2876 32.6291 11.4686 34.086 11.4686Z" fill="#2E2E2E"/>
<path d="M42 19.7595C43.6651 19.7595 45.0149 18.4097 45.0149 16.7446C45.0149 15.0796 43.6651 13.7298 42 13.7298C40.3349 13.7298 38.9851 15.0796 38.9851 16.7446C38.9851 18.4097 40.3349 19.7595 42 19.7595Z" fill="#2E2E2E"/>
<path d="M50.2909 9.2075C49.6912 9.2075 49.116 9.44572 48.692 9.86977C48.2679 10.2938 48.0297 10.8689 48.0297 11.4686C48.03 11.8986 48.1529 12.3195 48.384 12.6821C48.5948 13.0136 48.8884 13.2844 49.2357 13.4679C49.5831 13.6514 49.9722 13.7413 50.3649 13.7286C50.7575 13.7159 51.1401 13.6012 51.4749 13.3956C51.8097 13.1901 52.0852 12.9009 52.2742 12.5565C52.4632 12.2121 52.5592 11.8244 52.5528 11.4316C52.5463 11.0388 52.4377 10.6545 52.2375 10.3165C52.0373 9.97845 51.7525 9.69841 51.4112 9.50395C51.0698 9.30949 50.6837 9.20732 50.2909 9.2075Z" fill="#2E2E2E"/>
<path d="M37.4777 27.2967C38.7265 27.2967 39.7389 26.2843 39.7389 25.0355C39.7389 23.7867 38.7265 22.7744 37.4777 22.7744C36.2289 22.7744 35.2166 23.7867 35.2166 25.0355C35.2166 26.2843 36.2289 27.2967 37.4777 27.2967Z" fill="#2E2E2E"/>
<path d="M40.4021 15.9005C40.3029 15.901 40.2046 15.882 40.1127 15.8445C40.0209 15.807 39.9374 15.7517 39.8669 15.6819L34.8849 10.7149C34.741 10.571 34.6601 10.3758 34.6601 10.1722C34.6601 9.96867 34.741 9.77347 34.8849 9.62954C35.0288 9.48561 35.224 9.40476 35.4276 9.40476C35.6311 9.40476 35.8263 9.48561 35.9702 9.62954L40.9523 14.6116C41.0586 14.717 41.1311 14.8517 41.1605 14.9985C41.19 15.1453 41.1751 15.2975 41.1176 15.4358C41.0602 15.574 40.963 15.6921 40.8382 15.7748C40.7134 15.8576 40.5669 15.9013 40.4172 15.9005H40.4021ZM43.9069 16.2848C43.745 16.2828 43.588 16.2287 43.4593 16.1306C43.3305 16.0324 43.2368 15.8954 43.192 15.7398C43.1472 15.5842 43.1537 15.4184 43.2105 15.2667C43.2673 15.1151 43.3714 14.9858 43.5074 14.898L48.6176 11.642C48.7865 11.534 48.9914 11.4976 49.1871 11.5407C49.3829 11.5838 49.5535 11.7029 49.6615 11.8718C49.7694 12.0408 49.8058 12.2456 49.7627 12.4414C49.7196 12.6372 49.6005 12.8078 49.4316 12.9157L44.3214 16.1718C44.1971 16.2489 44.0531 16.2882 43.9069 16.2848V16.2848ZM38.2314 24.4627C38.1004 24.463 37.9715 24.4292 37.8576 24.3646C37.7436 24.3 37.6484 24.2068 37.5815 24.0942C37.5145 23.9815 37.4781 23.8534 37.4757 23.7224C37.4734 23.5914 37.5052 23.4621 37.5681 23.3472L40.2815 18.3726C40.3814 18.1967 40.5472 18.0677 40.7422 18.014C40.9373 17.9603 41.1457 17.9863 41.3216 18.0862C41.4975 18.1862 41.6265 18.3519 41.6802 18.547C41.734 18.742 41.708 18.9504 41.608 19.1264L38.8947 24.1009C38.8257 24.2142 38.7281 24.3074 38.6116 24.3709C38.4952 24.4344 38.364 24.4661 38.2314 24.4627Z" fill="#2E2E2E"/>
</svg>
