<svg width="40" height="40" viewBox="0 0 40 40" fill="none" xmlns="http://www.w3.org/2000/svg">
<path d="M6.6665 29.1667C6.6665 29.8298 6.9299 30.4657 7.39874 30.9345C7.86758 31.4034 8.50346 31.6667 9.1665 31.6667H10.0848C10.2761 32.6087 10.7871 33.4555 11.5313 34.0637C12.2755 34.672 13.207 35.0043 14.1682 35.0043C15.1293 35.0043 16.0609 34.672 16.8051 34.0637C17.5492 33.4555 18.0602 32.6087 18.2515 31.6667H23.4998C24.6307 31.6588 25.7347 31.3211 26.6765 30.6951C26.6765 30.7417 26.6632 30.7867 26.6632 30.8334C26.6626 31.73 26.9512 32.6029 27.4862 33.3223C28.0212 34.0418 28.774 34.5696 29.6328 34.8271C30.4916 35.0847 31.4105 35.0584 32.2532 34.7521C33.0959 34.4459 33.8172 33.8759 34.3102 33.127C34.8031 32.3781 35.0414 31.4902 34.9895 30.5951C34.9377 29.7 34.5985 28.8455 34.0223 28.1586C33.4461 27.4716 32.6638 26.9888 31.7914 26.7819C30.919 26.575 30.0031 26.655 29.1798 27.0101C29.3204 26.387 29.3565 25.745 29.2865 25.1101L28.6415 19.9434C28.814 19.9811 28.99 20.0001 29.1665 20.0001H29.9998C30.4419 20.0001 30.8658 19.8245 31.1783 19.5119C31.4909 19.1994 31.6665 18.7754 31.6665 18.3334V16.6667C31.6665 16.2247 31.4909 15.8008 31.1783 15.4882C30.8658 15.1757 30.4419 15.0001 29.9998 15.0001H29.1665C28.7804 15.0019 28.3999 15.0931 28.0549 15.2666C27.7099 15.4401 27.4099 15.6912 27.1782 16.0001L26.9098 15.7317C26.44 15.2651 25.8054 15.0022 25.1432 15.0001H24.1665C23.9455 15.0001 23.7335 15.0879 23.5772 15.2442C23.421 15.4004 23.3332 15.6124 23.3332 15.8334C23.3332 16.0544 23.421 16.2664 23.5772 16.4227C23.7335 16.579 23.9455 16.6667 24.1665 16.6667H25.1432C25.3638 16.6668 25.5753 16.7543 25.7315 16.9101L26.7048 17.8834C26.7298 18.0384 27.3282 22.8467 27.6365 25.3167C27.7098 25.9032 27.6575 26.4985 27.4831 27.0631C27.3087 27.6278 27.0161 28.1489 26.6249 28.5918C26.2337 29.0347 25.7527 29.3894 25.2139 29.6322C24.6751 29.875 24.0908 30.0004 23.4998 30.0001H23.1832L21.6665 22.4184V20.8334C21.6665 20.1704 21.4031 19.5345 20.9343 19.0656C20.4654 18.5968 19.8295 18.3334 19.1665 18.3334H15.8332V14.1667C15.8332 13.5037 15.5698 12.8678 15.1009 12.399C14.6321 11.9301 13.9962 11.6667 13.3332 11.6667H9.1665C8.50346 11.6667 7.86758 11.9301 7.39874 12.399C6.9299 12.8678 6.6665 13.5037 6.6665 14.1667V20.8334C6.6665 21.4965 6.9299 22.1323 7.39874 22.6012C7.86758 23.07 8.50346 23.3334 9.1665 23.3334H9.50984C8.62717 24.0288 7.913 24.9146 7.42065 25.9247C6.9283 26.9348 6.67051 28.0431 6.6665 29.1667V29.1667ZM30.8332 28.3334C31.3276 28.3334 31.811 28.48 32.2221 28.7547C32.6332 29.0294 32.9536 29.4199 33.1429 29.8767C33.3321 30.3335 33.3816 30.8362 33.2851 31.3211C33.1887 31.8061 32.9506 32.2516 32.6009 32.6012C32.2513 32.9508 31.8058 33.1889 31.3209 33.2854C30.8359 33.3818 30.3333 33.3323 29.8765 33.1431C29.4196 32.9539 29.0292 32.6335 28.7545 32.2223C28.4798 31.8112 28.3332 31.3279 28.3332 30.8334C28.3332 30.1704 28.5966 29.5345 29.0654 29.0656C29.5342 28.5968 30.1701 28.3334 30.8332 28.3334ZM15.8332 20.0001H19.1665C19.3875 20.0001 19.5995 20.0879 19.7558 20.2442C19.912 20.4004 19.9998 20.6124 19.9998 20.8334V21.6667H15.8332V20.0001ZM16.5132 31.6667C16.3435 32.1539 16.0264 32.5761 15.6059 32.8749C15.1854 33.1737 14.6823 33.3342 14.1665 33.3342C13.6507 33.3342 13.1476 33.1737 12.7271 32.8749C12.3066 32.5761 11.9895 32.1539 11.8198 31.6667H16.5132ZM8.33317 14.1667C8.33317 13.9457 8.42097 13.7338 8.57725 13.5775C8.73353 13.4212 8.94549 13.3334 9.1665 13.3334H13.3332C13.5542 13.3334 13.7661 13.4212 13.9224 13.5775C14.0787 13.7338 14.1665 13.9457 14.1665 14.1667V15.0001H8.33317V14.1667ZM8.33317 16.6667H14.1665V18.3084H8.33317V16.6667ZM9.1665 21.6667C8.94549 21.6667 8.73353 21.579 8.57725 21.4227C8.42097 21.2664 8.33317 21.0544 8.33317 20.8334V19.9751H14.1665V21.6667H9.1665Z" fill="white"/>
</svg>
