<svg width="40" height="40" viewBox="0 0 40 40" fill="none" xmlns="http://www.w3.org/2000/svg">
<path d="M8.33325 30.8333C8.33325 33.6967 14.8133 35 20.8333 35C26.8533 35 33.3333 33.6967 33.3333 30.8333C33.3333 28.56 29.3983 27.5333 26.5633 27.09L28.4999 25.1667C30.0151 23.6516 31.0469 21.7213 31.465 19.6198C31.8831 17.5183 31.6686 15.3401 30.8487 13.3605C30.0288 11.3809 28.6402 9.68892 26.8587 8.49849C25.0771 7.30807 22.9826 6.67268 20.8399 6.67268C18.6972 6.67268 16.6027 7.30807 14.8211 8.49849C13.0396 9.68892 11.6511 11.3809 10.8311 13.3605C10.0112 15.3401 9.79673 17.5183 10.2148 19.6198C10.6329 21.7213 11.6648 23.6516 13.1799 25.1667L15.1099 27.0967C12.2683 27.5333 8.33325 28.56 8.33325 30.8333ZM22.4999 13.3333C22.4999 13.1786 22.543 13.0269 22.6244 12.8952C22.7057 12.7636 22.8222 12.6572 22.9606 12.588C23.099 12.5188 23.254 12.4895 23.4081 12.5034C23.5622 12.5173 23.7094 12.5738 23.8333 12.6667C24.8652 13.4409 25.7221 14.4242 26.3479 15.5523C26.9737 16.6805 27.3543 17.928 27.4649 19.2133C27.5015 19.6082 27.3951 20.0031 27.1651 20.3261C26.9351 20.6491 26.5967 20.8788 26.2116 20.9733L24.1666 21.485V23.3333C24.1666 23.5543 24.0788 23.7663 23.9225 23.9226C23.7662 24.0789 23.5543 24.1667 23.3333 24.1667C23.1122 24.1667 22.9003 24.0789 22.744 23.9226C22.5877 23.7663 22.4999 23.5543 22.4999 23.3333V13.3333ZM14.9999 15V13.3333C14.9999 13.1123 15.0877 12.9004 15.244 12.7441C15.4003 12.5878 15.6122 12.5 15.8333 12.5C16.0543 12.5 16.2662 12.5878 16.4225 12.7441C16.5788 12.9004 16.6666 13.1123 16.6666 13.3333V15C16.6699 15.2874 16.7486 15.5689 16.8949 15.8163C17.0411 16.0638 17.2497 16.2685 17.4999 16.41V13.3333C17.4999 13.1123 17.5877 12.9004 17.744 12.7441C17.9003 12.5878 18.1122 12.5 18.3333 12.5C18.5543 12.5 18.7662 12.5878 18.9225 12.7441C19.0788 12.9004 19.1666 13.1123 19.1666 13.3333V16.41C19.4168 16.2685 19.6254 16.0638 19.7716 15.8163C19.9179 15.5689 19.9966 15.2874 19.9999 15V13.3333C19.9999 13.1123 20.0877 12.9004 20.244 12.7441C20.4003 12.5878 20.6122 12.5 20.8333 12.5C21.0543 12.5 21.2662 12.5878 21.4225 12.7441C21.5788 12.9004 21.6666 13.1123 21.6666 13.3333V15C21.6638 15.7368 21.417 16.452 20.9647 17.0337C20.5124 17.6154 19.88 18.0308 19.1666 18.215V23.3333C19.1666 23.5543 19.0788 23.7663 18.9225 23.9226C18.7662 24.0789 18.5543 24.1667 18.3333 24.1667C18.1122 24.1667 17.9003 24.0789 17.744 23.9226C17.5877 23.7663 17.4999 23.5543 17.4999 23.3333V18.215C16.7865 18.0308 16.1542 17.6154 15.7018 17.0337C15.2495 16.452 15.0027 15.7368 14.9999 15ZM16.5899 28.5767L19.0649 31.0533C19.2971 31.2856 19.5728 31.4699 19.8762 31.5957C20.1796 31.7214 20.5048 31.7861 20.8333 31.7861C21.1617 31.7861 21.4869 31.7214 21.7903 31.5957C22.0937 31.4699 22.3694 31.2856 22.6016 31.0533L25.0766 28.5767C29.6566 29.1067 31.6666 30.3133 31.6666 30.8333C31.6666 31.58 27.9816 33.3333 20.8333 33.3333C13.6849 33.3333 9.99992 31.58 9.99992 30.8333C9.99992 30.3133 12.0099 29.1067 16.5899 28.5767Z" fill="white"/>
</svg>
