<svg width="48" height="48" viewBox="0 0 48 48" fill="none" xmlns="http://www.w3.org/2000/svg">
<rect x="48" y="48" width="48" height="48" rx="16" transform="rotate(-180 48 48)" fill="white" fill-opacity="0.5"/>
<path d="M23.9998 19.9999C24.1752 19.9989 24.3492 20.0325 24.5116 20.0989C24.6741 20.1652 24.8218 20.263 24.9464 20.3866L30.2798 25.7199C30.5308 25.971 30.6719 26.3115 30.6719 26.6666C30.6719 27.0217 30.5308 27.3622 30.2798 27.6132C30.0287 27.8643 29.6882 28.0054 29.3331 28.0054C28.978 28.0054 28.6375 27.8643 28.3864 27.6132L23.9998 23.2132L19.6131 27.5999C19.358 27.8184 19.0299 27.9325 18.6943 27.9195C18.3588 27.9066 18.0405 27.7675 17.803 27.53C17.5655 27.2925 17.4264 26.9742 17.4135 26.6387C17.4005 26.3031 17.5147 25.975 17.7331 25.7199L23.0664 20.3866C23.3148 20.1403 23.65 20.0014 23.9998 19.9999Z" fill="white"/>
</svg>
