<svg width="40" height="40" viewBox="0 0 40 40" fill="none" xmlns="http://www.w3.org/2000/svg">
<path d="M33.7934 25.0884L32.5001 25.7351L31.2067 25.0884C31.0909 25.0303 30.963 25.0001 30.8334 25.0001C30.7038 25.0001 30.576 25.0303 30.4601 25.0884L29.1667 25.7351L28.3334 25.3184V7.50005C28.3334 7.35795 28.2971 7.2182 28.2278 7.0941C28.1586 6.97 28.0588 6.86566 27.9379 6.79101C27.8169 6.71635 27.6789 6.67386 27.537 6.66757C27.395 6.66127 27.2538 6.69139 27.1267 6.75505L25.8334 7.40172L24.5401 6.75505C24.4242 6.69698 24.2964 6.66675 24.1667 6.66675C24.0371 6.66675 23.9093 6.69698 23.7934 6.75505L22.5001 7.40172L21.2067 6.75505C21.0909 6.69698 20.963 6.66675 20.8334 6.66675C20.7038 6.66675 20.576 6.69698 20.4601 6.75505L19.1667 7.40172L17.8734 6.75505C17.7575 6.69698 17.6297 6.66675 17.5001 6.66675C17.3705 6.66675 17.2426 6.69698 17.1267 6.75505L15.8334 7.40172L14.5401 6.75505C14.4242 6.69698 14.2964 6.66675 14.1667 6.66675C14.0371 6.66675 13.9093 6.69698 13.7934 6.75505L12.5001 7.40172L11.2067 6.75505C11.0909 6.69698 10.963 6.66675 10.8334 6.66675C10.7038 6.66675 10.576 6.69698 10.4601 6.75505L9.16675 7.40172L7.87341 6.75505C7.74637 6.69139 7.60515 6.66127 7.46318 6.66757C7.32121 6.67386 7.18321 6.71635 7.0623 6.79101C6.94138 6.86566 6.84156 6.97 6.77233 7.0941C6.7031 7.2182 6.66675 7.35795 6.66675 7.50005V30.8334C6.66675 31.9385 7.10573 32.9983 7.88714 33.7797C8.66854 34.5611 9.72835 35.0001 10.8334 35.0001H30.8334C31.9385 35.0001 32.9983 34.5611 33.7797 33.7797C34.5611 32.9983 35.0001 31.9385 35.0001 30.8334V25.8334C35.0001 25.6913 34.9637 25.5515 34.8945 25.4274C34.8253 25.3033 34.7254 25.199 34.6045 25.1243C34.4836 25.0497 34.3456 25.0072 34.2036 25.0009C34.0617 24.9946 33.9205 25.0247 33.7934 25.0884V25.0884ZM17.5001 16.6667C17.4973 17.4036 17.2505 18.1187 16.7982 18.7004C16.3458 19.2821 15.7135 19.6975 15.0001 19.8817V27.5001C15.0001 27.7211 14.9123 27.933 14.756 28.0893C14.5997 28.2456 14.3878 28.3334 14.1667 28.3334C13.9457 28.3334 13.7338 28.2456 13.5775 28.0893C13.4212 27.933 13.3334 27.7211 13.3334 27.5001V19.8817C12.62 19.6975 11.9876 19.2821 11.5353 18.7004C11.083 18.1187 10.8362 17.4036 10.8334 16.6667V14.1667C10.8334 13.9457 10.9212 13.7337 11.0775 13.5775C11.2338 13.4212 11.4457 13.3334 11.6667 13.3334C11.8878 13.3334 12.0997 13.4212 12.256 13.5775C12.4123 13.7337 12.5001 13.9457 12.5001 14.1667V16.6667C12.5034 16.9541 12.5821 17.2356 12.7284 17.4831C12.8746 17.7305 13.0832 17.9352 13.3334 18.0767V14.1667C13.3334 13.9457 13.4212 13.7337 13.5775 13.5775C13.7338 13.4212 13.9457 13.3334 14.1667 13.3334C14.3878 13.3334 14.5997 13.4212 14.756 13.5775C14.9123 13.7337 15.0001 13.9457 15.0001 14.1667V18.0767C15.2503 17.9352 15.4589 17.7305 15.6051 17.4831C15.7514 17.2356 15.8301 16.9541 15.8334 16.6667V14.1667C15.8334 13.9457 15.9212 13.7337 16.0775 13.5775C16.2338 13.4212 16.4457 13.3334 16.6667 13.3334C16.8878 13.3334 17.0997 13.4212 17.256 13.5775C17.4123 13.7337 17.5001 13.9457 17.5001 14.1667V16.6667ZM23.2584 23.3784L20.8334 23.9851V27.5001C20.8334 27.7211 20.7456 27.933 20.5893 28.0893C20.4331 28.2456 20.2211 28.3334 20.0001 28.3334C19.7791 28.3334 19.5671 28.2456 19.4108 28.0893C19.2545 27.933 19.1667 27.7211 19.1667 27.5001V14.1667C19.1665 14.0017 19.2152 13.8403 19.3067 13.703C19.3983 13.5656 19.5285 13.4586 19.681 13.3954C19.8334 13.3322 20.0012 13.3157 20.1631 13.348C20.3249 13.3803 20.4735 13.4599 20.5901 13.5767C21.7277 14.7083 22.6296 16.0543 23.2435 17.5368C23.8575 19.0193 24.1713 20.6088 24.1667 22.2134C24.1673 22.4811 24.0781 22.7413 23.9134 22.9525C23.7488 23.1637 23.5182 23.3136 23.2584 23.3784V23.3784ZM33.3334 30.8334C33.3334 31.4964 33.07 32.1323 32.6012 32.6012C32.1323 33.07 31.4965 33.3334 30.8334 33.3334C30.1704 33.3334 29.5345 33.07 29.0656 32.6012C28.5968 32.1323 28.3334 31.4964 28.3334 30.8334V27.1817L28.7934 27.4117C28.9093 27.4698 29.0371 27.5 29.1667 27.5C29.2964 27.5 29.4242 27.4698 29.5401 27.4117L30.8334 26.7651L32.1267 27.4117C32.2426 27.4698 32.3705 27.5 32.5001 27.5C32.6297 27.5 32.7575 27.4698 32.8734 27.4117L33.3334 27.1817V30.8334Z" fill="#A098AE"/>
</svg>
