<svg width="40" height="40" viewBox="0 0 40 40" fill="none" xmlns="http://www.w3.org/2000/svg">
<path d="M6.66663 29.1667C6.66663 29.8297 6.93002 30.4656 7.39886 30.9344C7.8677 31.4033 8.50358 31.6667 9.16663 31.6667H10.085C10.2762 32.6086 10.7872 33.4554 11.5314 34.0636C12.2756 34.6719 13.2072 35.0042 14.1683 35.0042C15.1294 35.0042 16.061 34.6719 16.8052 34.0636C17.5494 33.4554 18.0604 32.6086 18.2516 31.6667H23.5C24.6308 31.6588 25.7348 31.3211 26.6766 30.695C26.6766 30.7417 26.6633 30.7867 26.6633 30.8333C26.6627 31.7299 26.9513 32.6028 27.4863 33.3223C28.0213 34.0417 28.7741 34.5695 29.6329 34.8271C30.4917 35.0846 31.4107 35.0583 32.2533 34.7521C33.096 34.4458 33.8174 33.8759 34.3103 33.1269C34.8033 32.378 35.0415 31.4901 34.9896 30.595C34.9378 29.6999 34.5986 28.8454 34.0224 28.1585C33.4463 27.4715 32.6639 26.9887 31.7915 26.7818C30.9191 26.5749 30.0032 26.655 29.18 27.01C29.3206 26.387 29.3566 25.7449 29.2866 25.11L28.6416 19.9433C28.8141 19.9811 28.9901 20.0001 29.1666 20H30C30.442 20 30.8659 19.8244 31.1785 19.5118C31.491 19.1993 31.6666 18.7754 31.6666 18.3333V16.6667C31.6666 16.2246 31.491 15.8007 31.1785 15.4882C30.8659 15.1756 30.442 15 30 15H29.1666C28.7805 15.0018 28.4 15.093 28.055 15.2665C27.7101 15.44 27.41 15.6911 27.1783 16L26.91 15.7317C26.4402 15.265 25.8055 15.0021 25.1433 15H24.1666C23.9456 15 23.7336 15.0878 23.5774 15.2441C23.4211 15.4004 23.3333 15.6123 23.3333 15.8333C23.3333 16.0543 23.4211 16.2663 23.5774 16.4226C23.7336 16.5789 23.9456 16.6667 24.1666 16.6667H25.1433C25.3639 16.6667 25.5754 16.7542 25.7316 16.91L26.705 17.8833C26.73 18.0383 27.3283 22.8467 27.6366 25.3167C27.7099 25.9031 27.6576 26.4984 27.4832 27.063C27.3088 27.6277 27.0162 28.1488 26.625 28.5917C26.2338 29.0346 25.7528 29.3893 25.214 29.6321C24.6752 29.8749 24.0909 30.0003 23.5 30H23.1833L21.6666 22.4183V20.8333C21.6666 20.1703 21.4032 19.5344 20.9344 19.0656C20.4656 18.5967 19.8297 18.3333 19.1666 18.3333H15.8333V14.1667C15.8333 13.5036 15.5699 12.8677 15.1011 12.3989C14.6322 11.9301 13.9963 11.6667 13.3333 11.6667H9.16663C8.50358 11.6667 7.8677 11.9301 7.39886 12.3989C6.93002 12.8677 6.66663 13.5036 6.66663 14.1667V20.8333C6.66663 21.4964 6.93002 22.1323 7.39886 22.6011C7.8677 23.0699 8.50358 23.3333 9.16663 23.3333H9.50996C8.62729 24.0287 7.91312 24.9145 7.42077 25.9246C6.92843 26.9347 6.67063 28.043 6.66663 29.1667V29.1667ZM30.8333 28.3333C31.3277 28.3333 31.8111 28.48 32.2222 28.7547C32.6333 29.0294 32.9538 29.4198 33.143 29.8766C33.3322 30.3334 33.3817 30.8361 33.2853 31.3211C33.1888 31.806 32.9507 32.2515 32.6011 32.6011C32.2514 32.9507 31.806 33.1888 31.321 33.2853C30.8361 33.3818 30.3334 33.3323 29.8766 33.143C29.4198 32.9538 29.0293 32.6334 28.7546 32.2223C28.4799 31.8111 28.3333 31.3278 28.3333 30.8333C28.3333 30.1703 28.5967 29.5344 29.0655 29.0656C29.5344 28.5967 30.1703 28.3333 30.8333 28.3333ZM15.8333 20H19.1666C19.3876 20 19.5996 20.0878 19.7559 20.2441C19.9122 20.4004 20 20.6123 20 20.8333V21.6667H15.8333V20ZM16.5133 31.6667C16.3436 32.1538 16.0265 32.576 15.606 32.8748C15.1855 33.1736 14.6825 33.3341 14.1666 33.3341C13.6508 33.3341 13.1477 33.1736 12.7272 32.8748C12.3068 32.576 11.9897 32.1538 11.82 31.6667H16.5133ZM8.33329 14.1667C8.33329 13.9457 8.42109 13.7337 8.57737 13.5774C8.73365 13.4211 8.94561 13.3333 9.16663 13.3333H13.3333C13.5543 13.3333 13.7663 13.4211 13.9225 13.5774C14.0788 13.7337 14.1666 13.9457 14.1666 14.1667V15H8.33329V14.1667ZM8.33329 16.6667H14.1666V18.3083H8.33329V16.6667ZM9.16663 21.6667C8.94561 21.6667 8.73365 21.5789 8.57737 21.4226C8.42109 21.2663 8.33329 21.0543 8.33329 20.8333V19.975H14.1666V21.6667H9.16663Z" fill="#A098AE"/>
</svg>
