<svg width="40" height="40" viewBox="0 0 40 40" fill="none" xmlns="http://www.w3.org/2000/svg">
<path d="M33.7933 25.0884L32.5 25.7351L31.2067 25.0884C31.0908 25.0303 30.963 25.0001 30.8333 25.0001C30.7037 25.0001 30.5759 25.0303 30.46 25.0884L29.1667 25.7351L28.3333 25.3184V7.50005C28.3333 7.35795 28.297 7.2182 28.2278 7.0941C28.1585 6.97 28.0587 6.86566 27.9378 6.79101C27.8169 6.71635 27.6789 6.67386 27.5369 6.66757C27.3949 6.66127 27.2537 6.69139 27.1267 6.75505L25.8333 7.40172L24.54 6.75505C24.4241 6.69698 24.2963 6.66675 24.1667 6.66675C24.0371 6.66675 23.9092 6.69698 23.7933 6.75505L22.5 7.40172L21.2067 6.75505C21.0908 6.69698 20.963 6.66675 20.8333 6.66675C20.7037 6.66675 20.5759 6.69698 20.46 6.75505L19.1667 7.40172L17.8733 6.75505C17.7575 6.69698 17.6296 6.66675 17.5 6.66675C17.3704 6.66675 17.2426 6.69698 17.1267 6.75505L15.8333 7.40172L14.54 6.75505C14.4241 6.69698 14.2963 6.66675 14.1667 6.66675C14.0371 6.66675 13.9092 6.69698 13.7933 6.75505L12.5 7.40172L11.2067 6.75505C11.0908 6.69698 10.963 6.66675 10.8333 6.66675C10.7037 6.66675 10.5759 6.69698 10.46 6.75505L9.16667 7.40172L7.87334 6.75505C7.74629 6.69139 7.60507 6.66127 7.4631 6.66757C7.32114 6.67386 7.18314 6.71635 7.06222 6.79101C6.9413 6.86566 6.84148 6.97 6.77225 7.0941C6.70302 7.2182 6.66668 7.35795 6.66667 7.50005V30.8334C6.66667 31.9385 7.10566 32.9983 7.88706 33.7797C8.66846 34.5611 9.72827 35.0001 10.8333 35.0001H30.8333C31.9384 35.0001 32.9982 34.5611 33.7796 33.7797C34.561 32.9983 35 31.9385 35 30.8334V25.8334C35 25.6913 34.9637 25.5515 34.8944 25.4274C34.8252 25.3033 34.7254 25.199 34.6045 25.1243C34.4835 25.0497 34.3455 25.0072 34.2036 25.0009C34.0616 24.9946 33.9204 25.0247 33.7933 25.0884ZM17.5 16.6667C17.4972 17.4036 17.2504 18.1187 16.7981 18.7004C16.3458 19.2821 15.7135 19.6975 15 19.8817V27.5001C15 27.7211 14.9122 27.933 14.7559 28.0893C14.5996 28.2456 14.3877 28.3334 14.1667 28.3334C13.9457 28.3334 13.7337 28.2456 13.5774 28.0893C13.4211 27.933 13.3333 27.7211 13.3333 27.5001V19.8817C12.6199 19.6975 11.9876 19.2821 11.5353 18.7004C11.0829 18.1187 10.8361 17.4036 10.8333 16.6667V14.1667C10.8333 13.9457 10.9211 13.7337 11.0774 13.5775C11.2337 13.4212 11.4457 13.3334 11.6667 13.3334C11.8877 13.3334 12.0996 13.4212 12.2559 13.5775C12.4122 13.7337 12.5 13.9457 12.5 14.1667V16.6667C12.5033 16.9541 12.582 17.2356 12.7283 17.4831C12.8745 17.7305 13.0832 17.9352 13.3333 18.0767V14.1667C13.3333 13.9457 13.4211 13.7337 13.5774 13.5775C13.7337 13.4212 13.9457 13.3334 14.1667 13.3334C14.3877 13.3334 14.5996 13.4212 14.7559 13.5775C14.9122 13.7337 15 13.9457 15 14.1667V18.0767C15.2502 17.9352 15.4588 17.7305 15.6051 17.4831C15.7513 17.2356 15.83 16.9541 15.8333 16.6667V14.1667C15.8333 13.9457 15.9211 13.7337 16.0774 13.5775C16.2337 13.4212 16.4457 13.3334 16.6667 13.3334C16.8877 13.3334 17.0996 13.4212 17.2559 13.5775C17.4122 13.7337 17.5 13.9457 17.5 14.1667V16.6667ZM23.2583 23.3784L20.8333 23.9851V27.5001C20.8333 27.7211 20.7455 27.933 20.5893 28.0893C20.433 28.2456 20.221 28.3334 20 28.3334C19.779 28.3334 19.567 28.2456 19.4107 28.0893C19.2545 27.933 19.1667 27.7211 19.1667 27.5001V14.1667C19.1664 14.0017 19.2151 13.8403 19.3066 13.703C19.3982 13.5656 19.5284 13.4586 19.6809 13.3954C19.8334 13.3322 20.0011 13.3157 20.163 13.348C20.3248 13.3803 20.4735 13.4599 20.59 13.5767C21.7276 14.7083 22.6295 16.0543 23.2435 17.5368C23.8574 19.0193 24.1712 20.6088 24.1667 22.2134C24.1672 22.4811 24.078 22.7413 23.9134 22.9525C23.7487 23.1637 23.5181 23.3136 23.2583 23.3784ZM33.3333 30.8334C33.3333 31.4964 33.0699 32.1323 32.6011 32.6012C32.1323 33.07 31.4964 33.3334 30.8333 33.3334C30.1703 33.3334 29.5344 33.07 29.0656 32.6012C28.5967 32.1323 28.3333 31.4964 28.3333 30.8334V27.1817L28.7933 27.4117C28.9092 27.4698 29.0371 27.5 29.1667 27.5C29.2963 27.5 29.4241 27.4698 29.54 27.4117L30.8333 26.7651L32.1267 27.4117C32.2426 27.4698 32.3704 27.5 32.5 27.5C32.6296 27.5 32.7575 27.4698 32.8733 27.4117L33.3333 27.1817V30.8334Z" fill="#A098AE"/>
</svg>
