<svg width="32" height="32" viewBox="0 0 32 32" fill="none" xmlns="http://www.w3.org/2000/svg">
<path d="M11.9999 16C11.9989 15.8245 12.0325 15.6506 12.0989 15.4881C12.1652 15.3257 12.263 15.1779 12.3866 15.0533L17.7199 9.72C17.971 9.46893 18.3115 9.32788 18.6666 9.32788C19.0217 9.32788 19.3622 9.46893 19.6132 9.72C19.8643 9.97107 20.0054 10.3116 20.0054 10.6667C20.0054 11.0217 19.8643 11.3623 19.6132 11.6133L15.2132 16L19.5999 20.3867C19.8184 20.6417 19.9325 20.9698 19.9195 21.3054C19.9066 21.641 19.7675 21.9593 19.53 22.1968C19.2925 22.4342 18.9742 22.5733 18.6387 22.5863C18.3031 22.5992 17.975 22.4851 17.7199 22.2667L12.3866 16.9333C12.1403 16.685 12.0014 16.3498 11.9999 16Z" fill="#A098AE"/>
</svg>
