<svg width="40" height="40" viewBox="0 0 40 40" fill="none" xmlns="http://www.w3.org/2000/svg">
<path d="M33.7932 25.0883L32.4998 25.735L31.2065 25.0883C31.0906 25.0303 30.9628 25 30.8332 25C30.7036 25 30.5757 25.0303 30.4598 25.0883L29.1665 25.735L28.3332 25.3183V7.5C28.3332 7.35789 28.2968 7.21815 28.2276 7.09405C28.1584 6.96994 28.0585 6.86561 27.9376 6.79095C27.8167 6.7163 27.6787 6.67381 27.5367 6.66751C27.3948 6.66122 27.2536 6.69134 27.1265 6.755L25.8332 7.40167L24.5398 6.755C24.424 6.69693 24.2961 6.66669 24.1665 6.66669C24.0369 6.66669 23.9091 6.69693 23.7932 6.755L22.4998 7.40167L21.2065 6.755C21.0906 6.69693 20.9628 6.66669 20.8332 6.66669C20.7036 6.66669 20.5757 6.69693 20.4598 6.755L19.1665 7.40167L17.8732 6.755C17.7573 6.69693 17.6295 6.66669 17.4998 6.66669C17.3702 6.66669 17.2424 6.69693 17.1265 6.755L15.8332 7.40167L14.5398 6.755C14.424 6.69693 14.2961 6.66669 14.1665 6.66669C14.0369 6.66669 13.9091 6.69693 13.7932 6.755L12.4998 7.40167L11.2065 6.755C11.0906 6.69693 10.9628 6.66669 10.8332 6.66669C10.7036 6.66669 10.5757 6.69693 10.4598 6.755L9.1665 7.40167L7.87317 6.755C7.74612 6.69134 7.6049 6.66122 7.46294 6.66751C7.32097 6.67381 7.18297 6.7163 7.06205 6.79095C6.94113 6.86561 6.84132 6.96994 6.77209 7.09405C6.70285 7.21815 6.66651 7.35789 6.6665 7.5V30.8333C6.6665 31.9384 7.10549 32.9982 7.88689 33.7796C8.66829 34.561 9.7281 35 10.8332 35H30.8332C31.9382 35 32.998 34.561 33.7794 33.7796C34.5608 32.9982 34.9998 31.9384 34.9998 30.8333V25.8333C34.9998 25.6912 34.9635 25.5515 34.8943 25.4274C34.825 25.3033 34.7252 25.1989 34.6043 25.1243C34.4834 25.0496 34.3454 25.0071 34.2034 25.0008C34.0614 24.9946 33.9202 25.0247 33.7932 25.0883V25.0883ZM17.4998 16.6667C17.4971 17.4035 17.2502 18.1187 16.7979 18.7004C16.3456 19.282 15.7133 19.6975 14.9998 19.8817V27.5C14.9998 27.721 14.912 27.933 14.7558 28.0893C14.5995 28.2455 14.3875 28.3333 14.1665 28.3333C13.9455 28.3333 13.7335 28.2455 13.5772 28.0893C13.421 27.933 13.3332 27.721 13.3332 27.5V19.8817C12.6197 19.6975 11.9874 19.282 11.5351 18.7004C11.0828 18.1187 10.8359 17.4035 10.8332 16.6667V14.1667C10.8332 13.9457 10.921 13.7337 11.0772 13.5774C11.2335 13.4211 11.4455 13.3333 11.6665 13.3333C11.8875 13.3333 12.0995 13.4211 12.2558 13.5774C12.412 13.7337 12.4998 13.9457 12.4998 14.1667V16.6667C12.5032 16.9541 12.5819 17.2356 12.7281 17.483C12.8743 17.7305 13.083 17.9352 13.3332 18.0767V14.1667C13.3332 13.9457 13.421 13.7337 13.5772 13.5774C13.7335 13.4211 13.9455 13.3333 14.1665 13.3333C14.3875 13.3333 14.5995 13.4211 14.7558 13.5774C14.912 13.7337 14.9998 13.9457 14.9998 14.1667V18.0767C15.25 17.9352 15.4587 17.7305 15.6049 17.483C15.7511 17.2356 15.8299 16.9541 15.8332 16.6667V14.1667C15.8332 13.9457 15.921 13.7337 16.0772 13.5774C16.2335 13.4211 16.4455 13.3333 16.6665 13.3333C16.8875 13.3333 17.0995 13.4211 17.2558 13.5774C17.412 13.7337 17.4998 13.9457 17.4998 14.1667V16.6667ZM23.2582 23.3783L20.8332 23.985V27.5C20.8332 27.721 20.7454 27.933 20.5891 28.0893C20.4328 28.2455 20.2209 28.3333 19.9998 28.3333C19.7788 28.3333 19.5669 28.2455 19.4106 28.0893C19.2543 27.933 19.1665 27.721 19.1665 27.5V14.1667C19.1662 14.0016 19.2149 13.8402 19.3065 13.7029C19.398 13.5656 19.5283 13.4586 19.6807 13.3954C19.8332 13.3322 20.001 13.3157 20.1628 13.3479C20.3247 13.3802 20.4733 13.4598 20.5898 13.5767C21.7275 14.7082 22.6294 16.0542 23.2433 17.5367C23.8572 19.0192 24.171 20.6088 24.1665 22.2133C24.167 22.4811 24.0778 22.7413 23.9132 22.9524C23.7486 23.1636 23.518 23.3135 23.2582 23.3783V23.3783ZM33.3332 30.8333C33.3332 31.4964 33.0698 32.1323 32.6009 32.6011C32.1321 33.0699 31.4962 33.3333 30.8332 33.3333C30.1701 33.3333 29.5342 33.0699 29.0654 32.6011C28.5966 32.1323 28.3332 31.4964 28.3332 30.8333V27.1817L28.7932 27.4117C28.9091 27.4697 29.0369 27.5 29.1665 27.5C29.2961 27.5 29.424 27.4697 29.5398 27.4117L30.8332 26.765L32.1265 27.4117C32.2424 27.4697 32.3702 27.5 32.4998 27.5C32.6295 27.5 32.7573 27.4697 32.8732 27.4117L33.3332 27.1817V30.8333Z" fill="#A098AE"/>
</svg>
