<svg width="32" height="32" viewBox="0 0 32 32" fill="none" xmlns="http://www.w3.org/2000/svg">
<path d="M15.9998 26.4999C15.8937 26.4995 15.7889 26.4765 15.6923 26.4324C11.5523 24.5949 8.79233 21.0099 7.44233 15.7674L6.24983 10.9299C6.21174 10.7789 6.2216 10.6198 6.27805 10.4747C6.33449 10.3295 6.43473 10.2055 6.56483 10.1199L7.11983 9.75245C9.79484 7.97057 12.6954 6.5531 15.7448 5.53745C15.8982 5.48654 16.0639 5.48654 16.2173 5.53745C19.2672 6.55545 22.1677 7.97546 24.8423 9.75995L25.3973 10.1274C25.5328 10.2074 25.6398 10.3278 25.703 10.4718C25.7663 10.6159 25.7826 10.7761 25.7498 10.9299L24.5423 15.7674C23.2298 21.0174 20.4623 24.5949 16.2923 26.4324C16.2004 26.4744 16.1009 26.4974 15.9998 26.4999ZM7.85483 11.0799L8.93483 15.3999C10.0973 20.0424 12.4748 23.2449 15.9998 24.9249C19.5248 23.2449 21.9023 20.0424 23.0648 15.4074L24.1448 11.0874L24.0323 11.0124C21.5376 9.34829 18.8376 8.01467 15.9998 7.04495C13.165 8.01275 10.4675 9.34384 7.97483 11.0049L7.85483 11.0799Z" fill="#2E2E2E"/>
<path d="M16.4347 5.64248C16.3385 5.57279 16.2272 5.52692 16.1099 5.50867C15.9925 5.49041 15.8725 5.50029 15.7597 5.53748C12.7125 6.55609 9.81447 7.97608 7.1422 9.75998L6.5872 10.1275C6.45445 10.2095 6.35059 10.3309 6.2901 10.4747C6.2296 10.6186 6.21548 10.7777 6.2497 10.93L7.4572 15.7675C8.7697 21.0175 11.5372 24.595 15.7072 26.4325C15.8206 26.4805 15.9441 26.4999 16.0668 26.4889C16.1894 26.4779 16.3075 26.4368 16.4105 26.3694C16.5136 26.3019 16.5984 26.2101 16.6576 26.1021C16.7167 25.9941 16.7484 25.8731 16.7497 25.75V6.24998C16.7492 6.13099 16.7203 6.01384 16.6655 5.90821C16.6108 5.80258 16.5316 5.71149 16.4347 5.64248V5.64248Z" fill="#2E2E2E"/>
</svg>
