<svg width="32" height="32" viewBox="0 0 32 32" fill="none" xmlns="http://www.w3.org/2000/svg">
<path d="M22 16C24.4853 16 26.5 13.9853 26.5 11.5C26.5 9.01472 24.4853 7 22 7C19.5147 7 17.5 9.01472 17.5 11.5C17.5 13.9853 19.5147 16 22 16Z" fill="#2E2E2E"/>
<path d="M25.75 25H6.25C6.05109 25 5.86032 24.921 5.71967 24.7803C5.57902 24.6397 5.5 24.4489 5.5 24.25V11.5C5.5 11.3011 5.57902 11.1103 5.71967 10.9697C5.86032 10.829 6.05109 10.75 6.25 10.75H15.25C15.4489 10.75 15.6397 10.829 15.7803 10.9697C15.921 11.1103 16 11.3011 16 11.5C16 11.6989 15.921 11.8897 15.7803 12.0303C15.6397 12.171 15.4489 12.25 15.25 12.25H7V23.5H25V16.75C25 16.5511 25.079 16.3603 25.2197 16.2197C25.3603 16.079 25.5511 16 25.75 16C25.9489 16 26.1397 16.079 26.2803 16.2197C26.421 16.3603 26.5 16.5511 26.5 16.75V24.25C26.5 24.4489 26.421 24.6397 26.2803 24.7803C26.1397 24.921 25.9489 25 25.75 25Z" fill="#2E2E2E"/>
</svg>
