<svg width="40" height="40" viewBox="0 0 40 40" fill="none" xmlns="http://www.w3.org/2000/svg">
<path d="M8.3335 30.8333C8.3335 33.6966 14.8135 34.9999 20.8335 34.9999C26.8535 34.9999 33.3335 33.6966 33.3335 30.8333C33.3335 28.5599 29.3985 27.5333 26.5635 27.0899L28.5002 25.1666C30.0153 23.6516 31.0472 21.7212 31.4653 19.6198C31.8834 17.5183 31.6689 15.34 30.8489 13.3604C30.029 11.3808 28.6405 9.68884 26.8589 8.49842C25.0774 7.30799 22.9828 6.67261 20.8402 6.67261C18.6975 6.67261 16.6029 7.30799 14.8214 8.49842C13.0398 9.68884 11.6513 11.3808 10.8314 13.3604C10.0115 15.34 9.79698 17.5183 10.2151 19.6198C10.6331 21.7212 11.665 23.6516 13.1802 25.1666L15.1102 27.0966C12.2685 27.5333 8.3335 28.5599 8.3335 30.8333ZM22.5002 13.3333C22.5002 13.1785 22.5433 13.0268 22.6246 12.8951C22.706 12.7635 22.8224 12.6571 22.9608 12.5879C23.0992 12.5187 23.2542 12.4894 23.4083 12.5033C23.5625 12.5172 23.7097 12.5737 23.8335 12.6666C24.8654 13.4408 25.7223 14.4241 26.3481 15.5523C26.9739 16.6804 27.3546 17.9279 27.4652 19.2133C27.5018 19.6081 27.3954 20.003 27.1653 20.326C26.9353 20.649 26.5969 20.8787 26.2118 20.9733L24.1668 21.4849V23.3333C24.1668 23.5543 24.079 23.7662 23.9228 23.9225C23.7665 24.0788 23.5545 24.1666 23.3335 24.1666C23.1125 24.1666 22.9005 24.0788 22.7442 23.9225C22.588 23.7662 22.5002 23.5543 22.5002 23.3333V13.3333ZM15.0002 14.9999V13.3333C15.0002 13.1122 15.088 12.9003 15.2442 12.744C15.4005 12.5877 15.6125 12.4999 15.8335 12.4999C16.0545 12.4999 16.2665 12.5877 16.4228 12.744C16.579 12.9003 16.6668 13.1122 16.6668 13.3333V14.9999C16.6701 15.2873 16.7489 15.5688 16.8951 15.8163C17.0413 16.0637 17.25 16.2684 17.5002 16.4099V13.3333C17.5002 13.1122 17.588 12.9003 17.7442 12.744C17.9005 12.5877 18.1125 12.4999 18.3335 12.4999C18.5545 12.4999 18.7665 12.5877 18.9228 12.744C19.079 12.9003 19.1668 13.1122 19.1668 13.3333V16.4099C19.417 16.2684 19.6257 16.0637 19.7719 15.8163C19.9181 15.5688 19.9968 15.2873 20.0002 14.9999V13.3333C20.0002 13.1122 20.088 12.9003 20.2442 12.744C20.4005 12.5877 20.6125 12.4999 20.8335 12.4999C21.0545 12.4999 21.2665 12.5877 21.4228 12.744C21.579 12.9003 21.6668 13.1122 21.6668 13.3333V14.9999C21.6641 15.7368 21.4172 16.4519 20.9649 17.0336C20.5126 17.6153 19.8803 18.0307 19.1668 18.2149V23.3333C19.1668 23.5543 19.079 23.7662 18.9228 23.9225C18.7665 24.0788 18.5545 24.1666 18.3335 24.1666C18.1125 24.1666 17.9005 24.0788 17.7442 23.9225C17.588 23.7662 17.5002 23.5543 17.5002 23.3333V18.2149C16.7867 18.0307 16.1544 17.6153 15.7021 17.0336C15.2498 16.4519 15.0029 15.7368 15.0002 14.9999ZM16.5902 28.5766L19.0652 31.0533C19.2973 31.2856 19.573 31.4699 19.8764 31.5956C20.1798 31.7213 20.5051 31.7861 20.8335 31.7861C21.1619 31.7861 21.4872 31.7213 21.7906 31.5956C22.094 31.4699 22.3697 31.2856 22.6018 31.0533L25.0768 28.5766C29.6568 29.1066 31.6668 30.3133 31.6668 30.8333C31.6668 31.5799 27.9818 33.3333 20.8335 33.3333C13.6852 33.3333 10.0002 31.5799 10.0002 30.8333C10.0002 30.3133 12.0102 29.1066 16.5902 28.5766Z" fill="white"/>
</svg>
