<svg width="84" height="34" viewBox="0 0 84 34" fill="none" xmlns="http://www.w3.org/2000/svg">
<path d="M48.0297 16.7446C50.5273 16.7446 52.552 14.72 52.552 12.2224C52.552 9.72476 50.5273 7.70007 48.0297 7.70007C45.5321 7.70007 43.5074 9.72476 43.5074 12.2224C43.5074 14.72 45.5321 16.7446 48.0297 16.7446Z" fill="#2E2E2E"/>
<path d="M51.7983 25.7892H32.2017C32.0018 25.7892 31.8101 25.7098 31.6687 25.5685C31.5274 25.4271 31.448 25.2354 31.448 25.0355V12.2224C31.448 12.0225 31.5274 11.8307 31.6687 11.6894C31.8101 11.5481 32.0018 11.4686 32.2017 11.4686H41.2463C41.4462 11.4686 41.6379 11.5481 41.7792 11.6894C41.9206 11.8307 42 12.0225 42 12.2224C42 12.4223 41.9206 12.614 41.7792 12.7553C41.6379 12.8967 41.4462 12.9761 41.2463 12.9761H32.9554V24.2818H51.0446V17.4984C51.0446 17.2985 51.124 17.1068 51.2653 16.9654C51.4067 16.8241 51.5984 16.7446 51.7983 16.7446C51.9982 16.7446 52.1899 16.8241 52.3313 16.9654C52.4726 17.1068 52.552 17.2985 52.552 17.4984V25.0355C52.552 25.2354 52.4726 25.4271 52.3313 25.5685C52.1899 25.7098 51.9982 25.7892 51.7983 25.7892Z" fill="#2E2E2E"/>
</svg>
