<svg width="144" height="60" viewBox="0 0 144 60" fill="none" xmlns="http://www.w3.org/2000/svg">
<rect width="60" height="60" rx="16" fill="white"/>
<g clip-path="url(#clip0_2_3227)">
<path d="M27.0309 27.4253C26.3878 27.4253 25.7446 27.4253 25.1035 27.4253C24.0861 27.4253 23.0707 27.4253 22.0532 27.4253C21.805 27.4253 21.5465 27.446 21.2984 27.4191C21.3708 27.4294 21.4452 27.4398 21.5176 27.448C21.4514 27.4377 21.3914 27.4232 21.3294 27.3984C21.3956 27.4253 21.4618 27.4543 21.5279 27.4811C21.47 27.4543 21.4163 27.4232 21.3646 27.3839C21.4204 27.4274 21.4762 27.4708 21.5321 27.5142C21.4907 27.4791 21.4535 27.4418 21.4183 27.4005C21.4618 27.4563 21.5052 27.5122 21.5486 27.568C21.5093 27.5163 21.4783 27.4646 21.4514 27.4046C21.4783 27.4708 21.5073 27.537 21.5341 27.6031C21.5093 27.5411 21.4928 27.4811 21.4845 27.415C21.4948 27.4873 21.5052 27.5618 21.5135 27.6342C21.4928 27.4294 21.5073 27.2185 21.5073 27.0138C21.5073 26.5588 21.5073 26.1038 21.5073 25.6509C21.5073 24.6252 21.5073 23.5974 21.5073 22.5717C21.5073 22.3235 21.4866 22.065 21.5135 21.8168C21.5031 21.8892 21.4928 21.9637 21.4845 22.0361C21.4948 21.9699 21.5093 21.9099 21.5341 21.8479C21.5073 21.914 21.4783 21.9802 21.4514 22.0464C21.4783 21.9885 21.5093 21.9347 21.5486 21.883C21.5052 21.9389 21.4618 21.9947 21.4183 22.0505C21.4535 22.0092 21.4907 21.9719 21.5321 21.9368C21.4762 21.9802 21.4204 22.0236 21.3646 22.0671C21.4163 22.0278 21.468 21.9968 21.5279 21.9699C21.4618 21.9968 21.3956 22.0257 21.3294 22.0526C21.3914 22.0278 21.4514 22.0112 21.5176 22.003C21.4452 22.0133 21.3708 22.0236 21.2984 22.0319C21.5031 22.0112 21.7141 22.0257 21.9188 22.0257C22.3738 22.0257 22.8287 22.0257 23.2816 22.0257C24.3073 22.0257 25.3351 22.0257 26.3609 22.0257C26.609 22.0257 26.8675 22.005 27.1157 22.0319C27.0433 22.0216 26.9689 22.0112 26.8965 22.003C26.9627 22.0133 27.0226 22.0278 27.0847 22.0526C27.0185 22.0257 26.9523 21.9968 26.8862 21.9699C26.9441 21.9968 26.9978 22.0278 27.0495 22.0671C26.9937 22.0236 26.9379 21.9802 26.882 21.9368C26.9234 21.9719 26.9606 22.0092 26.9958 22.0505C26.9523 21.9947 26.9089 21.9389 26.8655 21.883C26.9048 21.9347 26.9358 21.9864 26.9627 22.0464C26.9358 21.9802 26.9068 21.914 26.88 21.8479C26.9048 21.9099 26.9213 21.9699 26.9296 22.0361C26.9192 21.9637 26.9089 21.8892 26.9006 21.8168C26.9213 22.0216 26.9068 22.2325 26.9068 22.4372C26.9068 22.8922 26.9068 23.3472 26.9068 23.8001C26.9068 24.8258 26.9068 25.8536 26.9068 26.8793C26.9068 27.1275 26.9275 27.386 26.9006 27.6342C26.911 27.5618 26.9213 27.4873 26.9296 27.415C26.9192 27.4811 26.9048 27.5411 26.88 27.6031C26.9068 27.537 26.9358 27.4708 26.9627 27.4046C26.9358 27.4625 26.9048 27.5163 26.8655 27.568C26.9089 27.5122 26.9523 27.4563 26.9958 27.4005C26.9606 27.4418 26.9234 27.4791 26.882 27.5142C26.9379 27.4708 26.9937 27.4274 27.0495 27.3839C26.9978 27.4232 26.9461 27.4543 26.8862 27.4811C26.9523 27.4543 27.0185 27.4253 27.0847 27.3984C27.0226 27.4232 26.9627 27.4398 26.8965 27.448C26.9689 27.4377 27.0433 27.4274 27.1157 27.4191C27.0888 27.4232 27.0599 27.4253 27.0309 27.4253C26.8158 27.4294 26.5987 27.5142 26.4457 27.6673C26.303 27.8099 26.1934 28.0457 26.2037 28.2525C26.2244 28.693 26.5677 29.09 27.0309 29.0797C27.4363 29.0714 27.825 28.9205 28.1125 28.631C28.3937 28.3497 28.5426 27.9733 28.5592 27.5783C28.5613 27.5101 28.5592 27.4439 28.5592 27.3757C28.5592 26.9745 28.5592 26.5712 28.5592 26.17C28.5592 25.0264 28.5592 23.8828 28.5592 22.7392C28.5592 22.4641 28.5633 22.1891 28.5592 21.914C28.5509 21.3515 28.2428 20.7828 27.7196 20.5409C27.488 20.4333 27.2791 20.3754 27.0185 20.3734C26.9875 20.3734 26.9585 20.3734 26.9275 20.3734C25.9824 20.3734 25.0374 20.3734 24.0923 20.3734C23.203 20.3734 22.3138 20.3734 21.4266 20.3734C21.0089 20.3734 20.5994 20.5223 20.3016 20.8221C20.0017 21.122 19.8528 21.5294 19.8528 21.9513C19.8528 22.2739 19.8528 22.5986 19.8528 22.9212C19.8528 24.0689 19.8528 25.2167 19.8528 26.3644C19.8528 26.7263 19.8528 27.0882 19.8528 27.4522C19.8528 27.4811 19.8528 27.5101 19.8528 27.5411C19.8549 27.7996 19.9149 28.0126 20.0204 28.2422C20.2623 28.7654 20.831 29.0735 21.3935 29.0818C22.2207 29.0921 23.0479 29.0818 23.8751 29.0818C24.8678 29.0818 25.8625 29.0818 26.8551 29.0818C26.913 29.0818 26.9709 29.0818 27.0289 29.0818C27.4611 29.0818 27.8767 28.7013 27.8561 28.2546C27.8395 27.8037 27.4962 27.4253 27.0309 27.4253ZM27.0309 30.9202C26.274 30.9202 25.5192 30.9202 24.7623 30.9202C23.7242 30.9202 22.686 30.9202 21.6479 30.9202C21.5631 30.9202 21.4783 30.9182 21.3935 30.9202C20.7235 30.9306 20.161 31.3442 19.9356 31.9708C19.8218 32.2851 19.8549 32.6615 19.8549 32.9924C19.8549 34.1008 19.8549 35.2072 19.8549 36.3157C19.8549 36.7872 19.8549 37.2566 19.8549 37.7281C19.8549 37.8378 19.8549 37.9494 19.8549 38.059C19.8549 38.4892 20.0162 38.9255 20.343 39.2171C20.6511 39.4922 21.0254 39.6287 21.4369 39.6287C21.559 39.6287 21.6789 39.6287 21.8009 39.6287C22.2786 39.6287 22.7584 39.6287 23.2361 39.6287C24.3363 39.6287 25.4344 39.6287 26.5346 39.6287C26.669 39.6287 26.8055 39.6287 26.9399 39.6287C27.2336 39.6287 27.5086 39.5749 27.7733 39.4363C28.2676 39.1799 28.5592 38.6298 28.5633 38.0838C28.5633 37.9887 28.5633 37.8957 28.5633 37.8005C28.5633 36.7541 28.5633 35.7056 28.5633 34.6592C28.5633 34.136 28.5633 33.6149 28.5633 33.0917C28.5633 32.8518 28.5799 32.6036 28.5571 32.3637C28.524 31.9832 28.3813 31.613 28.0939 31.3483C27.8002 31.0774 27.4342 30.9285 27.0309 30.9202C26.5987 30.912 26.183 31.307 26.2037 31.7474C26.2244 32.2024 26.5677 32.5643 27.0309 32.5747C27.0599 32.5747 27.0888 32.5767 27.1178 32.5809C27.0454 32.5705 26.9709 32.5602 26.8986 32.5519C26.9647 32.5622 27.0247 32.5767 27.0868 32.6015C27.0206 32.5747 26.9544 32.5457 26.8882 32.5188C26.9461 32.5457 26.9999 32.5767 27.0516 32.616C26.9958 32.5726 26.9399 32.5292 26.8841 32.4857C26.9255 32.5209 26.9627 32.5581 26.9978 32.5995C26.9544 32.5436 26.911 32.4878 26.8675 32.432C26.9068 32.4837 26.9379 32.5354 26.9647 32.5953C26.9379 32.5292 26.9089 32.463 26.882 32.3968C26.9068 32.4588 26.9234 32.5188 26.9317 32.585C26.9213 32.5126 26.911 32.4382 26.9027 32.3658C26.9234 32.5705 26.9089 32.7815 26.9089 32.9862C26.9089 33.4412 26.9089 33.8961 26.9089 34.349C26.9089 35.3747 26.9089 36.4026 26.9089 37.4283C26.9089 37.6764 26.9296 37.9349 26.9027 38.1831C26.913 38.1107 26.9234 38.0363 26.9317 37.9639C26.9213 38.0301 26.9068 38.0901 26.882 38.1521C26.9089 38.0859 26.9379 38.0197 26.9647 37.9536C26.9379 38.0115 26.9068 38.0652 26.8675 38.1169C26.911 38.0611 26.9544 38.0053 26.9978 37.9494C26.9627 37.9908 26.9255 38.028 26.8841 38.0632C26.9399 38.0197 26.9958 37.9763 27.0516 37.9329C26.9999 37.9722 26.9482 38.0032 26.8882 38.0301C26.9544 38.0032 27.0206 37.9742 27.0868 37.9474C27.0247 37.9722 26.9647 37.9887 26.8986 37.997C26.9709 37.9866 27.0454 37.9763 27.1178 37.968C26.913 37.9887 26.7021 37.9742 26.4974 37.9742C26.0424 37.9742 25.5874 37.9742 25.1346 37.9742C24.1088 37.9742 23.081 37.9742 22.0553 37.9742C21.8071 37.9742 21.5486 37.9949 21.3005 37.968C21.3728 37.9784 21.4473 37.9887 21.5197 37.997C21.4535 37.9866 21.3935 37.9722 21.3315 37.9474C21.3976 37.9742 21.4638 38.0032 21.53 38.0301C21.4721 38.0032 21.4183 37.9722 21.3666 37.9329C21.4225 37.9763 21.4783 38.0197 21.5341 38.0632C21.4928 38.028 21.4556 37.9908 21.4204 37.9494C21.4638 38.0053 21.5073 38.0611 21.5507 38.1169C21.5114 38.0652 21.4804 38.0135 21.4535 37.9536C21.4804 38.0197 21.5093 38.0859 21.5362 38.1521C21.5114 38.0901 21.4948 38.0301 21.4866 37.9639C21.4969 38.0363 21.5073 38.1107 21.5155 38.1831C21.4948 37.9784 21.5093 37.7674 21.5093 37.5627C21.5093 37.1077 21.5093 36.6528 21.5093 36.1999C21.5093 35.1741 21.5093 34.1463 21.5093 33.1206C21.5093 32.8724 21.4886 32.6139 21.5155 32.3658C21.5052 32.4382 21.4948 32.5126 21.4866 32.585C21.4969 32.5188 21.5114 32.4588 21.5362 32.3968C21.5093 32.463 21.4804 32.5292 21.4535 32.5953C21.4804 32.5374 21.5114 32.4837 21.5507 32.432C21.5073 32.4878 21.4638 32.5436 21.4204 32.5995C21.4556 32.5581 21.4928 32.5209 21.5341 32.4857C21.4783 32.5292 21.4225 32.5726 21.3666 32.616C21.4183 32.5767 21.47 32.5457 21.53 32.5188C21.4638 32.5457 21.3976 32.5747 21.3315 32.6015C21.3935 32.5767 21.4535 32.5602 21.5197 32.5519C21.4473 32.5622 21.3728 32.5726 21.3005 32.5809C21.5052 32.5602 21.7161 32.5747 21.9209 32.5747C22.3655 32.5747 22.8101 32.5747 23.2547 32.5747C24.2763 32.5747 25.2979 32.5747 26.3216 32.5747C26.5594 32.5747 26.7952 32.5747 27.033 32.5747C27.4652 32.5747 27.8809 32.1941 27.8602 31.7474C27.8395 31.2987 27.4962 30.9202 27.0309 30.9202ZM30.7409 23.647C31.0263 23.647 31.3096 23.647 31.595 23.647C32.2775 23.647 32.962 23.647 33.6444 23.647C34.4675 23.647 35.2906 23.647 36.1136 23.647C36.8292 23.647 37.5426 23.647 38.2582 23.647C38.6056 23.647 38.953 23.6532 39.3005 23.647C39.3046 23.647 39.3108 23.647 39.3149 23.647C39.7471 23.647 40.1628 23.2665 40.1421 22.8198C40.1215 22.3711 39.7782 21.9926 39.3149 21.9926C39.0295 21.9926 38.7462 21.9926 38.4608 21.9926C37.7784 21.9926 37.0939 21.9926 36.4114 21.9926C35.5884 21.9926 34.7653 21.9926 33.9422 21.9926C33.2267 21.9926 32.5132 21.9926 31.7977 21.9926C31.4503 21.9926 31.1028 21.9864 30.7554 21.9926C30.7513 21.9926 30.7451 21.9926 30.7409 21.9926C30.3087 21.9926 29.8931 22.3731 29.9137 22.8198C29.9323 23.2665 30.2777 23.647 30.7409 23.647ZM36.0681 25.806C35.4684 25.806 34.8687 25.806 34.2669 25.806C33.3094 25.806 32.354 25.806 31.3965 25.806C31.1773 25.806 30.9581 25.806 30.7389 25.806C30.3067 25.806 29.891 26.1866 29.9117 26.6332C29.9323 27.082 30.2756 27.4605 30.7389 27.4605C31.3386 27.4605 31.9383 27.4605 32.5401 27.4605C33.4976 27.4605 34.453 27.4605 35.4105 27.4605C35.6297 27.4605 35.8489 27.4605 36.0681 27.4605C36.5004 27.4605 36.916 27.0799 36.8954 26.6332C36.8767 26.1845 36.5334 25.806 36.0681 25.806ZM30.7409 34.1939C31.0263 34.1939 31.3096 34.1939 31.595 34.1939C32.2775 34.1939 32.962 34.1939 33.6444 34.1939C34.4675 34.1939 35.2906 34.1939 36.1136 34.1939C36.8292 34.1939 37.5426 34.1939 38.2582 34.1939C38.6056 34.1939 38.953 34.2001 39.3005 34.1939C39.3046 34.1939 39.3108 34.1939 39.3149 34.1939C39.7471 34.1939 40.1628 33.8134 40.1421 33.3667C40.1215 32.9179 39.7782 32.5395 39.3149 32.5395C39.0295 32.5395 38.7462 32.5395 38.4608 32.5395C37.7784 32.5395 37.0939 32.5395 36.4114 32.5395C35.5884 32.5395 34.7653 32.5395 33.9422 32.5395C33.2267 32.5395 32.5132 32.5395 31.7977 32.5395C31.4503 32.5395 31.1028 32.5333 30.7554 32.5395C30.7513 32.5395 30.7451 32.5395 30.7409 32.5395C30.3087 32.5395 29.8931 32.92 29.9137 33.3667C29.9323 33.8155 30.2777 34.1939 30.7409 34.1939ZM36.0681 36.3529C35.4684 36.3529 34.8687 36.3529 34.2669 36.3529C33.3094 36.3529 32.354 36.3529 31.3965 36.3529C31.1773 36.3529 30.9581 36.3529 30.7389 36.3529C30.3067 36.3529 29.891 36.7334 29.9117 37.1801C29.9323 37.6289 30.2756 38.0073 30.7389 38.0073C31.3386 38.0073 31.9383 38.0073 32.5401 38.0073C33.4976 38.0073 34.453 38.0073 35.4105 38.0073C35.6297 38.0073 35.8489 38.0073 36.0681 38.0073C36.5004 38.0073 36.916 37.6268 36.8954 37.1801C36.8767 36.7334 36.5334 36.3529 36.0681 36.3529Z" fill="#A098AE"/>
</g>
<rect x="84" width="60" height="60" rx="16" fill="#F8B602" fill-opacity="0.1"/>
<path d="M110 18H104.667C103.959 18 103.281 18.281 102.781 18.781C102.281 19.2811 102 19.9594 102 20.6667V26C102 26.7072 102.281 27.3855 102.781 27.8856C103.281 28.3857 103.959 28.6667 104.667 28.6667H110C110.707 28.6667 111.386 28.3857 111.886 27.8856C112.386 27.3855 112.667 26.7072 112.667 26V20.6667C112.667 19.9594 112.386 19.2811 111.886 18.781C111.386 18.281 110.707 18 110 18ZM104.667 26V20.6667H110V26H104.667ZM123.333 18H118C117.293 18 116.614 18.281 116.114 18.781C115.614 19.2811 115.333 19.9594 115.333 20.6667V26C115.333 26.7072 115.614 27.3855 116.114 27.8856C116.614 28.3857 117.293 28.6667 118 28.6667H123.333C124.041 28.6667 124.719 28.3857 125.219 27.8856C125.719 27.3855 126 26.7072 126 26V20.6667C126 19.9594 125.719 19.2811 125.219 18.781C124.719 18.281 124.041 18 123.333 18ZM118 26V20.6667H123.333V26H118ZM110 31.3333H104.667C103.959 31.3333 103.281 31.6143 102.781 32.1144C102.281 32.6145 102 33.2928 102 34V39.3333C102 40.0406 102.281 40.7189 102.781 41.219C103.281 41.719 103.959 42 104.667 42H110C110.707 42 111.386 41.719 111.886 41.219C112.386 40.7189 112.667 40.0406 112.667 39.3333V34C112.667 33.2928 112.386 32.6145 111.886 32.1144C111.386 31.6143 110.707 31.3333 110 31.3333ZM104.667 39.3333V34H110V39.3333H104.667ZM123.333 31.3333H118C117.293 31.3333 116.614 31.6143 116.114 32.1144C115.614 32.6145 115.333 33.2928 115.333 34V39.3333C115.333 40.0406 115.614 40.7189 116.114 41.219C116.614 41.719 117.293 42 118 42H123.333C124.041 42 124.719 41.719 125.219 41.219C125.719 40.7189 126 40.0406 126 39.3333V34C126 33.2928 125.719 32.6145 125.219 32.1144C124.719 31.6143 124.041 31.3333 123.333 31.3333ZM118 39.3333V34H123.333V39.3333H118Z" fill="#F8B602"/>
<defs>
<clipPath id="clip0_2_3227">
<rect x="19.4104" y="19.4117" width="21.1765" height="21.1765" fill="white"/>
</clipPath>
</defs>
</svg>
