<svg width="32" height="32" viewBox="0 0 32 32" fill="none" xmlns="http://www.w3.org/2000/svg">
<path d="M16 10C17.2426 10 18.25 8.99264 18.25 7.75C18.25 6.50736 17.2426 5.5 16 5.5C14.7574 5.5 13.75 6.50736 13.75 7.75C13.75 8.99264 14.7574 10 16 10Z" fill="#2E2E2E"/>
<path d="M17.5 10.75H14.5C13.5054 10.75 12.5516 11.1451 11.8483 11.8483C11.1451 12.5516 10.75 13.5054 10.75 14.5V18.25C10.75 18.4489 10.829 18.6397 10.9697 18.7803C11.1103 18.921 11.3011 19 11.5 19C11.6989 19 11.8897 18.921 12.0303 18.7803C12.171 18.6397 12.25 18.4489 12.25 18.25V14.5C12.2513 14.0358 12.3962 13.5833 12.6647 13.2047C12.9332 12.8261 13.3123 12.5397 13.75 12.385V25.75C13.75 25.9489 13.829 26.1397 13.9697 26.2803C14.1103 26.421 14.3011 26.5 14.5 26.5C14.6989 26.5 14.8897 26.421 15.0303 26.2803C15.171 26.1397 15.25 25.9489 15.25 25.75V19.615C15.7331 19.799 16.2669 19.799 16.75 19.615V25.75C16.75 25.9489 16.829 26.1397 16.9697 26.2803C17.1103 26.421 17.3011 26.5 17.5 26.5C17.6989 26.5 17.8897 26.421 18.0303 26.2803C18.171 26.1397 18.25 25.9489 18.25 25.75V12.385C18.6877 12.5397 19.0668 12.8261 19.3353 13.2047C19.6038 13.5833 19.7487 14.0358 19.75 14.5V18.25C19.75 18.4489 19.829 18.6397 19.9697 18.7803C20.1103 18.921 20.3011 19 20.5 19C20.6989 19 20.8897 18.921 21.0303 18.7803C21.171 18.6397 21.25 18.4489 21.25 18.25V14.5C21.25 14.0075 21.153 13.5199 20.9645 13.0649C20.7761 12.61 20.4999 12.1966 20.1517 11.8483C19.8034 11.5001 19.39 11.2239 18.9351 11.0355C18.4801 10.847 17.9925 10.75 17.5 10.75V10.75Z" fill="#2E2E2E"/>
</svg>
