<svg width="24" height="24" viewBox="0 0 24 24" fill="none" xmlns="http://www.w3.org/2000/svg">
<path d="M15.0002 12C15.0009 12.1316 14.9757 12.2621 14.926 12.3839C14.8762 12.5057 14.8029 12.6166 14.7102 12.71L10.7102 16.71C10.5219 16.8983 10.2665 17.0041 10.0002 17.0041C9.73388 17.0041 9.47849 16.8983 9.29018 16.71C9.10188 16.5217 8.99609 16.2663 8.99609 16C8.99609 15.7337 9.10188 15.4783 9.29018 15.29L12.5902 12L9.30018 8.71C9.13636 8.51869 9.05075 8.27262 9.06047 8.02094C9.07019 7.76927 9.17453 7.53053 9.35262 7.35243C9.53072 7.17434 9.76945 7.07001 10.0211 7.06029C10.2728 7.05057 10.5189 7.13617 10.7102 7.3L14.7102 11.3C14.8949 11.4863 14.9991 11.7377 15.0002 12Z" fill="#F8B602"/>
</svg>
