<svg width="30" height="30" viewBox="0 0 30 30" fill="none" xmlns="http://www.w3.org/2000/svg">
<circle cx="14.9999" cy="14.9999" r="14.9999" fill="#F8B602"/>
<g clip-path="url(#clip0_2_868)">
<path d="M7.59323 19.8839L11.6626 14.9492C11.6977 14.9067 11.7218 14.8563 11.7331 14.8024C11.7444 14.7485 11.7425 14.6926 11.7275 14.6396L9.98409 8.48576C9.94232 8.3321 9.94923 8.16928 10.0039 8.01971C10.0585 7.87014 10.1581 7.74119 10.2891 7.65062C10.4201 7.56004 10.5759 7.51231 10.7351 7.51398C10.8943 7.51565 11.0491 7.56665 11.1782 7.65995L23.1067 16.4757C23.2231 16.564 23.3121 16.6835 23.3632 16.8203C23.4144 16.9572 23.4256 17.1058 23.3956 17.2488C23.3656 17.3917 23.2956 17.5233 23.1938 17.6281C23.092 17.7328 22.9625 17.8065 22.8204 17.8406L8.35474 21.12C8.19909 21.1535 8.03686 21.138 7.8904 21.0755C7.74394 21.0131 7.62045 20.9067 7.53693 20.7712C7.45342 20.6356 7.41398 20.4775 7.42407 20.3186C7.43415 20.1597 7.49325 20.0078 7.59323 19.8839Z" fill="white"/>
</g>
<defs>
<clipPath id="clip0_2_868">
<rect width="16" height="16" fill="white" transform="translate(24.3536 17.4497) scale(1.02272) rotate(146.847)"/>
</clipPath>
</defs>
</svg>
