<svg width="40" height="40" viewBox="0 0 40 40" fill="none" xmlns="http://www.w3.org/2000/svg">
<rect width="40" height="40" rx="12" fill="#F8B602"/>
<path d="M30.9335 14.6267C30.5491 14.5483 30.1963 14.3586 29.9189 14.0812C29.6416 13.8038 29.4519 13.451 29.3735 13.0667C29.312 12.7655 29.1484 12.4948 28.9103 12.3005C28.6722 12.1061 28.3742 11.9999 28.0668 12H16.0002V13.3333C16.0002 13.5101 15.9299 13.6797 15.8049 13.8047C15.6799 13.9298 15.5103 14 15.3335 14C15.1567 14 14.9871 13.9298 14.8621 13.8047C14.7371 13.6797 14.6668 13.5101 14.6668 13.3333V12H13.2668C12.9595 11.9999 12.6615 12.1061 12.4234 12.3005C12.1853 12.4948 12.0216 12.7655 11.9602 13.0667C11.8818 13.451 11.6921 13.8038 11.4147 14.0812C11.1373 14.3586 10.7845 14.5483 10.4002 14.6267C10.099 14.6881 9.82832 14.8518 9.63395 15.0899C9.43957 15.328 9.33343 15.626 9.3335 15.9333V25.4C9.33343 25.7074 9.43957 26.0053 9.63395 26.2434C9.82832 26.4816 10.099 26.6452 10.4002 26.7067C10.7845 26.7851 11.1373 26.9747 11.4147 27.2521C11.6921 27.5295 11.8818 27.8823 11.9602 28.2667C12.0216 28.5678 12.1853 28.8385 12.4234 29.0329C12.6615 29.2273 12.9595 29.3334 13.2668 29.3333H14.6668V28C14.6668 27.8232 14.7371 27.6536 14.8621 27.5286C14.9871 27.4036 15.1567 27.3333 15.3335 27.3333C15.5103 27.3333 15.6799 27.4036 15.8049 27.5286C15.9299 27.6536 16.0002 27.8232 16.0002 28V29.3333H28.0668C28.3742 29.3334 28.6722 29.2273 28.9103 29.0329C29.1484 28.8385 29.312 28.5678 29.3735 28.2667C29.4519 27.8823 29.6416 27.5295 29.9189 27.2521C30.1963 26.9747 30.5491 26.7851 30.9335 26.7067C31.2347 26.6452 31.5053 26.4816 31.6997 26.2434C31.8941 26.0053 32.0002 25.7074 32.0002 25.4V15.9333C32.0002 15.626 31.8941 15.328 31.6997 15.0899C31.5053 14.8518 31.2347 14.6881 30.9335 14.6267ZM16.0002 25.4333C16.0002 25.6101 15.9299 25.7797 15.8049 25.9047C15.6799 26.0298 15.5103 26.1 15.3335 26.1C15.1567 26.1 14.9871 26.0298 14.8621 25.9047C14.7371 25.7797 14.6668 25.6101 14.6668 25.4333V23.9667C14.6668 23.7899 14.7371 23.6203 14.8621 23.4953C14.9871 23.3702 15.1567 23.3 15.3335 23.3C15.5103 23.3 15.6799 23.3702 15.8049 23.4953C15.9299 23.6203 16.0002 23.7899 16.0002 23.9667V25.4333ZM16.0002 21.4C16.0002 21.5768 15.9299 21.7464 15.8049 21.8714C15.6799 21.9964 15.5103 22.0667 15.3335 22.0667C15.1567 22.0667 14.9871 21.9964 14.8621 21.8714C14.7371 21.7464 14.6668 21.5768 14.6668 21.4V19.9333C14.6668 19.7565 14.7371 19.587 14.8621 19.4619C14.9871 19.3369 15.1567 19.2667 15.3335 19.2667C15.5103 19.2667 15.6799 19.3369 15.8049 19.4619C15.9299 19.587 16.0002 19.7565 16.0002 19.9333V21.4ZM16.0002 17.3653C16.0002 17.5421 15.9299 17.7117 15.8049 17.8367C15.6799 17.9618 15.5103 18.032 15.3335 18.032C15.1567 18.032 14.9871 17.9618 14.8621 17.8367C14.7371 17.7117 14.6668 17.5421 14.6668 17.3653V15.8987C14.6668 15.7219 14.7371 15.5523 14.8621 15.4273C14.9871 15.3022 15.1567 15.232 15.3335 15.232C15.5103 15.232 15.6799 15.3022 15.8049 15.4273C15.9299 15.5523 16.0002 15.7219 16.0002 15.8987V17.3653ZM23.3335 18C23.3313 18.5895 23.1338 19.1616 22.772 19.627C22.4101 20.0923 21.9043 20.4246 21.3335 20.572V25.3333C21.3335 25.5101 21.2633 25.6797 21.1382 25.8047C21.0132 25.9298 20.8436 26 20.6668 26C20.49 26 20.3204 25.9298 20.1954 25.8047C20.0704 25.6797 20.0002 25.5101 20.0002 25.3333V20.572C19.4294 20.4246 18.9236 20.0923 18.5617 19.627C18.1998 19.1616 18.0024 18.5895 18.0002 18V16C18.0002 15.8232 18.0704 15.6536 18.1954 15.5286C18.3204 15.4036 18.49 15.3333 18.6668 15.3333C18.8436 15.3333 19.0132 15.4036 19.1382 15.5286C19.2633 15.6536 19.3335 15.8232 19.3335 16V18C19.3361 18.2299 19.3991 18.4551 19.5161 18.6531C19.6331 18.851 19.8 19.0148 20.0002 19.128V16C20.0002 15.8232 20.0704 15.6536 20.1954 15.5286C20.3204 15.4036 20.49 15.3333 20.6668 15.3333C20.8436 15.3333 21.0132 15.4036 21.1382 15.5286C21.2633 15.6536 21.3335 15.8232 21.3335 16V19.128C21.5336 19.0148 21.7006 18.851 21.8175 18.6531C21.9345 18.4551 21.9975 18.2299 22.0002 18V16C22.0002 15.8232 22.0704 15.6536 22.1954 15.5286C22.3204 15.4036 22.49 15.3333 22.6668 15.3333C22.8436 15.3333 23.0132 15.4036 23.1382 15.5286C23.2633 15.6536 23.3335 15.8232 23.3335 16V18ZM27.9162 22.7867L26.0002 23.7453V25.3333C26.0002 25.5101 25.9299 25.6797 25.8049 25.8047C25.6799 25.9298 25.5103 26 25.3335 26C25.1567 26 24.9871 25.9298 24.8621 25.8047C24.7371 25.6797 24.6668 25.5101 24.6668 25.3333V16C24.6666 15.868 24.7056 15.7388 24.7788 15.629C24.852 15.5191 24.9562 15.4335 25.0782 15.383C25.2002 15.3324 25.3344 15.3192 25.4639 15.345C25.5934 15.3708 25.7123 15.4345 25.8055 15.528C27.481 17.0914 28.4992 19.2336 28.6535 21.52C28.6677 21.7801 28.6055 22.0386 28.4745 22.2637C28.3434 22.4888 28.1494 22.6706 27.9162 22.7867Z" fill="white"/>
</svg>
