<svg width="24" height="24" viewBox="0 0 24 24" fill="none" xmlns="http://www.w3.org/2000/svg">
<path d="M5.5 12C5.5 8.41714 8.41714 5.5 12 5.5C15.5829 5.5 18.5 8.41714 18.5 12C18.5 15.5829 15.5829 18.5 12 18.5C8.41714 18.5 5.5 15.5829 5.5 12ZM6.5 12C6.5 15.0331 8.96686 17.5 12 17.5C15.0331 17.5 17.5 15.0331 17.5 12C17.5 8.96686 15.0331 6.5 12 6.5C8.96686 6.5 6.5 8.96686 6.5 12Z" fill="#A098AE" stroke="#2E2E2E"/>
<path d="M12 9C10.373 9 9 10.373 9 12C9 13.627 10.373 15 12 15C13.627 15 15 13.627 15 12C15 10.373 13.627 9 12 9Z" fill="#F8B602"/>
</svg>
